<svg xmlns="http://www.w3.org/2000/svg" width="25.16" height="27.091" viewBox="0 0 25.16 27.091">
  <g id="Jobs" transform="translate(-4.003 -2.006)">
    <path id="Path_2454" data-name="Path 2454" d="M34.618,10.077a.972.972,0,0,0-1.437.189.952.952,0,0,0,.155,1.263,10.646,10.646,0,0,1-6.949,18.713H25.9v-.489a.461.461,0,0,0-.731-.387l-1.979,1.456a.484.484,0,0,0,0,.774l1.979,1.457a.461.461,0,0,0,.731-.387v-.489h.484a12.585,12.585,0,0,0,8.231-22.1Z" transform="translate(-9.805 -4.044)"/>
    <path id="Path_2455" data-name="Path 2455" d="M17.8,2.094a.461.461,0,0,0-.731.387v.49h-.484a12.585,12.585,0,0,0-8.231,22.1.972.972,0,0,0,1.437-.189.952.952,0,0,0-.155-1.263A10.646,10.646,0,0,1,16.582,4.906h.484V5.4a.461.461,0,0,0,.731.387l1.979-1.456a.484.484,0,0,0,0-.774Z" transform="translate(0 0)"/>
    <path id="Path_2456" data-name="Path 2456" d="M36.314,30.351l.009-6.513L31,26.818v6.5Z" transform="translate(-13.934 -11.268)" fill="#3b7cff"/>
    <path id="Path_2457" data-name="Path 2457" d="M19.043,18.969l5.3,2.968,5.3-2.969L24.355,16Zm5.724-1.542a.484.484,0,0,1-.186.659L22.162,19.44a.484.484,0,0,1-.472-.844l2.419-1.355A.484.484,0,0,1,24.767,17.427Z" transform="translate(-7.763 -7.225)" fill="#3b7cff"/>
    <path id="Path_2458" data-name="Path 2458" d="M23.323,26.824l-5.315-2.977L18,30.34l5.323,2.99ZM19.936,29.5a.484.484,0,0,1-.968,0V26.34a.484.484,0,0,1,.968,0Z" transform="translate(-7.224 -11.272)" fill="#3b7cff"/>
  </g>
</svg>
