<?xml version="1.0" encoding="UTF-8"?><svg xmlns="http://www.w3.org/2000/svg" viewBox="0 0 157.56 222.34"><defs><style>.d{fill:#393478;}.e{fill:none;stroke-width:9px;}.e,.f{stroke:#393478;stroke-miterlimit:10;}.g{fill:#f76364;}.f{fill:#5fc4f0;stroke-width:6px;}</style></defs><g id="a"/><g id="b"><g id="c"><g><g><path class="f" d="M148.91,115.35v-8.38l-10.08-3.13c-.69-5.65-2.16-11.05-4.3-16.09l7.16-7.73-4.19-7.26-10.3,2.32c-3.36-4.43-7.32-8.41-11.76-11.76l2.32-10.28-7.25-4.19-7.73,7.14c-1.01-.43-2.02-.82-3.06-1.19-4.15-1.51-8.5-2.56-13.03-3.11l-3.14-10.07h-8.38l-3.13,10.07c-5.65,.69-11.05,2.16-16.09,4.3l-7.73-7.14-7.26,4.19,2.33,10.28c-4.45,3.36-8.41,7.33-11.76,11.76l-10.3-2.32-4.19,7.26,7.16,7.73c-2.16,5.04-3.62,10.44-4.3,16.09l-10.08,3.13v8.38l10.08,3.14c.24,1.98,.58,3.93,1.01,5.86,.8,3.53,1.9,6.95,3.29,10.21l-7.16,7.75,4.19,7.25,10.3-2.33c3.36,4.45,7.32,8.41,11.76,11.76l-2.33,10.31,7.26,4.19,7.75-7.17c5.04,2.14,10.43,3.61,16.06,4.3l3.14,10.09h8.38l3.14-10.09c5.63-.69,11.04-2.16,16.06-4.3l7.76,7.17,7.25-4.19-2.32-10.31c4.43-3.36,8.4-7.32,11.75-11.76l10.31,2.33,4.19-7.25-7.16-7.75c2.14-5.04,3.61-10.44,4.3-16.08l10.08-3.14Zm-69.56,26.8c-12.4,0-23.1-7.28-28.06-17.8-1.9-4-2.95-8.48-2.95-13.21,0-17.11,13.89-31.01,31.01-31.01,7.79,0,14.92,2.88,20.36,7.64,6.52,5.67,10.65,14.04,10.65,23.37,0,17.13-13.88,31.01-31.01,31.01Z"/><circle class="g" cx="79.35" cy="111.17" r="30.05"/></g><g><path class="e" d="M3.18,35.84C43.58-4.56,108.12-5.9,150.12,31.81"/><polygon class="d" points="122 37.67 121.69 32.27 148.27 30.78 144.84 4.37 150.2 3.68 154.37 35.84 122 37.67"/></g><g><path class="e" d="M154.37,186.5c-40.4,40.4-104.94,41.74-146.94,4.03"/><polygon class="d" points="35.56 184.67 35.87 190.07 9.29 191.56 12.72 217.97 7.36 218.66 3.19 186.5 35.56 184.67"/></g></g></g></g></svg>