<?xml version="1.0" encoding="UTF-8"?><svg xmlns="http://www.w3.org/2000/svg" viewBox="0 0 265.11 154.85"><defs><style>.d{fill:#fff;}.e{fill:#5fc4f0;stroke:#393478;stroke-miterlimit:10;stroke-width:5px;}.f{fill:#393478;}.g{fill:#f76364;}</style></defs><g id="a"/><g id="b"><g id="c"><g><rect class="f" x="164.69" y="87.8" width="7.4" height="12.74" transform="translate(-18.54 141.94) rotate(-43.55)"/><path class="f" d="M265.11,59.38C210.37,10.94,130.34-4.88,62.16,21.97,39.62,30.52,18.69,43.38,0,59.38,16.04,40.68,36.61,25.63,59.45,15.43,127.89-16.04,216.21,1.62,265.11,59.38h0Z"/><path class="f" d="M265.11,59.32c-48.9,57.76-137.21,75.42-205.66,43.95C36.61,93.07,16.04,78.02,0,59.32c18.69,16,39.62,28.85,62.16,37.41,68.19,26.84,148.21,11.03,202.95-37.41h0Z"/><circle class="e" cx="132.19" cy="59.29" r="42.89"/><circle class="g" cx="132.19" cy="59.29" r="25.62"/><circle class="d" cx="150" cy="52.47" r="6.81"/><circle class="d" cx="119.73" cy="45.09" r="6.81"/><rect class="g" x="191.38" y="88.28" width="14.19" height="73.37" rx="3.85" ry="3.85" transform="translate(-31.47 171.16) rotate(-43.55)"/></g></g></g></svg>