<?xml version="1.0" encoding="UTF-8"?><svg xmlns="http://www.w3.org/2000/svg" viewBox="0 0 221.82 195.87"><defs><style>.d,.e{stroke-width:4px;}.d,.e,.f,.g,.h,.i{stroke:#393478;}.d,.e,.f,.h,.i{stroke-miterlimit:10;}.d,.g,.i{fill:#5fc4f0;}.e,.f,.h{fill:none;}.j{fill:#393478;}.f{stroke-width:2px;}.g{stroke-linejoin:round;}.g,.i{stroke-width:9px;}.k{fill:#f76364;}</style></defs><g id="a"/><g id="b"><g id="c"><g><g><rect class="i" x="107.89" y="4.5" width="109.43" height="159.87" rx="5.39" ry="5.39"/><line class="e" x1="107.89" y1="43.1" x2="217.32" y2="43.1"/><line class="e" x1="110.45" y1="83.87" x2="217.32" y2="83.87"/><line class="e" x1="110.45" y1="124.64" x2="217.32" y2="124.64"/><circle class="f" cx="126.63" cy="26.8" r="4.97"/><circle class="f" cx="126.63" cy="65.24" r="4.97"/><circle class="f" cx="126.63" cy="104.33" r="4.97"/><circle class="f" cx="126.63" cy="142.77" r="4.97"/><rect class="k" x="163.89" y="19.54" width="38.29" height="14.53"/><rect class="k" x="163.89" y="57.98" width="38.29" height="14.53"/><rect class="k" x="163.89" y="97.06" width="38.29" height="14.53"/><rect class="k" x="163.89" y="135.5" width="38.29" height="14.53"/><circle class="h" cx="194.07" cy="26.8" r="3.34"/><circle class="h" cx="194.07" cy="65.24" r="3.34"/><circle class="h" cx="194.07" cy="104.33" r="3.34"/><circle class="h" cx="194.07" cy="142.77" r="3.34"/></g><path class="g" d="M4.5,119.37c0,13.58,10.67,24.68,24.08,25.38,.44,.02,.89,.03,1.34,.03h116.95c.38,0,.75,0,1.12-.03,13.51-.58,24.29-11.73,24.29-25.39,0-14.04-11.38-25.41-25.41-25.41-3.6,0-7.03,.75-10.13,2.1-2.65-11.2-12.72-19.53-24.73-19.53-3.95,0-7.69,.9-11.01,2.51-4.94-15.6-19.54-26.91-36.78-26.91-21.3,0-38.57,17.27-38.57,38.57,0,1.21,.06,2.41,.17,3.59-12.09,1.96-21.32,12.44-21.32,25.08Z"/><g><path class="d" d="M121.9,153.13v-5.22l-6.28-1.95c-.43-3.52-1.34-6.89-2.68-10.03l4.46-4.82-2.61-4.53-6.42,1.44c-2.09-2.76-4.56-5.24-7.33-7.33l1.44-6.41-4.52-2.61-4.82,4.45c-.63-.27-1.26-.51-1.91-.74-2.59-.94-5.3-1.6-8.12-1.94l-1.96-6.27h-5.22l-1.95,6.27c-3.52,.43-6.89,1.34-10.03,2.68l-4.82-4.45-4.53,2.61,1.45,6.41c-2.77,2.09-5.24,4.57-7.33,7.33l-6.42-1.44-2.61,4.53,4.46,4.82c-1.34,3.14-2.26,6.51-2.68,10.03l-6.28,1.95v5.22l6.28,1.96c.15,1.23,.36,2.45,.63,3.65,.5,2.2,1.18,4.33,2.05,6.36l-4.46,4.83,2.61,4.52,6.42-1.45c2.09,2.77,4.56,5.24,7.33,7.33l-1.45,6.42,4.53,2.61,4.83-4.47c3.14,1.34,6.5,2.25,10.01,2.68l1.96,6.29h5.22l1.96-6.29c3.51-.43,6.88-1.34,10.01-2.68l4.84,4.47,4.52-2.61-1.44-6.42c2.76-2.09,5.23-4.56,7.32-7.33l6.42,1.45,2.61-4.52-4.46-4.83c1.34-3.14,2.25-6.51,2.68-10.02l6.28-1.96Zm-43.34,16.7c-7.73,0-14.39-4.53-17.48-11.09-1.18-2.49-1.84-5.28-1.84-8.23,0-10.66,8.66-19.32,19.32-19.32,4.85,0,9.3,1.8,12.69,4.76,4.06,3.54,6.63,8.75,6.63,14.56,0,10.67-8.65,19.32-19.32,19.32Z"/><circle class="k" cx="78.56" cy="150.53" r="18.73"/></g><g><line class="e" x1="64.03" y1="10.98" x2="64.03" y2="37.75"/><polygon class="j" points="59.58 34.38 64.03 36.27 68.47 34.38 64.03 44.91 59.58 34.38"/></g><g><line class="e" x1="50.08" y1="44.91" x2="50.08" y2="18.14"/><polygon class="j" points="54.52 21.51 50.08 19.62 45.63 21.51 50.08 10.98 54.52 21.51"/></g><g><line class="e" x1="77.98" y1="44.91" x2="77.98" y2="18.14"/><polygon class="j" points="82.42 21.51 77.98 19.62 73.54 21.51 77.98 10.98 82.42 21.51"/></g></g></g></g></svg>