<?xml version="1.0" encoding="UTF-8"?><svg xmlns="http://www.w3.org/2000/svg" viewBox="0 0 200.43 199.73"><defs><style>.d,.e,.f,.g{stroke:#393478;stroke-miterlimit:10;stroke-width:5px;}.d,.g{fill:#5fc4f0;}.e,.f{fill:none;}.e,.g{stroke-linecap:round;}.h{fill:#f76364;}</style></defs><g id="a"/><g id="b"><g id="c"><g><rect class="d" x="2.5" y="2.5" width="175" height="175" rx="6.83" ry="6.83"/><path class="h" d="M14.63,13.37c-1.04,0-1.88,.84-1.88,1.88s.84,1.88,1.88,1.88,1.88-.84,1.88-1.88-.84-1.88-1.88-1.88h0Z"/><path class="h" d="M27.13,13.37c-1.04,0-1.88,.84-1.88,1.88s.84,1.88,1.88,1.88,1.88-.84,1.88-1.88-.84-1.88-1.88-1.88h0Z"/><path class="h" d="M39.62,13.37c-1.04,0-1.88,.84-1.88,1.88s.84,1.88,1.88,1.88,1.88-.84,1.88-1.88-.84-1.88-1.88-1.88h0Z"/><line class="f" x1="2.5" y1="26.94" x2="177.5" y2="26.94"/><path class="g" d="M156.48,109.29c-8.46-8.46-20.28-11.5-31.16-9.14l23.1,23.1-6.52,19.37-19.37,6.52-23.1-23.1c-2.55,11.76,1.21,24.62,11.3,33.14,9.46,7.99,22.41,9.91,33.55,5.82l31.2,31.2,21.41-21.41-31.9-31.9c3.41-11.52,.58-24.5-8.52-33.6Z"/><line class="e" x1="27.13" y1="85.06" x2="27.13" y2="152.52"/><line class="e" x1="52.13" y1="47.06" x2="52.13" y2="114.52"/><line class="e" x1="72.13" y1="47.06" x2="72.13" y2="77.52"/><line class="e" x1="72.13" y1="90" x2="72.13" y2="152.52"/><line class="e" x1="52.13" y1="127.52" x2="52.13" y2="152.52"/><line class="e" x1="27.13" y1="47.06" x2="27.13" y2="79.33"/><rect class="h" x="64.62" y="77.11" width="15.32" height="11.74"/><rect class="h" x="44.84" y="115.39" width="15.32" height="11.74"/><rect class="h" x="19.47" y="77.11" width="15.32" height="11.74"/><rect class="d" x="103.16" y="47.22" width="55.76" height="36.62"/></g></g></g></svg>