<?xml version="1.0" encoding="UTF-8"?><svg xmlns="http://www.w3.org/2000/svg" viewBox="0 0 215.06 155.66"><defs><style>.d{stroke-width:2px;}.d,.e{fill:#5fc4f0;}.d,.e,.f,.g{stroke:#393478;stroke-miterlimit:10;}.e,.f,.g{stroke-width:5px;}.h{fill:#393478;}.f{stroke-linecap:round;}.f,.g{fill:none;}.i{fill:#f76364;}</style></defs><g id="a"/><g id="b"><g id="c"><g><rect class="i" x="80.69" y="129.51" width="31.53" height="16.32"/><rect class="g" x="2.5" y="2.5" width="184.91" height="125" rx="9.77" ry="9.77"/><g><rect class="h" x="160.03" y="96.75" width="6.5" height="11.19" transform="translate(-25.57 140.68) rotate(-43.55)"/><circle class="e" cx="131.48" cy="71.69" r="37.68"/><rect class="i" x="183.49" y="97.17" width="12.47" height="64.47" rx="3.38" ry="3.38" transform="translate(-36.94 166.35) rotate(-43.55)"/></g><g><path class="d" d="M80.31,51.24v-4.19l-5.04-1.56c-.34-2.83-1.08-5.53-2.15-8.05l3.58-3.87-2.1-3.63-5.15,1.16c-1.68-2.22-3.66-4.21-5.89-5.89l1.16-5.15-3.63-2.1-3.87,3.57c-.51-.22-1.01-.41-1.53-.59-2.08-.76-4.26-1.28-6.52-1.56l-1.57-5.04h-4.19l-1.56,5.04c-2.83,.34-5.53,1.08-8.05,2.15l-3.87-3.57-3.63,2.1,1.17,5.15c-2.23,1.68-4.21,3.67-5.89,5.89l-5.15-1.16-2.1,3.63,3.58,3.87c-1.08,2.52-1.81,5.23-2.15,8.05l-5.04,1.56v4.19l5.04,1.57c.12,.99,.29,1.97,.51,2.93,.4,1.77,.95,3.48,1.65,5.11l-3.58,3.88,2.1,3.63,5.15-1.17c1.68,2.23,3.66,4.21,5.89,5.89l-1.17,5.16,3.63,2.1,3.88-3.59c2.52,1.07,5.22,1.81,8.04,2.15l1.57,5.05h4.19l1.57-5.05c2.82-.34,5.52-1.08,8.04-2.15l3.88,3.59,3.63-2.1-1.16-5.16c2.22-1.68,4.2-3.66,5.88-5.89l5.16,1.17,2.1-3.63-3.58-3.88c1.07-2.52,1.81-5.23,2.15-8.05l5.04-1.57Zm-34.81,13.41c-6.2,0-11.56-3.64-14.04-8.91-.95-2-1.48-4.24-1.48-6.61,0-8.56,6.95-15.52,15.52-15.52,3.9,0,7.47,1.44,10.19,3.82,3.26,2.84,5.33,7.03,5.33,11.69,0,8.57-6.95,15.52-15.52,15.52Z"/><circle class="i" cx="45.5" cy="49.15" r="15.04"/></g><rect class="i" x="137.69" y="49.84" width="9.53" height="39.99"/><rect class="i" x="125.19" y="61.94" width="9.53" height="27.9"/><rect class="i" x="112.69" y="73.51" width="9.53" height="16.32"/><line class="f" x1="74.29" y1="148.4" x2="116.46" y2="148.4"/></g></g></g></svg>