<?xml version="1.0" encoding="UTF-8"?><svg xmlns="http://www.w3.org/2000/svg" viewBox="0 0 190.87 194.88"><defs><style>.d{stroke-width:5px;}.d,.e,.f,.g{stroke:#393478;stroke-miterlimit:10;}.d,.f{fill:#5fc4f0;}.e,.f{stroke-width:9px;}.e,.g{fill:none;}.h{fill:#fff;font-family:Roboto-Regular, Roboto;font-size:70.22px;letter-spacing:.12em;}.i{fill:#f76364;}.g{stroke-linecap:round;stroke-width:4px;}</style></defs><g id="a"/><g id="b"><g id="c"><g><rect class="f" x="4.5" y="4.5" width="157.16" height="152.22" rx="11.19" ry="11.19"/><line class="e" x1="4.69" y1="26.87" x2="161.66" y2="26.87"/><path class="i" d="M15.58,14.15c-1.04,0-1.88,.84-1.88,1.88s.84,1.88,1.88,1.88,1.88-.84,1.88-1.88-.84-1.88-1.88-1.88h0Z"/><path class="i" d="M28.08,14.15c-1.04,0-1.88,.84-1.88,1.88s.84,1.88,1.88,1.88,1.88-.84,1.88-1.88-.84-1.88-1.88-1.88h0Z"/><path class="i" d="M40.57,14.15c-1.04,0-1.88,.84-1.88,1.88s.84,1.88,1.88,1.88,1.88-.84,1.88-1.88-.84-1.88-1.88-1.88h0Z"/><line class="g" x1="58.44" y1="42.26" x2="149.84" y2="42.26"/><line class="g" x1="17.44" y1="112.26" x2="68.48" y2="112.26"/><line class="g" x1="47.44" y1="126.76" x2="98.48" y2="126.76"/><line class="g" x1="17.44" y1="141.26" x2="68.48" y2="141.26"/><line class="g" x1="76.31" y1="112.26" x2="82.1" y2="112.26"/><line class="g" x1="28.31" y1="42.26" x2="45.5" y2="42.26"/><line class="g" x1="89.08" y1="112.26" x2="91.8" y2="112.26"/><line class="g" x1="39.18" y1="126.76" x2="32.44" y2="126.76"/><line class="g" x1="84.18" y1="141.26" x2="77.44" y2="141.26"/><line class="g" x1="21.36" y1="126.76" x2="17.44" y2="126.76"/><text class="h" transform="translate(31.67 98.94) scale(.85 1)"><tspan x="0" y="0">&lt;/&gt;</tspan></text></g><g><path class="d" d="M188.37,152.79v-5.08l-6.11-1.89c-.42-3.42-1.31-6.69-2.6-9.75l4.33-4.68-2.54-4.4-6.24,1.4c-2.03-2.69-4.43-5.09-7.13-7.13l1.4-6.23-4.39-2.54-4.68,4.33c-.61-.26-1.22-.5-1.85-.72-2.51-.91-5.15-1.55-7.89-1.89l-1.9-6.1h-5.08l-1.89,6.1c-3.42,.42-6.69,1.31-9.75,2.6l-4.68-4.33-4.4,2.54,1.41,6.23c-2.69,2.03-5.09,4.44-7.13,7.13l-6.24-1.4-2.54,4.4,4.33,4.68c-1.31,3.05-2.2,6.33-2.6,9.75l-6.11,1.89v5.08l6.11,1.9c.15,1.2,.35,2.38,.61,3.55,.48,2.14,1.15,4.21,1.99,6.19l-4.33,4.69,2.54,4.39,6.24-1.41c2.03,2.69,4.43,5.09,7.13,7.13l-1.41,6.24,4.4,2.54,4.69-4.34c3.05,1.3,6.32,2.19,9.73,2.6l1.9,6.11h5.08l1.9-6.11c3.41-.42,6.68-1.31,9.73-2.6l4.7,4.34,4.39-2.54-1.4-6.24c2.69-2.03,5.08-4.43,7.12-7.13l6.24,1.41,2.54-4.39-4.33-4.69c1.3-3.05,2.19-6.33,2.6-9.74l6.11-1.9Zm-42.13,16.23c-7.51,0-13.99-4.41-16.99-10.78-1.15-2.42-1.79-5.13-1.79-8,0-10.37,8.41-18.78,18.78-18.78,4.72,0,9.04,1.75,12.33,4.63,3.95,3.44,6.45,8.5,6.45,14.15,0,10.37-8.41,18.78-18.78,18.78Z"/><circle class="i" cx="146.24" cy="150.26" r="18.2"/></g></g></g></svg>