<?xml version="1.0" encoding="UTF-8"?><svg xmlns="http://www.w3.org/2000/svg" viewBox="0 0 233 217.54"><defs><style>.d{fill:#393478;}.e{fill:#f76364;stroke:#393478;stroke-miterlimit:10;stroke-width:2px;}.f{fill:#5fc4f0;}</style></defs><g id="a"/><g id="b"><g id="c"><g><path class="f" d="M228.54,54.65v52.89c0,.34-.08,.69-.24,.99-.03,.05-.06,.11-.09,.16-.05,.08-.1,.16-.16,.23-.03,.06-.08,.11-.13,.15l-53.42,64.74c-.33,.4-.51,.91-.49,1.43l.9,32.69c.03,1.17-.87,2.14-2,2.17h-.01c-1.13,.04-2.08-.88-2.11-2.05l-.86-31.34c-.02-.89-.59-1.67-1.41-1.95l-42.86-14.44-7.58,21.69v29.23c0,1.16-.93,2.11-2.06,2.11s-2.06-.95-2.06-2.11v-28.07l-54.52-18.97c-.49-.17-.91-.54-1.15-1.01l-15.93-30.94-.93-.31c-.05-.02-.1-.03-.15-.05L5.05,122.84c-.92-.23-1.57-1.08-1.57-2.05v-52.91c0-.6,.24-1.16,.67-1.57L49.57,23.63l.3-.14L91.8,3.95c.27-.12,.57-.19,.86-.19h68.33c.3,0,.6,.07,.88,.2l38.89,18.64c.26,.12,.47,.29,.66,.51l26.6,30.12c.34,.39,.54,.9,.54,1.43Z"/><g><path class="d" d="M228.01,53.23l-26.6-30.12c-.19-.21-.4-.38-.66-.51L161.86,3.96c-.28-.13-.58-.2-.88-.2H92.66c-.29,0-.59,.07-.86,.19L49.87,23.49l-.3,.14L4.15,66.31c-.43,.4-.67,.97-.67,1.57v52.91c0,.97,.65,1.82,1.57,2.05l36.21,9.05c.05,.02,.1,.03,.15,.05l.93,.31,5.64,1.9,57.39,19.33,4.8,1.62,11.56,3.89,3.92,1.32,42.86,14.44c.82,.28,1.39,1.06,1.41,1.95l.86,31.34c.03,1.17,.98,2.09,2.11,2.05h.01c1.13-.03,2.03-1,2-2.17l-.9-32.69c-.01-.52,.16-1.02,.49-1.43l53.42-64.74c.05-.04,.1-.09,.13-.15,.06-.07,.11-.15,.16-.23,.03-.05,.06-.11,.09-.16,.15-.3,.24-.65,.24-.99V54.65c0-.53-.2-1.03-.54-1.43Zm-55.88,116.91c-.55,.66-1.42,.91-2.22,.65l-42.87-14.45-3.92-1.31-14.45-4.87-4.8-1.62-53.71-18.1-4.23-1.42-.6-.2-2.72-.92c-.05-.02-.1-.04-.15-.05l-.58-.14-32.71-8.19c-.92-.23-1.57-1.08-1.57-2.05v-47.72c0-.6,.24-1.16,.67-1.56l2.69-2.53L48.31,30.55l3.31-3.11c.16-.15,.35-.27,.55-.36l.37-.17L92.52,8.27l.18-.08c.27-.13,.56-.19,.86-.19h66.51c.31,0,.61,.07,.88,.2l.13,.06,34.92,16.74,2.26,1.08c.25,.12,.47,.28,.66,.5l.73,.83,24.24,27.46c.23,.25,.38,.56,.46,.89,.05,.17,.07,.34,.07,.53v49.72c0,.51-.18,.99-.49,1.37l-2.28,2.76-49.53,60.01Z"/><path class="d" d="M228.54,107.54c0,.34-.08,.69-.24,.99-.02,.06-.05,.11-.09,.16-.05,.08-.1,.16-.16,.23-.03,.06-.08,.11-.13,.15-.31,.32-.73,.54-1.25,.59l-5.02,.47-79.81,7.47c-.79,.07-1.47,.62-1.75,1.4l-13.05,37.34-1.39,3.98-7.58,21.69-.12,.35c-.38,1.08-1.54,1.66-2.6,1.29l-1.4-.49-54.52-18.97c-.49-.17-.91-.54-1.15-1.01l-15.93-30.94-.39-.76c-.18-.34-.26-.74-.24-1.13l.18-2.66,3.88-58.5,.28-4.24,2.28-34.42,.21-3.16c.08-1.17,1.06-2.05,2.2-1.97,.87,.06,1.59,.67,1.82,1.48,.07,.2,.1,.4,.1,.63,0,.05-.01,.1-.01,.15l-2.46,37.21-.28,4.24-3.9,58.99-.06,.9-.03,.43c-.02,.39,.05,.78,.24,1.13l.73,1.43,1.1,2.14,13.17,25.57c.25,.47,.66,.84,1.16,1.01l50.53,17.57h.01c1.06,.37,2.21-.2,2.59-1.28l.72-2.05,5.58-15.98,1.39-3.97,13.5-38.64,.47-1.36c.27-.77,.96-1.31,1.75-1.39l8.18-.77,68.06-6.37c1.92-.18,2.57-2.71,1-3.84l-26.11-18.8-3.63-2.62-28.14-20.26-.07-.05-3.39-2.71-28.86-23.08-3.37-2.7-29.51-23.59c-.21-.16-.37-.35-.49-.58-.43-.73-.4-1.68,.13-2.39,.41-.54,1.02-.82,1.64-.82,.44,0,.89,.14,1.26,.44l3.11,2.49,27.3,21.83,3.37,2.7,29.02,23.2,2.24,1.79,1.15,.83,28.3,20.39,3.64,2.62,30.73,22.14,3.25,2.34c.61,.43,.88,1.08,.88,1.72Z"/><path class="d" d="M45.34,131.04h0c-.6-.99-.31-2.3,.65-2.92L157.27,56.6c.07-.04,.13-.09,.19-.14l39.53-32.28c.89-.73,2.19-.58,2.9,.34h0c.71,.92,.56,2.25-.33,2.97l-39.81,32.49c-.06,.05-.12,.1-.19,.14L48.18,131.71c-.96,.62-2.24,.32-2.84-.67Z"/><path class="d" d="M5.54,67.88h0c-.02-1.17,.88-2.14,2.02-2.16l72.35-1.42c.43,0,.84-.15,1.19-.41L158.1,5.44c.92-.69,2.21-.5,2.88,.44h0c.68,.94,.48,2.27-.43,2.96l-78.59,59.65h-.66l-73.66,1.46c-1.14,.02-2.08-.91-2.1-2.07Z"/><path class="d" d="M118.07,181.65v29.6c0,1.16-.93,2.11-2.06,2.11s-2.06-.95-2.06-2.11v-28.95c0-.21-.03-.42-.09-.63l-1.01-3.36-7.48-24.83-1.49-4.95-13.29-44.08-1.27-4.19-9.41-31.23c-.05-.17-.08-.33-.08-.51-.06-.95,.52-1.85,1.44-2.14,.2-.06,.4-.09,.61-.09,.42,0,.83,.13,1.17,.38,.22,.14,.4,.33,.55,.57,.1,.16,.19,.34,.25,.54l.78,2.61,8.31,27.55,1.26,4.19,14.48,48.02,1.49,4.95,5.99,19.87,1.82,6.06c.06,.2,.09,.4,.09,.62Z"/><path class="d" d="M137.69,117.34l-54.22-47.97c-.86-.76-.96-2.1-.22-2.98h0c.74-.89,2.04-.98,2.91-.22l51.86,45.88c.7,.62,1.71,.68,2.48,.16l83.12-56.15c.95-.64,2.23-.37,2.85,.6h0c.63,.98,.36,2.29-.59,2.93l-85.72,57.91c-.77,.52-1.78,.45-2.48-.16Z"/></g><circle class="e" cx="6.18" cy="120.68" r="5.18"/><circle class="e" cx="44.18" cy="130.68" r="5.18"/><circle class="e" cx="48.18" cy="66.68" r="5.18"/><circle class="e" cx="82.76" cy="66.68" r="5.18"/><circle class="e" cx="50.21" cy="26.6" r="5.18"/><circle class="e" cx="95.15" cy="6.18" r="5.18"/><circle class="e" cx="125.78" cy="31.78" r="5.18"/><circle class="e" cx="158.86" cy="6.18" r="5.18"/><circle class="e" cx="200.33" cy="23.86" r="5.18"/><circle class="e" cx="158.86" cy="58.33" r="5.18"/><circle class="e" cx="109.84" cy="89.45" r="5.18"/><circle class="e" cx="92.83" cy="99.81" r="5.18"/><circle class="e" cx="105.51" cy="151.38" r="5.18"/><circle class="e" cx="61" cy="161.74" r="5.18"/><circle class="e" cx="115.42" cy="181.18" r="5.18"/><circle class="e" cx="138.66" cy="115.5" r="5.18"/><circle class="e" cx="188.19" cy="81.61" r="5.18"/><circle class="e" cx="226.82" cy="57.35" r="5.18"/><circle class="e" cx="223.36" cy="105.99" r="5.18"/><circle class="e" cx="171.36" cy="171.99" r="5.18"/><circle class="e" cx="125.78" cy="156.56" r="5.18"/><circle class="e" cx="172.5" cy="206.18" r="5.18"/><circle class="e" cx="116.53" cy="211.36" r="5.18"/><circle class="e" cx="6.18" cy="67.68" r="5.18"/></g></g></g></svg>