<?xml version="1.0" encoding="UTF-8"?><svg xmlns="http://www.w3.org/2000/svg" viewBox="0 0 221.02 199.26"><defs><style>.d{fill:#40a1f2;stroke:#fff;stroke-miterlimit:10;}</style></defs><g id="a"/><g id="b"><g id="c"><path class="d" d="M150.56,128.25v-9.04l-10.87-3.38c-.74-6.08-2.33-11.91-4.64-17.35l7.71-8.35-4.51-7.82-11.11,2.5c-3.62-4.8-7.89-9.07-12.69-12.69l2.51-11.1-7.83-4.52-8.34,7.71c-5.45-2.32-11.27-3.91-17.36-4.64l-3.38-10.86h-9.04l-3.38,10.86c-6.09,.73-11.91,2.32-17.35,4.64l-8.35-7.71-7.82,4.52,2.5,11.1c-4.8,3.62-9.07,7.89-12.69,12.69l-11.1-2.5-4.52,7.82,7.71,8.35c-2.31,5.44-3.9,11.27-4.63,17.35l-10.88,3.38v9.04l10.88,3.38c.74,6.08,2.33,11.91,4.64,17.34l-7.72,8.36,4.52,7.83,11.11-2.51c3.62,4.79,7.89,9.06,12.69,12.68l-2.51,11.12,7.82,4.51,8.37-7.72c5.43,2.31,11.25,3.89,17.32,4.63l3.39,10.89h9.04l3.39-10.89c6.07-.74,11.89-2.32,17.32-4.63l8.37,7.72,7.83-4.51-2.51-11.12c4.79-3.62,9.06-7.89,12.68-12.68l11.12,2.51,4.51-7.83-7.71-8.36c2.31-5.43,3.89-11.26,4.63-17.34l10.88-3.38Zm-75.4,24.89c-16.24,0-29.41-13.17-29.41-29.41s13.17-29.4,29.41-29.4,29.4,13.17,29.4,29.4-13.16,29.41-29.4,29.41Z"/><path class="d" d="M213.77,134.87c.38-3.34,.06-6.66-.88-9.76l4.68-2.45-4.22-8.07-4.69,2.46c-2.01-2.54-4.55-4.69-7.51-6.27l1.58-5.06-8.68-2.72-1.59,5.06c-3.34-.39-6.65-.07-9.75,.87l-2.45-4.7-8.07,4.22,2.45,4.69c-2.54,2.01-4.7,4.55-6.29,7.52l-5.04-1.58-2.71,8.68,5.03,1.58c-.39,3.34-.07,6.66,.87,9.77l-4.67,2.44,4.22,8.07,4.66-2.44c2.02,2.55,4.56,4.71,7.54,6.3l-1.57,5.01,8.68,2.72,1.57-5.02c3.35,.39,6.67,.07,9.78-.88l2.44,4.67,8.07-4.22-2.45-4.67c2.55-2.02,4.7-4.56,6.29-7.53l5.03,1.57,2.72-8.68-5.04-1.58Zm-24.07,6.74c-5.51,0-9.98-4.47-9.98-9.98s4.47-9.98,9.98-9.98,9.98,4.47,9.98,9.98-4.47,9.98-9.98,9.98Z"/><path class="d" d="M212.99,47.43c.57-4.9,.09-9.77-1.29-14.33l6.88-3.6-6.2-11.84-6.89,3.6c-2.95-3.72-6.68-6.89-11.03-9.21l2.32-7.43-12.75-3.99-2.33,7.43c-4.9-.57-9.76-.1-14.32,1.28l-3.6-6.89-11.84,6.19,3.6,6.88c-3.74,2.96-6.91,6.69-9.24,11.04l-7.4-2.31-3.99,12.75,7.39,2.31c-.58,4.92-.11,9.79,1.28,14.36l-6.86,3.58,6.2,11.84,6.85-3.58c2.96,3.74,6.69,6.92,11.06,9.25l-2.31,7.37,12.76,3.99,2.3-7.37c4.92,.57,9.8,.09,14.37-1.29l3.58,6.84,11.84-6.19-3.59-6.86c3.74-2.96,6.9-6.7,9.23-11.06l7.39,2.31,3.99-12.75-7.4-2.32Zm-35.35,10.29c-7.9,0-14.31-6.41-14.31-14.32s6.41-14.31,14.31-14.31,14.31,6.41,14.31,14.31-6.4,14.32-14.31,14.32Z"/></g></g></svg>