<?xml version="1.0" encoding="UTF-8"?><svg xmlns="http://www.w3.org/2000/svg" viewBox="0 0 259.57 221.84"><defs><style>.d{fill:#393478;}.e{fill:none;}.e,.f,.g,.h{stroke:#393478;stroke-miterlimit:10;}.e,.g{stroke-width:7px;}.f,.g{fill:#5fc4f0;}.f,.h{stroke-width:9px;}.h{fill:#f76364;}</style></defs><g id="a"/><g id="b"><g id="c"><g><path class="f" d="M154.55,146.83v-9.04l-10.87-3.38c-.74-6.08-2.32-11.91-4.64-17.35l7.71-8.35-4.52-7.83-11.1,2.5c-3.62-4.8-7.89-9.07-12.69-12.69l2.51-11.1-7.83-4.52-8.35,7.71c-5.44-2.31-11.27-3.9-17.36-4.64l-3.38-10.86h-9.04l-3.38,10.86c-6.09,.74-11.91,2.33-17.36,4.64l-8.35-7.71-7.83,4.52,2.51,11.1c-4.8,3.62-9.07,7.9-12.69,12.69l-11.1-2.5-4.52,7.83,7.71,8.35c-2.31,5.44-3.9,11.26-4.64,17.35l-10.87,3.38v9.04l10.88,3.39c.74,6.08,2.33,11.9,4.64,17.34l-7.72,8.36,4.52,7.83,11.12-2.51c3.62,4.79,7.89,9.06,12.69,12.68l-2.51,11.12,7.83,4.52,8.37-7.73c5.43,2.31,11.25,3.9,17.33,4.63l3.39,10.89h9.04l3.39-10.89c6.08-.74,11.89-2.32,17.33-4.63l8.37,7.73,7.83-4.52-2.51-11.12c4.8-3.62,9.07-7.89,12.69-12.68l11.12,2.51,4.52-7.83-7.72-8.36c2.31-5.44,3.9-11.26,4.64-17.34l10.88-3.39Zm-75.03,28.91c-18.47,0-33.45-14.97-33.45-33.44s14.97-33.45,33.45-33.45,33.45,14.97,33.45,33.45-14.97,33.44-33.45,33.44Z"/><path class="h" d="M216.99,66.01c.57-4.91,.09-9.78-1.3-14.33l6.89-3.6-6.2-11.84-6.89,3.61c-2.96-3.73-6.68-6.89-11.04-9.21l2.32-7.43-12.75-3.99-2.32,7.43c-4.9-.57-9.76-.1-14.32,1.28l-3.61-6.89-11.84,6.2,3.6,6.88c-3.73,2.96-6.9,6.68-9.24,11.04l-7.4-2.32-3.99,12.75,7.39,2.31c-.58,4.91-.1,9.79,1.28,14.36l-6.85,3.58,6.2,11.84,6.85-3.58c2.96,3.74,6.7,6.92,11.06,9.25l-2.31,7.37,12.75,3.99,2.31-7.37c4.92,.57,9.8,.1,14.36-1.29l3.58,6.85,11.84-6.2-3.59-6.85c3.74-2.96,6.9-6.7,9.23-11.06l7.39,2.31,3.99-12.75-7.4-2.32Zm-41.15,14.49c-10.23-3.2-15.92-14.08-12.72-24.31s14.09-15.92,24.31-12.72c10.23,3.2,15.93,14.09,12.73,24.31-3.2,10.23-14.09,15.92-24.32,12.72Z"/><path class="g" d="M217.76,153.45c.39-3.34,.06-6.66-.88-9.76l4.69-2.45-4.22-8.06-4.69,2.46c-2.01-2.54-4.55-4.69-7.52-6.27l1.58-5.06-8.68-2.72-1.58,5.06c-3.34-.39-6.65-.07-9.75,.87l-2.46-4.69-8.06,4.22,2.45,4.69c-2.54,2.01-4.7,4.55-6.29,7.52l-5.04-1.58-2.72,8.68,5.03,1.58c-.39,3.35-.07,6.67,.87,9.78l-4.67,2.44,4.22,8.06,4.66-2.44c2.02,2.55,4.56,4.71,7.53,6.3l-1.57,5.02,8.68,2.72,1.57-5.02c3.35,.39,6.67,.07,9.78-.88l2.44,4.66,8.06-4.22-2.44-4.67c2.54-2.02,4.7-4.56,6.28-7.53l5.03,1.58,2.72-8.68-5.04-1.58Zm-28.02,9.87c-6.96-2.18-10.84-9.59-8.66-16.56,2.18-6.96,9.59-10.84,16.56-8.66,6.97,2.18,10.85,9.59,8.67,16.56-2.18,6.97-9.59,10.84-16.56,8.66Z"/><g><path class="e" d="M39.59,60.7C53.91,27.78,88.15,9.74,122.03,14.59"/><polygon class="d" points="109.13 25.08 117.74 13.93 115.68 0 142.13 20.31 109.13 25.08"/></g><g><path class="e" d="M227.85,133.43c16.3-13.64,22.06-35.17,16.37-54.3"/><polygon class="d" points="259.57 82.5 245.51 83.32 236.34 94.01 234.31 60.72 259.57 82.5"/></g></g></g></g></svg>