<?xml version="1.0" encoding="UTF-8"?><svg xmlns="http://www.w3.org/2000/svg" viewBox="0 0 209.16 215.28"><defs><style>.d{fill:#5fc4f0;stroke-linecap:round;stroke-width:9px;}.d,.e{stroke:#393478;stroke-miterlimit:10;}.e{fill:#f76364;stroke-width:4px;}</style></defs><g id="a"/><g id="b"><g id="c"><path class="d" d="M178.33,12.67V124.97c0,4.52-3.66,8.18-8.18,8.18H67.35l-29.04,50.3c-.87,1.5-3.15,.9-3.17-.82l-.85-49.48H12.67c-4.51,0-8.17-3.66-8.17-8.18V12.67c0-4.51,3.66-8.17,8.17-8.17H170.15c4.52,0,8.18,3.66,8.18,8.17Z"/><path class="d" d="M204.66,93.55v76.7c0,3.09-2.5,5.59-5.58,5.59h-14.77l-.57,33.79c-.02,1.18-1.58,1.59-2.17,.57l-19.84-34.36H91.52c-3.09,0-5.59-2.5-5.59-5.59v-37.1h84.22c4.52,0,8.18-3.66,8.18-8.18v-37h20.75c3.08,0,5.58,2.5,5.58,5.58Z"/><path class="e" d="M139.16,72.43v-5.55l-6.68-2.08c-.45-3.74-1.43-7.31-2.85-10.65l4.74-5.13-2.77-4.81-6.82,1.54c-2.22-2.95-4.85-5.57-7.8-7.8l1.54-6.82-4.81-2.77-5.13,4.73c-3.34-1.42-6.92-2.4-10.66-2.85l-2.07-6.67h-5.55l-2.07,6.67c-3.74,.45-7.32,1.43-10.66,2.85l-5.13-4.73-4.81,2.77,1.54,6.82c-2.95,2.22-5.57,4.85-7.8,7.8l-6.82-1.54-2.77,4.81,4.74,5.13c-1.42,3.34-2.39,6.92-2.85,10.65l-6.68,2.08v5.55l6.68,2.08c.46,3.73,1.43,7.31,2.85,10.65l-4.74,5.13,2.77,4.81,6.83-1.54c2.22,2.94,4.85,5.56,7.79,7.79l-1.54,6.83,4.81,2.77,5.14-4.74c3.34,1.42,6.91,2.39,10.64,2.84l2.08,6.69h5.55l2.08-6.69c3.73-.45,7.3-1.43,10.64-2.84l5.14,4.74,4.81-2.77-1.54-6.83c2.95-2.22,5.57-4.85,7.79-7.79l6.83,1.54,2.77-4.81-4.74-5.13c1.42-3.34,2.39-6.91,2.85-10.65l6.68-2.08Zm-46.07,17.76c-11.34,0-20.54-9.2-20.54-20.54s9.2-20.54,20.54-20.54,20.54,9.2,20.54,20.54-9.2,20.54-20.54,20.54Z"/></g></g></svg>