<?xml version="1.0" encoding="UTF-8"?><svg xmlns="http://www.w3.org/2000/svg" viewBox="0 0 307.4 219.61"><defs><style>.d{fill:#5fc4f0;}.d,.e{stroke:#393478;stroke-linejoin:round;stroke-width:9px;}.e{fill:#f76364;}</style></defs><g id="a"/><g id="b"><g id="c"><g><path class="d" d="M302.9,124.1c0,24.16-18.97,43.9-42.82,45.14-.79,.04-1.58,.06-2.38,.06h-49.05c.19-.98,.34-1.98,.47-2.98,.3-2.31,.45-4.69,.45-7.08h-55.87l.16-55.87h-.16c-2.39,0-4.76,.15-7.08,.45-25.04,3.23-45.11,23.3-48.34,48.34-.3,2.32-.45,4.69-.45,7.08s.15,4.77,.45,7.08c.13,1,.28,2,.47,2.98H49.7c-.67,0-1.33-.01-2-.05-24.03-1.04-43.2-20.86-43.2-45.15s20.24-45.2,45.2-45.2c6.41,0,12.5,1.33,18.02,3.74,4.72-19.92,22.62-34.74,43.98-34.74,7.02,0,13.67,1.6,19.59,4.46,8.79-27.75,34.76-47.86,65.41-47.86,37.88,0,68.59,30.71,68.59,68.6,0,2.16-.1,4.29-.3,6.39,21.5,3.48,37.91,22.12,37.91,44.61Z"/><path class="e" d="M225.44,144.88h-55.87l.16-55.87c30.79,.09,55.71,25.06,55.71,55.87Z"/><path class="d" d="M209.57,159.24c0,2.39-.15,4.77-.45,7.08-.13,1-.28,2-.47,2.98-4.37,23.64-23.83,42.26-47.87,45.36-2.32,.3-4.69,.45-7.08,.45s-4.76-.15-7.08-.45c-24.04-3.1-43.5-21.72-47.87-45.36-.19-.98-.34-1.98-.47-2.98-.3-2.31-.45-4.69-.45-7.08s.15-4.76,.45-7.08c3.23-25.04,23.3-45.11,48.34-48.34,2.32-.3,4.69-.45,7.08-.45h.16l-.16,55.87h55.87Z"/></g></g></g></svg>