<?xml version="1.0" encoding="UTF-8"?><svg xmlns="http://www.w3.org/2000/svg" viewBox="0 0 307.4 243.66"><defs><style>.d{fill:#393478;}.e{fill:#5fc4f0;}.e,.f{stroke-width:9px;}.e,.f,.g,.h{stroke:#393478;stroke-linejoin:round;}.f{fill:#f76364;}.g,.h{fill:none;stroke-width:4px;}.h{stroke-dasharray:0 0 6.03 6.03;}</style></defs><g id="a"/><g id="b"><g id="c"><g><path class="e" d="M302.9,124.1c0,24.16-18.97,43.9-42.82,45.14-.79,.04-1.58,.06-2.38,.06H49.7c-.67,0-1.33-.01-2-.05-24.03-1.04-43.2-20.86-43.2-45.15s20.24-45.2,45.2-45.2c6.41,0,12.5,1.33,18.02,3.74,4.72-19.92,22.62-34.74,43.98-34.74,7.02,0,13.67,1.6,19.59,4.46,8.79-27.75,34.76-47.86,65.41-47.86,37.88,0,68.59,30.71,68.59,68.6,0,2.16-.1,4.29-.3,6.39,21.5,3.48,37.91,22.12,37.91,44.61Z"/><circle class="f" cx="159.94" cy="169.3" r="69.86"/><path class="g" d="M213.7,169.3c0,29.69-24.07,53.76-53.76,53.76s-53.76-24.07-53.76-53.76"/><g><path class="g" d="M106.18,167.64c0-1.01,.03-2.01,.08-3"/><path class="h" d="M106.93,158.64c4.28-25.41,26.38-44.77,53.01-44.77s50.44,20.89,53.43,47.75"/><path class="g" d="M213.62,164.64c.05,.99,.08,1.99,.08,3"/></g><path class="d" d="M156.12,168.77l32.57-30.25c1.87-1.7,4.53,.94,2.83,2.83l-30.25,32.57c-3.49,3.54-8.7-1.64-5.15-5.15h0Z"/></g></g></g></svg>