<svg id="Layer_1" data-name="Layer 1" xmlns="http://www.w3.org/2000/svg" viewBox="0 0 260 252.66"><defs><style>.cls-1,.cls-2{fill:#5fc4f0;}.cls-1,.cls-3{stroke:#393478;}.cls-1,.cls-2,.cls-3{stroke-miterlimit:10;}.cls-1{stroke-width:9px;}.cls-2{stroke:#fff;stroke-width:6px;}.cls-2,.cls-3{stroke-linecap:round;}.cls-3{fill:#f76364;stroke-width:4px;}</style></defs><g id="b"><g id="c"><path class="cls-1" d="M181.1,145.72l-45.42,36a5.86,5.86,0,0,1-7.27,0L82.56,145.72a5.83,5.83,0,0,1-2.23-4.6V14.4A5.85,5.85,0,0,1,87.8,8.76l42.42,12.09a5.87,5.87,0,0,0,3.22,0L175.87,8.76a5.87,5.87,0,0,1,7.47,5.64V141.13a5.86,5.86,0,0,1-2.22,4.59Z" transform="translate(-2.66 -4.03)"/><circle class="cls-1" cx="129.4" cy="87.75" r="34.33"/><polyline class="cls-2" points="109.97 93.19 119.09 101.58 145.17 74.26"/><polygon class="cls-3" points="25.4 104.83 31.92 118.05 46.5 120.16 35.95 130.44 38.44 144.96 25.4 138.12 12.35 144.96 14.85 130.44 4.3 120.16 18.88 118.05 25.4 104.83"/><polygon class="cls-3" points="60.08 175.31 66.6 188.53 81.18 190.64 70.63 200.92 73.12 215.44 60.08 208.6 47.03 215.44 49.53 200.92 38.98 190.64 53.56 188.53 60.08 175.31"/><polygon class="cls-3" points="197.68 175.31 204.21 188.53 218.78 190.64 208.23 200.92 210.73 215.44 197.68 208.6 184.64 215.44 187.13 200.92 176.58 190.64 191.16 188.53 197.68 175.31"/><polygon class="cls-3" points="129.44 208.88 135.96 222.09 150.54 224.2 139.99 234.49 142.49 249.01 129.44 242.16 116.4 249.01 118.89 234.49 108.34 224.2 122.92 222.09 129.44 208.88"/><polygon class="cls-3" points="234.6 104.83 241.12 118.05 255.7 120.16 245.15 130.44 247.65 144.96 234.6 138.12 221.56 144.96 224.05 130.44 213.5 120.16 228.08 118.05 234.6 104.83"/></g></g></svg>