<?xml version="1.0" encoding="UTF-8"?><svg xmlns="http://www.w3.org/2000/svg" viewBox="0 0 233.32 226.71"><defs><style>.d{fill:#40a1f2;}.d,.e,.f,.g{stroke:#fff;stroke-miterlimit:10;}.e{stroke-width:6px;}.e,.f,.g{fill:none;}.e,.g{stroke-linecap:round;}.f{stroke-width:9px;}.g{stroke-width:4px;}</style></defs><g id="a"/><g id="b"><g id="c"><polygon class="d" points="32.59 117.07 34.82 130.06 23.16 123.93 11.5 130.06 13.73 117.07 4.3 107.88 17.33 105.99 23.16 94.18 28.99 105.99 42.02 107.88 32.59 117.07"/><polygon class="d" points="73.02 170.88 63.59 180.07 65.82 193.06 54.16 186.93 42.5 193.06 44.73 180.07 35.3 170.88 48.33 168.99 54.16 157.18 59.99 168.99 73.02 170.88"/><polygon class="d" points="135.02 200.88 125.59 210.07 127.82 223.06 116.16 216.93 104.5 223.06 106.73 210.07 97.3 200.88 110.33 198.99 116.16 187.18 121.99 198.99 135.02 200.88"/><path class="d" d="M69.88,123.01V9.75c0-3.48,3.33-6,6.68-5.04l37.91,10.81c.94,.27,1.94,.27,2.88,0l37.91-10.81c3.35-.96,6.68,1.56,6.68,5.04V123.03c0,1.6-.73,3.11-1.98,4.1l-40.6,32.21c-1.9,1.51-4.59,1.52-6.5,.02l-40.98-32.23c-1.27-.99-2-2.51-2-4.12Z"/><polygon class="d" points="196.02 170.88 186.59 180.07 188.82 193.06 177.16 186.93 165.5 193.06 167.73 180.07 158.3 170.88 171.33 168.99 177.16 157.18 182.99 168.99 196.02 170.88"/><polygon class="d" points="219.59 117.07 221.82 130.06 210.16 123.93 198.5 130.06 200.73 117.07 191.3 107.88 204.33 105.99 210.16 94.18 215.99 105.99 229.02 107.88 219.59 117.07"/><g><g><path class="f" d="M161.94,9.75V123.03c0,1.6-.73,3.11-1.98,4.1l-40.6,32.21c-1.9,1.51-4.59,1.52-6.5,.02l-40.98-32.23c-1.27-.99-2-2.51-2-4.12V9.75c0-3.48,3.33-6,6.68-5.04l37.91,10.81c.94,.27,1.94,.27,2.88,0l37.91-10.81c3.35-.96,6.68,1.56,6.68,5.04Z"/><circle class="f" cx="116.11" cy="78.91" r="30.69"/><polyline class="e" points="98.76 83.77 106.91 91.27 130.22 66.85"/></g><polygon class="g" points="32.59 117.07 34.82 130.06 23.16 123.93 11.5 130.06 13.73 117.07 4.3 107.88 17.33 105.99 23.16 94.18 28.99 105.99 42.02 107.88 32.59 117.07"/><polygon class="g" points="63.59 180.07 65.82 193.06 54.16 186.93 42.5 193.06 44.73 180.07 35.3 170.88 48.33 168.99 54.16 157.18 59.99 168.99 73.02 170.88 63.59 180.07"/><polygon class="g" points="186.59 180.07 188.82 193.06 177.16 186.93 165.5 193.06 167.73 180.07 158.3 170.88 171.33 168.99 177.16 157.18 182.99 168.99 196.02 170.88 186.59 180.07"/><polygon class="g" points="125.59 210.07 127.82 223.06 116.16 216.93 104.5 223.06 106.73 210.07 97.3 200.88 110.33 198.99 116.16 187.18 121.99 198.99 135.02 200.88 125.59 210.07"/><polygon class="g" points="219.59 117.07 221.82 130.06 210.16 123.93 198.5 130.06 200.73 117.07 191.3 107.88 204.33 105.99 210.16 94.18 215.99 105.99 229.02 107.88 219.59 117.07"/></g></g></g></svg>