<?xml version="1.0" encoding="UTF-8"?><svg xmlns="http://www.w3.org/2000/svg" viewBox="0 0 254.39 249.77"><defs><style>.d{fill:#393478;}.e{fill:#f16365;}.f{fill:#5fc4f0;}</style></defs><g id="a"/><g id="b"><g id="c"><path class="e" d="M22.03,74.77v107.8l44.19,55.56c3.58,4.51,9.04,7.14,14.8,7.14h92.34c5.76,0,11.22-2.63,14.81-7.14l57.61-72.42h0c3.56-4.5,4.91-10.38,3.64-15.97h0l-20.57-90.35h0c-1.28-5.6-5.04-10.33-10.22-12.83l-56.18-27.13H91.94L22.03,74.77Z"/><g><path class="f" d="M73.95,134.2c-.04-.67-.09-1.34-.09-2.02,0-9.99,2.8-19.73,8.09-28.21l1.28,1.33c3.96,4.11,7.81,7.93,12.44,12.49,1.67,1.67,3.44,3.35,5.4,5.13,.47,.43,.67,1.06,.52,1.67-.14,.61-.59,1.07-1.2,1.25-.95,.29-1.89,.57-2.83,.85-1.67,.5-3.4,1.01-5.1,1.57-1.64,.54-3.28,1.07-4.93,1.6-3.86,1.25-7.86,2.54-11.77,3.95l-1.81,.63c0-.08-.01-.17-.02-.25Z"/><path class="d" d="M82.05,104.78l.83,.86c3.96,4.11,7.82,7.93,12.44,12.49,1.68,1.68,3.46,3.37,5.42,5.15,.34,.32,.48,.75,.38,1.19-.1,.43-.41,.76-.86,.89-.94,.29-1.89,.57-2.83,.85-1.67,.5-3.39,1.01-5.1,1.57-1.64,.54-3.28,1.07-4.92,1.6-3.87,1.25-7.87,2.54-11.79,3.96l-1.19,.42c-.03-.54-.06-1.05-.06-1.58,0-9.68,2.65-19.12,7.68-27.4m-.17-1.62c-5.36,8.37-8.51,18.31-8.51,29.02,0,1,.09,1.97,.14,2.96l2.44-.85c5.55-2,11.14-3.72,16.69-5.55,2.64-.87,5.28-1.61,7.91-2.42,1.67-.49,2.16-2.58,.87-3.77-1.83-1.66-3.61-3.34-5.39-5.12-4.2-4.14-8.34-8.23-12.43-12.48l-1.72-1.79h0Z"/></g><g><path class="f" d="M97.12,176.23c-9.05-6.18-16.08-15.22-19.89-25.55l2.21-.19c5.47-.5,10.73-1.13,16.29-1.79l1.22-.15c1.61-.17,3.24-.39,4.81-.61,.91-.12,1.82-.25,2.74-.36,.11-.02,.2-.03,.29-.03,.56,0,1.08,.28,1.4,.76,.31,.47,.37,1.03,.16,1.55-.96,2.53-1.97,5.24-2.92,8.05-2.38,6.58-4.15,11.72-5.76,16.63l-.54,1.68Z"/><path class="d" d="M104.78,148.06c.39,0,.76,.2,.98,.54,.22,.33,.26,.72,.11,1.11-.95,2.51-1.97,5.22-2.92,8.03-2.38,6.59-4.16,11.73-5.77,16.66l-.33,1.03c-8.52-5.99-15.18-14.54-18.92-24.31l1.56-.13c5.49-.51,10.76-1.14,16.34-1.8l1.16-.14c1.62-.17,3.25-.39,4.82-.61,.91-.12,1.82-.25,2.77-.37,.07-.01,.13-.02,.2-.02m0-1c-.12,0-.24,0-.36,.03-2.53,.32-5.01,.7-7.54,.97-5.86,.7-11.62,1.4-17.49,1.94l-2.86,.24c3.92,11.04,11.28,20.41,20.86,26.78l.74-2.31c1.83-5.6,3.76-11.09,5.76-16.63,.91-2.69,1.89-5.33,2.91-8.02,.59-1.46-.53-3-2.02-3h0Z"/></g><g><path class="f" d="M114.92,106.02c-1.99-1.44-4.05-2.94-6.19-4.29l-.76-.52c-4.52-3.06-9.19-6.22-13.94-9.18l-1.11-.69c7.4-6.22,16.34-10.28,25.94-11.77l-.18,1.42c-.73,5.67-1.27,11.46-1.79,17.06l-.04,.45c-.28,2.69-.53,5.5-.75,8.38-.39-.28-.78-.57-1.17-.85Z"/><path class="d" d="M118.27,80.17l-.09,.75c-.73,5.68-1.27,11.48-1.79,17.09l-.04,.42c-.25,2.42-.48,4.93-.68,7.51-.15-.11-.3-.22-.45-.32-2-1.45-4.07-2.95-6.2-4.3l-.81-.55c-4.51-3.05-9.18-6.21-13.93-9.17l-.52-.32c7.05-5.77,15.47-9.59,24.5-11.12m1.16-1.19c-10.38,1.49-19.79,5.9-27.36,12.43l1.69,1.05c5.01,3.12,9.85,6.41,14.7,9.69,2.8,1.78,5.44,3.77,8.07,5.65,.22-3.06,.49-6.19,.81-9.26,.54-5.81,1.08-11.68,1.83-17.49l.26-2.07h0Z"/></g><g><path class="f" d="M127.14,142.06c-.41,0-.81-.1-1.15-.3l-6.07-2.81c-.37-.21-1.33-.87-1.44-1.92l-1.51-6.58c-.14-.78,.07-1.62,.54-2.19l4.21-5.29c.47-.65,1.3-1.05,2.14-1.05h6.56c.85,0,1.68,.4,2.12,1.03l4.22,5.3c.48,.57,.69,1.42,.55,2.22l-1.5,6.49c-.18,1.11-1.01,1.73-1.49,2l-5.98,2.77c-.38,.22-.78,.32-1.19,.32Z"/><path class="d" d="M130.42,122.42c.68,0,1.37,.33,1.71,.82l.02,.02,.02,.02,4.22,5.3c.37,.44,.54,1.14,.43,1.78l-1.5,6.49v.06c-.15,.85-.81,1.36-1.22,1.59l-5.98,2.77-.04,.02-.04,.02c-.27,.15-.58,.24-.9,.24s-.63-.08-.9-.24l-.04-.02-.04-.02-5.99-2.77c-.36-.21-1.11-.74-1.2-1.54v-.06l-.02-.06-1.49-6.49c-.11-.64,.06-1.34,.45-1.8l4.23-5.32c.36-.5,1.04-.82,1.72-.82h6.56m0-1h-6.56c-1.02,0-1.99,.49-2.53,1.24l-4.2,5.28c-.59,.7-.81,1.71-.65,2.62l1.5,6.52c.11,1.03,.87,1.83,1.73,2.32l6.03,2.79c.43,.25,.92,.37,1.4,.37s.97-.12,1.4-.37l6.02-2.79c.86-.49,1.56-1.29,1.73-2.32l1.51-6.52c.16-.91-.06-1.92-.65-2.62l-4.2-5.28c-.53-.75-1.51-1.24-2.53-1.24h0Z"/></g><g><path class="f" d="M127.19,185.51c-5.09,0-10.15-.73-15.05-2.16l1-1.59c3.03-4.81,5.96-9.82,8.79-14.66l.25-.43c1.39-2.28,2.7-4.57,3.89-6.8,.31-.56,.87-.9,1.51-.9s1.22,.34,1.53,.9c1.03,1.98,2.22,4.11,3.73,6.69l1.15,2c2.49,4.34,5.07,8.83,7.79,13.14l.93,1.51c-5.04,1.52-10.27,2.3-15.53,2.3Z"/><path class="d" d="M127.59,159.47c.22,0,.77,.06,1.08,.62,1.04,2,2.23,4.13,3.74,6.72l1.14,1.98c2.5,4.35,5.08,8.86,7.81,13.18l.59,.95c-4.8,1.39-9.76,2.09-14.76,2.09s-9.62-.66-14.27-1.96l.65-1.03c3.05-4.84,5.99-9.87,8.83-14.73l.21-.37c1.4-2.29,2.71-4.59,3.9-6.82,.32-.58,.86-.64,1.07-.64m0-1c-.76,0-1.52,.38-1.95,1.16-1.24,2.32-2.54,4.58-3.88,6.78-2.96,5.06-5.92,10.13-9.04,15.08l-1.35,2.15c5,1.53,10.31,2.37,15.82,2.37s11.15-.89,16.29-2.51l-1.27-2.06c-3.13-4.96-6.02-10.07-8.93-15.13-1.29-2.21-2.54-4.42-3.72-6.68-.43-.78-1.2-1.16-1.97-1.16h0Z"/></g><g><path class="f" d="M139.86,107.03c-.79,0-1.67-.57-1.73-1.63-.16-2.27-.36-4.47-.59-6.91-.5-5.43-1.06-11.58-1.83-17.51l-.18-1.41c10.01,1.57,19.27,5.91,26.86,12.6l-1.24,.78c-4.21,2.71-8.37,5.53-12.4,8.27l-2.2,1.49c-1.74,1.16-3.6,2.46-5.67,3.99-.3,.21-.67,.33-1.03,.33Z"/><path class="d" d="M136.11,80.17c9.44,1.6,18.19,5.7,25.45,11.93l-.67,.42c-4.23,2.72-8.41,5.56-12.45,8.3l-2.14,1.46c-1.75,1.16-3.61,2.48-5.67,3.99-.23,.16-.49,.25-.76,.25-.58,0-1.18-.4-1.23-1.17-.16-2.28-.36-4.48-.59-6.91-.5-5.43-1.06-11.59-1.83-17.52l-.09-.75m-1.16-1.19l.26,2.07c.76,5.81,1.3,11.68,1.83,17.49,.22,2.32,.43,4.57,.59,6.89,.08,1.27,1.11,2.1,2.23,2.1,.45,0,.91-.13,1.33-.43,1.83-1.35,3.71-2.69,5.65-3.98,4.85-3.29,9.63-6.57,14.58-9.75l1.8-1.13c-7.72-6.97-17.46-11.7-28.27-13.26h0Z"/></g><g><path class="f" d="M157.33,174.61c-1.49-4.69-3.11-9.39-4.67-13.94l-.93-2.7c-.9-2.59-1.76-4.99-2.64-7.33-.2-.53-.13-1.11,.19-1.58,.32-.46,.82-.73,1.36-.73,.07,0,.15,0,.23,.02l.49,.05c2.42,.26,4.7,.5,7.08,.7l.57,.05c5.56,.51,11.31,1.04,16.98,1.41l1.21,.06c-3.74,10.18-10.62,19.12-19.46,25.3l-.41-1.31Z"/><path class="d" d="M150.63,148.83h0c.05,0,.11,0,.19,.01l.57,.06c2.39,.25,4.64,.5,6.98,.69l.57,.05c5.56,.51,11.31,1.04,17.01,1.41l.53,.03c-3.68,9.6-10.18,18.06-18.48,24.03l-.21-.66c-1.5-4.71-3.12-9.43-4.68-13.99l-.91-2.66c-.9-2.6-1.77-5-2.65-7.35-.14-.38-.09-.78,.14-1.11,.22-.32,.58-.51,.95-.51m0-1c-1.47,0-2.57,1.52-2.02,2.98,.91,2.42,1.78,4.84,2.64,7.32,1.88,5.49,3.81,11.03,5.59,16.63l.61,1.96c9.38-6.38,16.58-15.67,20.43-26.56l-1.88-.1c-5.86-.38-11.67-.92-17.54-1.46-2.53-.21-5.01-.48-7.54-.75-.1-.01-.2-.02-.29-.02h0Z"/></g><g><path class="f" d="M179.12,133.75c-5.15-1.68-10.4-3.18-15.47-4.62l-1.38-.39c-2.98-.88-6.21-1.75-10.13-2.74,.68-.65,1.37-1.3,2.06-1.94,1.85-1.74,3.76-3.54,5.54-5.36,4.07-4.07,8.28-8.28,12.33-12.61l.99-1.05c4.89,8.24,7.47,17.61,7.47,27.14,0,.55-.04,1.1-.08,1.64,0,.12-.02,.23-.02,.35l-1.3-.41Z"/><path class="d" d="M172.96,105.87c4.62,8.02,7.06,17.09,7.06,26.31,0,.44-.03,.87-.06,1.32l-.68-.22c-5.16-1.69-10.42-3.18-15.5-4.63l-1.36-.39c-2.76-.81-5.74-1.62-9.27-2.52,.47-.44,.93-.88,1.4-1.32,1.85-1.74,3.76-3.55,5.54-5.36,4.08-4.08,8.3-8.3,12.34-12.62l.53-.56m.18-1.65l-1.44,1.53c-4.03,4.31-8.17,8.45-12.32,12.6-2.63,2.69-5.49,5.28-8.24,7.92,3.66,.91,7.33,1.87,10.99,2.95,5.65,1.61,11.24,3.18,16.84,5.01l1.91,.61c.04-.88,.14-1.76,.14-2.66,0-10.26-2.91-19.81-7.88-27.96h0Z"/></g><g><path class="f" d="M81.02,240.77c-4.42,0-8.53-1.98-11.28-5.44L12.13,162.9c-2.74-3.44-3.75-7.88-2.77-12.17L29.92,60.39c.98-4.29,3.82-7.86,7.79-9.78L120.93,10.43c1.96-.95,4.07-1.43,6.26-1.43,2.05,0,4.1,.44,5.94,1.27l83.54,40.34c3.91,1.89,6.73,5.38,7.75,9.59l20.61,90.53c.97,4.28-.04,8.71-2.78,12.17l-.97,1.23h0l-56.63,71.2c-2.75,3.46-6.87,5.44-11.29,5.44H81.02Zm73.64-28.51c.03,2.84,1.21,5.47,3.33,7.43,1.99,1.76,4.46,2.7,7.01,2.7,2.88,0,5.66-1.21,7.63-3.32l.07-.08c3.81-4.29,3.51-10.69-.68-14.58l-.08-.07c-1.77-1.57-3.09-3.55-4.53-6.04-.51-.92-1.09-2.09-1.74-3.49l-.09-.2-.11-.18h0s-.05-.4,.17-1.46c.31-1.35,.33-2.57,.2-3.62,12.25-8.29,21.49-20.19,26.42-34.02,1.27-.16,2.43-.53,3.53-1.13,.84-.38,1.26-.44,1.38-.45l.21,.06,.32,.05c1.18,.19,2.45,.46,3.76,.82,2.65,.77,4.87,1.57,6.92,2.94l.11,.07c1.72,1.08,3.66,1.65,5.63,1.65,.78,0,1.56-.09,2.31-.27,2.66-.59,4.97-2.21,6.46-4.55,1.48-2.33,1.96-5.08,1.36-7.76-1.05-4.78-5.22-8.12-10.12-8.12-.74,0-1.49,.08-2.22,.24-1.29,.29-2.62,.43-4.1,.43-1,0-2.09-.06-3.53-.19-1.35-.15-2.57-.34-3.76-.6l-.31-.07-.2-.02c-.12-.06-.46-.27-1.11-.93-.88-1-1.82-1.7-2.72-2.21,.05-1.05,.08-2.08,.08-3.1,0-12.69-3.45-24.99-10-35.77,.52-.86,.98-1.89,1.26-3.13,.27-.93,.47-1.29,.55-1.42l.19-.12,.27-.24c.92-.83,2.03-1.63,3.01-2.34,2.01-1.34,4.18-2.71,6.63-3.41,2.77-.79,5.01-2.67,6.33-5.28,1.26-2.38,1.51-5.19,.66-7.84-.85-2.66-2.69-4.8-5.19-6.05-1.39-.73-3.05-1.14-4.71-1.14-3.92,0-7.45,2.17-9.2,5.68-1.16,2.24-2.9,4.14-4.61,5.85-1.06,1-2.03,1.87-2.98,2.64l-.23,.19-.09,.09c-.15,.05-.55,.16-1.46,.22-1.32,.05-2.44,.33-3.4,.71-10.08-9.05-22.65-14.97-35.99-16.95-.32-.96-.82-1.98-1.59-3-.57-.78-.74-1.18-.78-1.32l.02-.19v-.32c-.05-1.1-.02-2.29,.09-3.85,.27-2.4,.62-4.95,1.65-7.36,1.09-2.6,1.1-5.47,.02-8.09l-.04-.09c-1.65-3.78-5.39-6.23-9.53-6.23-1.4,0-2.75,.27-4.03,.81-5.31,2.31-7.73,8.42-5.46,13.64,.99,2.33,1.34,4.8,1.63,7.32,.09,1.44,.15,2.65,.1,3.82v.55c-.04,.14-.2,.53-.77,1.3-.78,1.02-1.28,2.04-1.6,3.01-12.9,1.93-25.16,7.59-35.1,16.23-.99-.39-2.15-.68-3.52-.73-.92-.06-1.32-.17-1.47-.22l-.14-.15-.29-.22c-1.06-.81-2.01-1.63-2.81-2.44-1.69-1.64-3.52-3.58-4.75-5.95-1.27-2.45-3.54-4.32-6.24-5.14l-.12-.04c-.91-.25-1.85-.38-2.79-.38-4.65,0-8.67,3-9.98,7.48-.78,2.64-.47,5.44,.88,7.88,1.35,2.43,3.55,4.18,6.21,4.93,2.28,.7,4.29,1.84,6.78,3.45,1.1,.76,2.09,1.51,3.02,2.31l.22,.19,.14,.09c.08,.11,.29,.48,.56,1.44,.25,1.11,.65,2.04,1.11,2.83-6.99,11.05-10.66,23.69-10.66,36.76,0,1.32,.04,2.67,.12,4.03-.71,.48-1.44,1.09-2.12,1.88-.55,.63-.9,.89-1.04,.98l-.21,.02-.4,.11c-1.23,.32-2.45,.56-3.64,.69-1.31,.17-2.78,.33-4.26,.33-1.18,0-2.24-.1-3.25-.32l-.17-.03c-.59-.1-1.19-.15-1.79-.15-2.19,0-4.37,.69-6.12,1.95-2.22,1.54-3.73,3.92-4.19,6.67-.46,2.7,.15,5.43,1.72,7.68,1.98,2.79,5.15,4.42,8.51,4.42,2.15,0,4.22-.66,5.98-1.91,1.97-1.4,4.18-2.27,6.9-3.16,1.29-.41,2.51-.72,3.69-.94l.33-.06,.2-.07c.15,.01,.55,.08,1.41,.44,.78,.38,1.58,.66,2.42,.82,5.01,13.88,14.39,25.8,26.8,34.06-.08,.95-.05,2.01,.22,3.17,.17,.95,.14,1.4,.12,1.55l-.08,.13-.12,.27c-.51,1.14-1.06,2.26-1.73,3.52-1.33,2.18-2.7,4.27-4.61,6.01-2.08,1.88-3.33,4.56-3.41,7.34-.09,2.75,.9,5.38,2.79,7.4,1.89,2.01,4.45,3.17,7.21,3.27,.12,0,.24,0,.35,0,5.53,0,10.19-4.49,10.38-10.01,.05-2.63,.8-5.03,1.64-7.46,.39-1.07,.91-2.25,1.49-3.42l.14-.27,.07-.2c.08-.09,.38-.4,1.23-.87,1.02-.53,1.83-1.16,2.49-1.81,6.59,2.02,13.32,3.04,20.04,3.04s13.72-1.06,20.39-3.15c.66,.66,1.47,1.31,2.49,1.87,.92,.54,1.23,.84,1.32,.95l.05,.13,.1,.21c.56,1.19,1.05,2.37,1.5,3.62,.9,2.59,1.52,4.86,1.62,7.35Z"/><path class="d" d="M127.19,13.5c1.41,0,2.77,.28,4.03,.85l.28,.14,27.03,13.05,56.18,27.13c2.67,1.29,4.6,3.66,5.31,6.53l.04,.19,20.35,89.35h0l.22,.99c.66,2.9-.06,6.03-1.92,8.37l-1.07,1.36-56.53,71.06c-1.89,2.38-4.73,3.75-7.77,3.75H81.02c-3,0-5.89-1.4-7.76-3.74l-44.19-55.56-13.42-16.87c-1.86-2.33-2.57-5.47-1.91-8.37L30.8,76.77l3.5-15.37c.67-2.91,2.67-5.43,5.36-6.73l56.19-27.13,27.04-13.06c1.34-.65,2.79-.98,4.29-.98m-.08,15.41c-1.96,0-3.88,.39-5.71,1.16l-.06,.03-.06,.03c-7.51,3.27-10.98,12.01-7.74,19.49,.75,1.78,1.05,3.84,1.29,5.97,.07,1.03,.11,1.91,.1,2.72-.37,.5-.7,1.01-.99,1.51-12.05,2.23-23.48,7.51-33.07,15.3-.63-.12-1.31-.2-2.02-.24-.74-.58-1.39-1.15-1.94-1.71l-.06-.06-.06-.06c-1.97-1.91-3.08-3.28-3.83-4.74-1.82-3.51-5.07-6.2-8.92-7.37l-.12-.04-.12-.03c-1.3-.36-2.64-.54-3.98-.54-6.67,0-12.41,4.3-14.3,10.69-1.13,3.82-.68,7.85,1.26,11.35,1.93,3.47,5.07,5.97,8.87,7.06,1.75,.54,3.43,1.51,5.55,2.88,.77,.53,1.47,1.06,2.13,1.6,.1,.42,.22,.82,.35,1.2-6.62,11.27-10.09,23.97-10.09,37.09,0,.65,0,1.31,.03,1.98-.25,.25-.5,.51-.75,.79-.87,.21-1.73,.37-2.56,.46h-.07l-.07,.02c-1.56,.2-2.64,.28-3.61,.28-.86,0-1.62-.07-2.31-.22l-.17-.04-.17-.03c-.84-.14-1.7-.22-2.55-.22-3.1,0-6.18,.98-8.68,2.75-3.25,2.27-5.4,5.69-6.07,9.62-.65,3.87,.22,7.77,2.45,10.99l.03,.05,.03,.05c2.79,3.92,7.33,6.27,12.14,6.27,3.09,0,6.06-.95,8.57-2.74,1.51-1.07,3.28-1.77,5.65-2.54,.95-.3,1.83-.53,2.66-.71,.2,.09,.4,.18,.6,.26,5.21,13.15,14.14,24.52,25.76,32.8,.05,.48,.12,.98,.23,1.48-.37,.81-.78,1.62-1.26,2.52-1.17,1.91-2.28,3.6-3.71,4.9-3,2.71-4.78,6.55-4.9,10.51-.28,8.18,6.16,15.06,14.35,15.34,.17,0,.34,0,.51,0,8.07,0,14.6-6.31,14.87-14.36v-.14c.04-1.72,.51-3.42,1.37-5.93,.3-.81,.65-1.64,1.05-2.47,.4-.22,.78-.45,1.13-.68,6.28,1.71,12.66,2.57,19.05,2.57s13.02-.89,19.38-2.66c.38,.26,.78,.51,1.21,.75,.37,.82,.7,1.65,1.01,2.52,.77,2.21,1.29,4.09,1.37,5.99,.06,4.01,1.8,7.88,4.79,10.62l.06,.06,.06,.06c2.75,2.43,6.27,3.77,9.93,3.77,4.12,0,8.1-1.73,10.92-4.75l.07-.08,.07-.08c5.45-6.13,5.01-15.3-.99-20.86l-.08-.07-.08-.07c-1.3-1.16-2.34-2.72-3.58-4.86-.39-.7-.8-1.51-1.24-2.46,.15-.7,.24-1.37,.28-2.01,11.37-8.26,20.12-19.52,25.25-32.5,.63-.21,1.25-.47,1.86-.77,.86,.15,1.78,.36,2.73,.62,2.28,.66,4.11,1.32,5.66,2.36l.11,.07,.11,.07c2.43,1.53,5.21,2.34,8.02,2.34,1.1,0,2.21-.13,3.28-.37,3.87-.87,7.16-3.19,9.29-6.53,2.12-3.34,2.82-7.3,1.96-11.13-1.52-6.87-7.49-11.67-14.52-11.67-1.06,0-2.13,.11-3.18,.34h-.06c-.94,.22-1.92,.32-3.09,.32-.84,0-1.78-.05-3.03-.16-1.02-.11-1.91-.25-2.75-.42-.42-.45-.84-.85-1.26-1.22,0-.28,0-.55,0-.82,0-12.7-3.24-25.02-9.42-35.99,.19-.5,.35-1.03,.49-1.6,.63-.53,1.38-1.09,2.28-1.73,2.05-1.37,3.66-2.31,5.31-2.78,3.9-1.12,7.19-3.84,9.06-7.49,1.84-3.52,2.18-7.54,.97-11.33-1.21-3.79-3.83-6.86-7.37-8.66-2.1-1.09-4.45-1.66-6.81-1.66-5.61,0-10.65,3.1-13.19,8.09-.85,1.63-2.12,3.08-3.77,4.72-.73,.7-1.42,1.31-2.08,1.87-.63,.04-1.23,.11-1.8,.21-9.77-8.19-21.53-13.73-34.02-16.02-.28-.5-.61-1-.98-1.5,0-.78,.03-1.64,.1-2.71,.28-2.47,.6-4.35,1.32-6.04,1.56-3.69,1.57-7.79,.03-11.53l-.04-.09-.04-.09c-2.37-5.42-7.73-8.93-13.65-8.93h-.06m.08-24.41c-2.81,0-5.62,.62-8.22,1.88l-27.03,13.05-56.19,27.13c-5.17,2.5-8.94,7.23-10.22,12.83l-3.5,15.38L4.97,149.73c-1.27,5.59,.07,11.48,3.64,15.97l13.42,16.87,44.19,55.56c3.58,4.51,9.04,7.14,14.8,7.14h92.34c5.76,0,11.22-2.63,14.81-7.14l57.61-72.42h0c3.56-4.5,4.91-10.38,3.64-15.97h0l-20.57-90.35h0c-1.28-5.6-5.04-10.33-10.22-12.83l-56.18-27.13-27.03-13.05s0-.01-.01-.01c-2.59-1.25-5.4-1.87-8.22-1.87h0Zm-44.58,81.07c10.17-9.73,23.46-16.2,38.23-17.65,.16-1.45,.27-2.91,1.4-4.36,1.08-1.46,1.83-2.91,1.67-4.37,.06-1.45-.01-2.9-.11-4.41-.33-2.91-.75-5.81-1.99-8.72-1.29-2.96,.11-6.4,3.07-7.69,.74-.31,1.51-.46,2.27-.46h.03c2.27,0,4.44,1.32,5.4,3.53,.64,1.56,.59,3.22,0,4.62-1.24,2.91-1.67,5.81-1.99,8.72-.11,1.51-.17,2.96-.12,4.41-.16,1.46,.6,2.91,1.67,4.37,1.13,1.45,1.24,2.91,1.4,4.36,15.17,1.49,28.81,8.24,39.08,18.41,1.24-.81,2.42-1.67,4.31-1.73,1.77-.1,3.39-.42,4.41-1.5,1.13-.92,2.21-1.89,3.28-2.91,2.05-2.05,4.04-4.26,5.49-7.06,1.01-2.03,3.06-3.19,5.17-3.19,.91,0,1.83,.22,2.7,.67,2.9,1.45,4.03,5,2.52,7.85-.76,1.51-2.04,2.54-3.54,2.97-3.02,.86-5.55,2.42-7.97,4.04-1.19,.86-2.37,1.72-3.45,2.69-1.24,.8-1.88,2.31-2.37,4.03-.37,1.83-1.4,2.85-2.43,3.92,6.97,10.31,11.04,22.73,11.04,36.07,0,2.05-.11,4.06-.3,6.06l.09,.03c1.4,.43,2.8,.81,4.04,2.26,1.24,1.29,2.52,2.26,3.97,2.37,1.46,.32,2.86,.53,4.31,.69,1.31,.12,2.62,.21,3.93,.21,1.65,0,3.32-.14,5.06-.53,.43-.09,.85-.14,1.27-.14,2.7,0,5.13,1.86,5.73,4.61,.7,3.12-1.29,6.24-4.46,6.94-.43,.1-.86,.15-1.28,.15-1.17,0-2.29-.36-3.24-.96-2.64-1.77-5.45-2.74-8.25-3.55-1.4-.38-2.84-.7-4.24-.92-.38-.12-.77-.17-1.18-.17-1.1,0-2.28,.38-3.46,.93-1.03,.59-2,.74-2.96,.74-.54,0-1.07-.05-1.61-.09h-.18c-4.64,15.35-14.86,28.26-28.28,36.46l.04,.14c.43,1.4,.92,2.74,.48,4.57-.37,1.78-.42,3.4,.33,4.69,.59,1.29,1.24,2.63,1.93,3.87,1.46,2.53,3.07,5.06,5.44,7.16,2.37,2.2,2.53,5.87,.38,8.29-1.17,1.26-2.75,1.89-4.34,1.89-1.41,0-2.82-.5-3.96-1.51-1.23-1.13-1.88-2.64-1.88-4.21-.11-3.17-.91-5.96-1.88-8.76-.48-1.35-1.03-2.69-1.67-4.04-.49-1.4-1.77-2.38-3.33-3.29-1.56-.83-2.31-2.01-3.04-3.26-6.89,2.52-14.3,3.96-22.05,3.96s-14.9-1.4-21.7-3.83c-.7,1.19-1.39,2.33-2.95,3.13-1.56,.86-2.85,1.89-3.33,3.29-.65,1.29-1.24,2.64-1.73,3.98-.96,2.8-1.82,5.6-1.88,8.77-.11,3.16-2.75,5.66-5.88,5.66-.07,0-.13,0-.2,0-3.23-.11-5.77-2.81-5.66-6.04,.05-1.66,.81-3.12,1.94-4.14,2.37-2.15,3.98-4.63,5.49-7.1,.7-1.3,1.34-2.58,1.94-3.93,.75-1.23,.7-2.91,.37-4.68-.41-1.71,.03-3.05,.49-4.35-13.53-8.12-23.89-20.99-28.63-36.35-.4,.04-.81,.07-1.22,.07-.83,0-1.68-.13-2.6-.61-1.17-.49-2.29-.85-3.34-.85-.44,0-.87,.06-1.29,.21-1.45,.27-2.86,.64-4.26,1.08-2.8,.91-5.54,1.94-8.12,3.77-1.02,.73-2.2,1.08-3.37,1.08-1.84,0-3.66-.87-4.81-2.49-1.83-2.64-1.24-6.3,1.4-8.13,1.04-.75,2.29-1.11,3.5-1.11,.35,0,.69,.03,1.02,.09,1.41,.3,2.8,.41,4.18,.41,1.6,0,3.18-.16,4.75-.35,1.45-.16,2.9-.44,4.3-.81,1.45-.11,2.75-1.18,3.93-2.53,1.03-1.21,2.22-1.66,3.43-2.09-.23-2.21-.36-4.46-.36-6.74,0-13.76,4.37-26.51,11.73-37-.96-.97-1.95-1.97-2.31-3.69-.48-1.72-1.13-3.23-2.36-4.04-1.13-.97-2.27-1.83-3.45-2.64-2.48-1.61-5.01-3.12-8.02-4.03-3.12-.86-4.95-4.15-4.04-7.22,.76-2.59,3.11-4.25,5.67-4.25,.53,0,1.06,.07,1.59,.22,1.57,.48,2.86,1.56,3.56,2.91,1.45,2.8,3.45,5.01,5.55,7.05,1.02,1.03,2.15,1.99,3.28,2.85,1.02,1.08,2.64,1.4,4.41,1.51,1.89,.05,3.07,.86,4.3,1.67l.1,.05h0Z"/></g></g></g></svg>