<?xml version="1.0" encoding="UTF-8"?><svg xmlns="http://www.w3.org/2000/svg" viewBox="0 0 245.39 240.77"><g id="a"/><g id="b"><g id="c"><path d="M122.69,0c-2.81,0-5.62,.63-8.22,1.88L31.25,42.06c-5.18,2.5-8.94,7.23-10.22,12.84L.47,145.23c-1.27,5.59,.07,11.48,3.64,15.97l57.61,72.43c3.59,4.51,9.04,7.14,14.8,7.14h92.34c5.76,0,11.22-2.63,14.8-7.14l57.61-72.42h0c3.57-4.5,4.92-10.38,3.65-15.97h0l-20.57-90.35h0c-1.28-5.61-5.04-10.33-10.22-12.84L130.92,1.88h-.01C128.32,.62,125.5,0,122.69,0Zm0,10.77c1.21,0,2.42,.27,3.54,.81l83.22,40.18c2.24,1.08,3.85,3.11,4.4,5.53l20.56,90.34c.55,2.42-.03,4.95-1.57,6.89l-57.61,72.43c-1.55,1.95-3.89,3.07-6.38,3.07H76.52c-2.49,0-4.82-1.12-6.37-3.07L12.54,154.51c-1.54-1.94-2.13-4.47-1.58-6.89L31.53,57.29c.55-2.42,2.16-4.45,4.39-5.53h0L119.15,11.57c1.12-.54,2.33-.81,3.54-.81Zm-.04,22.64c-.76,0-1.53,.15-2.27,.46-2.96,1.29-4.36,4.73-3.07,7.7,1.24,2.91,1.66,5.81,1.99,8.72,.11,1.51,.17,2.96,.12,4.42,.16,1.45-.6,2.91-1.67,4.36-1.13,1.45-1.24,2.91-1.4,4.36-14.77,1.45-28.07,7.92-38.23,17.65l-.09-.05c-1.24-.81-2.42-1.62-4.3-1.67-1.78-.11-3.39-.43-4.42-1.5-1.13-.86-2.26-1.83-3.28-2.85-2.1-2.05-4.1-4.26-5.55-7.05-.7-1.35-1.99-2.43-3.55-2.91-3.12-.86-6.35,.92-7.26,4.04-.92,3.07,.92,6.35,4.04,7.21,3.01,.92,5.55,2.42,8.02,4.04,1.18,.81,2.32,1.67,3.45,2.64,1.24,.81,1.88,2.31,2.37,4.04,.36,1.73,1.35,2.72,2.31,3.69-7.37,10.49-11.73,23.24-11.73,37,0,2.28,.13,4.52,.36,6.74-1.21,.42-2.4,.88-3.43,2.09-1.18,1.35-2.48,2.42-3.93,2.52-1.4,.38-2.85,.65-4.3,.81-2.91,.38-5.87,.59-8.94-.05-1.51-.27-3.17,.05-4.52,1.02-2.64,1.83-3.23,5.49-1.4,8.13,1.88,2.64,5.54,3.29,8.18,1.41,2.58-1.83,5.33-2.86,8.13-3.77,1.4-.43,2.8-.8,4.26-1.07,1.4-.48,2.96-.06,4.63,.64,1.39,.72,2.61,.66,3.83,.54,4.74,15.36,15.1,28.23,28.63,36.35-.46,1.29-.9,2.64-.48,4.34,.32,1.78,.38,3.45-.38,4.69-.59,1.35-1.23,2.63-1.93,3.92-1.51,2.48-3.12,4.95-5.49,7.11-1.13,1.02-1.89,2.47-1.94,4.14-.11,3.23,2.43,5.93,5.66,6.03s5.98-2.43,6.09-5.66c.05-3.18,.91-5.97,1.88-8.77,.48-1.35,1.08-2.69,1.72-3.98,.48-1.4,1.77-2.43,3.33-3.29,1.55-.8,2.25-1.94,2.95-3.13,6.79,2.44,14.08,3.84,21.7,3.84s15.15-1.45,22.05-3.96c.73,1.24,1.48,2.43,3.04,3.26,1.56,.92,2.85,1.89,3.33,3.29,.65,1.35,1.19,2.69,1.67,4.04,.97,2.8,1.77,5.59,1.88,8.77,0,1.56,.64,3.07,1.88,4.21,2.42,2.15,6.09,1.99,8.29-.38,2.15-2.42,1.99-6.09-.38-8.29-2.37-2.1-3.98-4.63-5.44-7.16-.7-1.24-1.34-2.58-1.93-3.87-.75-1.29-.7-2.91-.33-4.69,.43-1.83-.05-3.17-.48-4.57l-.04-.14c13.42-8.2,23.64-21.11,28.28-36.47h.18c1.51,.12,2.96,.27,4.57-.64,1.61-.75,3.24-1.19,4.64-.76,1.4,.22,2.85,.54,4.25,.91,2.8,.81,5.6,1.78,8.24,3.55,1.29,.81,2.91,1.19,4.52,.81,3.18-.7,5.17-3.82,4.47-6.94-.7-3.18-3.83-5.17-7-4.47-3.12,.7-6.03,.58-8.99,.32-1.45-.16-2.86-.37-4.31-.69-1.45-.11-2.74-1.07-3.97-2.37-1.24-1.45-2.64-1.83-4.04-2.26l-.09-.03c.19-2,.3-4.01,.3-6.06,0-13.34-4.07-25.76-11.04-36.07,1.02-1.07,2.05-2.09,2.43-3.92,.48-1.72,1.13-3.23,2.37-4.04,1.08-.97,2.26-1.83,3.45-2.69,2.42-1.61,4.95-3.18,7.97-4.04,1.51-.43,2.79-1.46,3.54-2.96,1.51-2.85,.38-6.4-2.52-7.85-2.85-1.51-6.41-.38-7.86,2.52-1.45,2.8-3.44,5.01-5.49,7.05-1.08,1.02-2.15,2-3.28,2.91-1.02,1.08-2.64,1.4-4.42,1.5-1.88,.05-3.07,.92-4.31,1.72-10.26-10.17-23.91-16.92-39.08-18.41-.16-1.45-.27-2.91-1.4-4.36-1.08-1.45-1.83-2.91-1.67-4.36-.05-1.45,0-2.91,.12-4.42,.32-2.91,.75-5.81,1.99-8.72,.59-1.4,.65-3.06,0-4.63-.97-2.22-3.15-3.54-5.42-3.53Zm-7.72,41.07l-.26,2.07c-.75,5.81-1.29,11.68-1.83,17.49-.32,3.07-.59,6.19-.81,9.26-2.64-1.88-5.27-3.88-8.07-5.66-4.84-3.28-9.69-6.57-14.7-9.69l-1.69-1.05c7.57-6.52,16.98-10.93,27.36-12.43Zm15.52,0c10.81,1.56,20.55,6.29,28.27,13.26l-1.8,1.14c-4.95,3.18-9.74,6.46-14.58,9.75-1.94,1.29-3.83,2.64-5.66,3.98-1.45,1.02-3.45,.1-3.55-1.67-.16-2.31-.37-4.57-.59-6.89-.54-5.81-1.08-11.68-1.83-17.49l-.26-2.07Zm-53.07,24.18l1.71,1.79c4.09,4.25,8.24,8.34,12.44,12.49,1.78,1.78,3.55,3.45,5.38,5.12,1.29,1.18,.81,3.28-.86,3.76-2.64,.81-5.28,1.56-7.92,2.42-5.54,1.83-11.14,3.56-16.68,5.55l-2.44,.85c-.05-.98-.15-1.96-.15-2.95,0-10.71,3.15-20.65,8.52-29.03Zm91.26,1.06c4.96,8.15,7.87,17.7,7.87,27.96,0,.9-.09,1.77-.14,2.66l-1.91-.61c-5.6-1.83-11.19-3.4-16.84-5.01-3.66-1.08-7.33-2.04-10.99-2.95,2.75-2.64,5.6-5.22,8.24-7.92,4.14-4.14,8.28-8.29,12.32-12.59l1.44-1.53Zm-49.28,17.2h6.56c1.02,0,2,.49,2.53,1.24l4.19,5.28c.59,.7,.81,1.71,.65,2.63l-1.51,6.52c-.16,1.02-.86,1.83-1.72,2.31l-6.02,2.8c-.86,.48-1.94,.48-2.8,0l-6.03-2.8c-.86-.48-1.62-1.29-1.72-2.31l-1.5-6.52c-.16-.92,.06-1.93,.65-2.63l4.19-5.28c.54-.75,1.51-1.24,2.53-1.24Zm-19.44,25.67c1.67-.27,3.02,1.4,2.38,2.96-1.02,2.69-2,5.33-2.91,8.02-1.99,5.54-3.93,11.03-5.76,16.63l-.74,2.31c-9.58-6.37-16.94-15.74-20.86-26.78l2.86-.24c5.87-.54,11.63-1.25,17.49-1.94,2.53-.27,5.01-.64,7.54-.97Zm46.51,.76c2.53,.27,5.01,.54,7.54,.76,5.87,.54,11.68,1.07,17.55,1.45l1.87,.11c-3.85,10.89-11.05,20.18-20.43,26.56l-.61-1.96c-1.78-5.6-3.71-11.14-5.59-16.63-.86-2.48-1.72-4.89-2.64-7.32-.59-1.56,.7-3.18,2.31-2.96Zm-23.34,10.62c.77,0,1.54,.39,1.97,1.17,1.18,2.26,2.43,4.47,3.72,6.68,2.91,5.06,5.8,10.18,8.93,15.13l1.27,2.06c-5.14,1.62-10.6,2.51-16.28,2.51s-10.82-.84-15.82-2.37l1.35-2.16c3.12-4.95,6.08-10.02,9.04-15.08,1.35-2.21,2.64-4.47,3.88-6.78,.43-.78,1.19-1.17,1.96-1.17Z"/></g></g></svg>