<?xml version="1.0" encoding="UTF-8"?><svg xmlns="http://www.w3.org/2000/svg" viewBox="0 0 254.39 249.77"><defs><style>.d{fill:#40a1f2;}.d,.e{stroke:#fff;stroke-miterlimit:10;}.e{fill:none;stroke-width:9px;}</style></defs><g id="a"/><g id="b"><g id="c"><path class="d" d="M245.78,165.7h0l-57.61,72.43c-3.59,4.51-9.05,7.14-14.81,7.14H81.02c-5.76,0-11.22-2.63-14.8-7.14L8.61,165.7c-3.57-4.49-4.91-10.38-3.64-15.97L25.53,59.39c1.28-5.6,5.05-10.33,10.22-12.83L118.97,6.38c2.6-1.26,5.41-1.88,8.22-1.88s5.63,.62,8.22,1.87t.01,.01l83.21,40.18c5.18,2.5,8.94,7.23,10.22,12.82h0l20.57,90.35h0c1.27,5.6-.08,11.48-3.64,15.97Z"/><path class="e" d="M219.88,147.74c-.7-3.17-3.82-5.16-7-4.47-3.12,.7-6.03,.59-8.99,.32-1.45-.16-2.85-.37-4.31-.69-1.45-.11-2.73-1.08-3.97-2.37-1.24-1.45-2.64-1.83-4.04-2.26l-.09-.03c.19-2,.3-4.01,.3-6.06,0-13.34-4.07-25.76-11.04-36.07,1.03-1.07,2.06-2.09,2.43-3.92,.49-1.72,1.13-3.23,2.37-4.03,1.08-.97,2.26-1.83,3.45-2.69,2.42-1.62,4.95-3.18,7.97-4.04,1.5-.43,2.78-1.46,3.54-2.97,1.51-2.85,.38-6.4-2.52-7.85-2.86-1.51-6.42-.38-7.87,2.52-1.45,2.8-3.44,5.01-5.49,7.06-1.07,1.02-2.15,1.99-3.28,2.91-1.02,1.08-2.64,1.4-4.41,1.5-1.89,.06-3.07,.92-4.31,1.73-10.27-10.17-23.91-16.92-39.08-18.41-.16-1.45-.27-2.91-1.4-4.36-1.07-1.46-1.83-2.91-1.67-4.37-.05-1.45,.01-2.9,.12-4.41,.32-2.91,.75-5.81,1.99-8.72,.59-1.4,.64-3.06,0-4.62-.97-2.22-3.15-3.54-5.43-3.53-.76,0-1.53,.15-2.27,.46-2.96,1.29-4.36,4.73-3.07,7.69,1.24,2.91,1.66,5.81,1.99,8.72,.1,1.51,.17,2.96,.11,4.41,.16,1.46-.59,2.91-1.67,4.37-1.13,1.45-1.24,2.91-1.4,4.36-14.77,1.45-28.06,7.92-38.23,17.65l-.1-.05c-1.23-.81-2.41-1.62-4.3-1.67-1.77-.11-3.39-.43-4.41-1.51-1.13-.86-2.26-1.82-3.28-2.85-2.1-2.04-4.1-4.25-5.55-7.05-.7-1.35-1.99-2.43-3.56-2.91-3.12-.86-6.34,.91-7.26,4.03-.91,3.07,.92,6.36,4.04,7.22,3.01,.91,5.54,2.42,8.02,4.03,1.18,.81,2.32,1.67,3.45,2.64,1.23,.81,1.88,2.32,2.36,4.04,.36,1.72,1.35,2.72,2.31,3.69-7.36,10.49-11.73,23.24-11.73,37,0,2.28,.13,4.53,.36,6.74-1.21,.43-2.4,.88-3.43,2.09-1.18,1.35-2.48,2.42-3.93,2.53-1.4,.37-2.85,.65-4.3,.81-2.91,.37-5.87,.59-8.93-.06-1.51-.26-3.18,.06-4.52,1.02-2.64,1.83-3.23,5.49-1.4,8.13,1.88,2.64,5.54,3.29,8.18,1.41,2.58-1.83,5.32-2.86,8.12-3.77,1.4-.44,2.81-.81,4.26-1.08,1.4-.48,2.96-.06,4.63,.64,1.38,.72,2.61,.66,3.82,.54,4.74,15.36,15.1,28.23,28.63,36.35-.46,1.3-.9,2.64-.49,4.35,.33,1.77,.38,3.45-.37,4.68-.6,1.35-1.24,2.63-1.94,3.93-1.51,2.47-3.12,4.95-5.49,7.1-1.13,1.02-1.89,2.48-1.94,4.14-.11,3.23,2.43,5.93,5.66,6.04,3.22,.11,5.97-2.43,6.08-5.66,.06-3.17,.92-5.97,1.88-8.77,.49-1.34,1.08-2.69,1.73-3.98,.48-1.4,1.77-2.43,3.33-3.29,1.56-.8,2.25-1.94,2.95-3.13,6.8,2.43,14.08,3.83,21.7,3.83s15.16-1.44,22.05-3.96c.73,1.25,1.48,2.43,3.04,3.26,1.56,.91,2.84,1.89,3.33,3.29,.64,1.35,1.19,2.69,1.67,4.04,.97,2.8,1.77,5.59,1.88,8.76,0,1.57,.65,3.08,1.88,4.21,2.43,2.15,6.09,1.99,8.3-.38,2.15-2.42,1.99-6.09-.38-8.29-2.37-2.1-3.98-4.63-5.44-7.16-.69-1.24-1.34-2.58-1.93-3.87-.75-1.29-.7-2.91-.33-4.69,.44-1.83-.05-3.17-.48-4.57l-.04-.14c13.42-8.2,23.64-21.11,28.28-36.47h.18c1.5,.12,2.96,.28,4.57-.64,1.61-.75,3.24-1.19,4.64-.76,1.4,.22,2.84,.54,4.24,.92,2.8,.81,5.61,1.78,8.25,3.55,1.29,.81,2.9,1.19,4.52,.81,3.17-.7,5.16-3.82,4.46-6.94Zm-98.55-25.08c.54-.75,1.51-1.24,2.53-1.24h6.56c1.02,0,2,.49,2.53,1.24l4.2,5.28c.59,.7,.81,1.71,.65,2.62l-1.51,6.52c-.17,1.03-.87,1.83-1.73,2.32l-6.02,2.79c-.86,.49-1.94,.49-2.8,0l-6.03-2.79c-.86-.49-1.62-1.29-1.73-2.32l-1.5-6.52c-.16-.91,.06-1.92,.65-2.62l4.2-5.28Zm-47.82,12.48c-.05-.99-.14-1.96-.14-2.96,0-10.71,3.15-20.65,8.51-29.02l1.72,1.79c4.09,4.25,8.23,8.34,12.43,12.48,1.78,1.78,3.56,3.46,5.39,5.12,1.29,1.19,.8,3.28-.87,3.77-2.63,.81-5.27,1.55-7.91,2.42-5.55,1.83-11.14,3.55-16.69,5.55l-2.44,.85Zm33.29,14.92c-1.02,2.69-2,5.33-2.91,8.02-2,5.54-3.93,11.03-5.76,16.63l-.74,2.31c-9.58-6.37-16.94-15.74-20.86-26.78l2.86-.24c5.87-.54,11.63-1.24,17.49-1.94,2.53-.27,5.01-.65,7.54-.97,1.67-.27,3.02,1.4,2.38,2.97Zm-13.04-57.6l-1.69-1.05c7.57-6.53,16.98-10.94,27.36-12.43l-.26,2.07c-.75,5.81-1.29,11.68-1.83,17.49-.32,3.07-.59,6.2-.81,9.26-2.63-1.88-5.27-3.87-8.07-5.65-4.85-3.28-9.69-6.57-14.7-9.69Zm33.43,93.55c-5.51,0-10.82-.84-15.82-2.37l1.35-2.15c3.12-4.95,6.08-10.02,9.04-15.08,1.34-2.2,2.64-4.46,3.88-6.78,.43-.78,1.19-1.16,1.95-1.16s1.54,.38,1.97,1.16c1.18,2.26,2.43,4.47,3.72,6.68,2.91,5.06,5.8,10.17,8.93,15.13l1.27,2.06c-5.14,1.62-10.61,2.51-16.29,2.51Zm14-78.91c-1.46,1.02-3.45,.11-3.56-1.67-.16-2.32-.37-4.57-.59-6.89-.53-5.81-1.07-11.68-1.83-17.49l-.26-2.07c10.81,1.56,20.55,6.29,28.27,13.26l-1.8,1.13c-4.95,3.18-9.73,6.46-14.58,9.75-1.94,1.29-3.82,2.63-5.65,3.98Zm16.27,69.62l-.61-1.96c-1.78-5.6-3.71-11.14-5.59-16.63-.86-2.48-1.73-4.9-2.64-7.32-.59-1.56,.7-3.18,2.31-2.96,2.53,.27,5.01,.54,7.54,.75,5.87,.54,11.68,1.08,17.54,1.46l1.88,.1c-3.85,10.89-11.05,20.18-20.43,26.56Zm23.42-41.88l-1.91-.61c-5.6-1.83-11.19-3.4-16.84-5.01-3.66-1.08-7.33-2.04-10.99-2.95,2.75-2.64,5.61-5.23,8.24-7.92,4.15-4.15,8.29-8.29,12.32-12.6l1.44-1.53c4.97,8.15,7.88,17.7,7.88,27.96,0,.9-.1,1.78-.14,2.66Zm39,12.9c-.7-3.17-3.82-5.16-7-4.47-3.12,.7-6.03,.59-8.99,.32-1.45-.16-2.85-.37-4.31-.69-1.45-.11-2.73-1.08-3.97-2.37-1.24-1.45-2.64-1.83-4.04-2.26l-.09-.03c.19-2,.3-4.01,.3-6.06,0-13.34-4.07-25.76-11.04-36.07,1.03-1.07,2.06-2.09,2.43-3.92,.49-1.72,1.13-3.23,2.37-4.03,1.08-.97,2.26-1.83,3.45-2.69,2.42-1.62,4.95-3.18,7.97-4.04,1.5-.43,2.78-1.46,3.54-2.97,1.51-2.85,.38-6.4-2.52-7.85-2.86-1.51-6.42-.38-7.87,2.52-1.45,2.8-3.44,5.01-5.49,7.06-1.07,1.02-2.15,1.99-3.28,2.91-1.02,1.08-2.64,1.4-4.41,1.5-1.89,.06-3.07,.92-4.31,1.73-10.27-10.17-23.91-16.92-39.08-18.41-.16-1.45-.27-2.91-1.4-4.36-1.07-1.46-1.83-2.91-1.67-4.37-.05-1.45,.01-2.9,.12-4.41,.32-2.91,.75-5.81,1.99-8.72,.59-1.4,.64-3.06,0-4.62-.97-2.22-3.15-3.54-5.43-3.53-.76,0-1.53,.15-2.27,.46-2.96,1.29-4.36,4.73-3.07,7.69,1.24,2.91,1.66,5.81,1.99,8.72,.1,1.51,.17,2.96,.11,4.41,.16,1.46-.59,2.91-1.67,4.37-1.13,1.45-1.24,2.91-1.4,4.36-14.77,1.45-28.06,7.92-38.23,17.65l-.1-.05c-1.23-.81-2.41-1.62-4.3-1.67-1.77-.11-3.39-.43-4.41-1.51-1.13-.86-2.26-1.82-3.28-2.85-2.1-2.04-4.1-4.25-5.55-7.05-.7-1.35-1.99-2.43-3.56-2.91-3.12-.86-6.34,.91-7.26,4.03-.91,3.07,.92,6.36,4.04,7.22,3.01,.91,5.54,2.42,8.02,4.03,1.18,.81,2.32,1.67,3.45,2.64,1.23,.81,1.88,2.32,2.36,4.04,.36,1.72,1.35,2.72,2.31,3.69-7.36,10.49-11.73,23.24-11.73,37,0,2.28,.13,4.53,.36,6.74-1.21,.43-2.4,.88-3.43,2.09-1.18,1.35-2.48,2.42-3.93,2.53-1.4,.37-2.85,.65-4.3,.81-2.91,.37-5.87,.59-8.93-.06-1.51-.26-3.18,.06-4.52,1.02-2.64,1.83-3.23,5.49-1.4,8.13,1.88,2.64,5.54,3.29,8.18,1.41,2.58-1.83,5.32-2.86,8.12-3.77,1.4-.44,2.81-.81,4.26-1.08,1.4-.48,2.96-.06,4.63,.64,1.38,.72,2.61,.66,3.82,.54,4.74,15.36,15.1,28.23,28.63,36.35-.46,1.3-.9,2.64-.49,4.35,.33,1.77,.38,3.45-.37,4.68-.6,1.35-1.24,2.63-1.94,3.93-1.51,2.47-3.12,4.95-5.49,7.1-1.13,1.02-1.89,2.48-1.94,4.14-.11,3.23,2.43,5.93,5.66,6.04,3.22,.11,5.97-2.43,6.08-5.66,.06-3.17,.92-5.97,1.88-8.77,.49-1.34,1.08-2.69,1.73-3.98,.48-1.4,1.77-2.43,3.33-3.29,1.56-.8,2.25-1.94,2.95-3.13,6.8,2.43,14.08,3.83,21.7,3.83s15.16-1.44,22.05-3.96c.73,1.25,1.48,2.43,3.04,3.26,1.56,.91,2.84,1.89,3.33,3.29,.64,1.35,1.19,2.69,1.67,4.04,.97,2.8,1.77,5.59,1.88,8.76,0,1.57,.65,3.08,1.88,4.21,2.43,2.15,6.09,1.99,8.3-.38,2.15-2.42,1.99-6.09-.38-8.29-2.37-2.1-3.98-4.63-5.44-7.16-.69-1.24-1.34-2.58-1.93-3.87-.75-1.29-.7-2.91-.33-4.69,.44-1.83-.05-3.17-.48-4.57l-.04-.14c13.42-8.2,23.64-21.11,28.28-36.47h.18c1.5,.12,2.96,.28,4.57-.64,1.61-.75,3.24-1.19,4.64-.76,1.4,.22,2.84,.54,4.24,.92,2.8,.81,5.61,1.78,8.25,3.55,1.29,.81,2.9,1.19,4.52,.81,3.17-.7,5.16-3.82,4.46-6.94Zm-98.55-25.08c.54-.75,1.51-1.24,2.53-1.24h6.56c1.02,0,2,.49,2.53,1.24l4.2,5.28c.59,.7,.81,1.71,.65,2.62l-1.51,6.52c-.17,1.03-.87,1.83-1.73,2.32l-6.02,2.79c-.86,.49-1.94,.49-2.8,0l-6.03-2.79c-.86-.49-1.62-1.29-1.73-2.32l-1.5-6.52c-.16-.91,.06-1.92,.65-2.62l4.2-5.28Zm-47.82,12.48c-.05-.99-.14-1.96-.14-2.96,0-10.71,3.15-20.65,8.51-29.02l1.72,1.79c4.09,4.25,8.23,8.34,12.43,12.48,1.78,1.78,3.56,3.46,5.39,5.12,1.29,1.19,.8,3.28-.87,3.77-2.63,.81-5.27,1.55-7.91,2.42-5.55,1.83-11.14,3.55-16.69,5.55l-2.44,.85Zm33.29,14.92c-1.02,2.69-2,5.33-2.91,8.02-2,5.54-3.93,11.03-5.76,16.63l-.74,2.31c-9.58-6.37-16.94-15.74-20.86-26.78l2.86-.24c5.87-.54,11.63-1.24,17.49-1.94,2.53-.27,5.01-.65,7.54-.97,1.67-.27,3.02,1.4,2.38,2.97Zm-13.04-57.6l-1.69-1.05c7.57-6.53,16.98-10.94,27.36-12.43l-.26,2.07c-.75,5.81-1.29,11.68-1.83,17.49-.32,3.07-.59,6.2-.81,9.26-2.63-1.88-5.27-3.87-8.07-5.65-4.85-3.28-9.69-6.57-14.7-9.69Zm33.43,93.55c-5.51,0-10.82-.84-15.82-2.37l1.35-2.15c3.12-4.95,6.08-10.02,9.04-15.08,1.34-2.2,2.64-4.46,3.88-6.78,.43-.78,1.19-1.16,1.95-1.16s1.54,.38,1.97,1.16c1.18,2.26,2.43,4.47,3.72,6.68,2.91,5.06,5.8,10.17,8.93,15.13l1.27,2.06c-5.14,1.62-10.61,2.51-16.29,2.51Zm14-78.91c-1.46,1.02-3.45,.11-3.56-1.67-.16-2.32-.37-4.57-.59-6.89-.53-5.81-1.07-11.68-1.83-17.49l-.26-2.07c10.81,1.56,20.55,6.29,28.27,13.26l-1.8,1.13c-4.95,3.18-9.73,6.46-14.58,9.75-1.94,1.29-3.82,2.63-5.65,3.98Zm16.27,69.62l-.61-1.96c-1.78-5.6-3.71-11.14-5.59-16.63-.86-2.48-1.73-4.9-2.64-7.32-.59-1.56,.7-3.18,2.31-2.96,2.53,.27,5.01,.54,7.54,.75,5.87,.54,11.68,1.08,17.54,1.46l1.88,.1c-3.85,10.89-11.05,20.18-20.43,26.56Zm23.42-41.88l-1.91-.61c-5.6-1.83-11.19-3.4-16.84-5.01-3.66-1.08-7.33-2.04-10.99-2.95,2.75-2.64,5.61-5.23,8.24-7.92,4.15-4.15,8.29-8.29,12.32-12.6l1.44-1.53c4.97,8.15,7.88,17.7,7.88,27.96,0,.9-.1,1.78-.14,2.66Zm68.54,14.9h0l-20.57-90.35h0c-1.28-5.6-5.04-10.33-10.22-12.83L135.42,6.38s0-.01-.01-.01c-2.59-1.25-5.4-1.87-8.22-1.87s-5.62,.62-8.22,1.88L35.75,46.56c-5.17,2.5-8.94,7.23-10.22,12.83L4.97,149.73c-1.27,5.59,.07,11.48,3.64,15.97l57.61,72.43c3.58,4.51,9.04,7.14,14.8,7.14h92.34c5.76,0,11.22-2.63,14.81-7.14l57.61-72.42h0c3.56-4.5,4.91-10.38,3.64-15.97Zm-12.06,9.26l-57.61,72.43c-1.55,1.95-3.9,3.07-6.39,3.07H81.02c-2.49,0-4.82-1.12-6.37-3.07L17.04,159c-1.54-1.94-2.12-4.47-1.58-6.88L36.04,61.79c.55-2.42,2.16-4.45,4.39-5.53h0L123.65,16.07c1.12-.54,2.33-.81,3.54-.81s2.42,.27,3.55,.81l83.21,40.18c2.24,1.08,3.86,3.11,4.41,5.53l20.56,90.34c.55,2.42-.02,4.95-1.56,6.88Zm-24.48-15.73c-3.12,.7-6.03,.59-8.99,.32-1.45-.16-2.85-.37-4.31-.69-1.45-.11-2.73-1.08-3.97-2.37-1.24-1.45-2.64-1.83-4.04-2.26l-.09-.03c.19-2,.3-4.01,.3-6.06,0-13.34-4.07-25.76-11.04-36.07,1.03-1.07,2.06-2.09,2.43-3.92,.49-1.72,1.13-3.23,2.37-4.03,1.08-.97,2.26-1.83,3.45-2.69,2.42-1.62,4.95-3.18,7.97-4.04,1.5-.43,2.78-1.46,3.54-2.97,1.51-2.85,.38-6.4-2.52-7.85-2.86-1.51-6.42-.38-7.87,2.52-1.45,2.8-3.44,5.01-5.49,7.06-1.07,1.02-2.15,1.99-3.28,2.91-1.02,1.08-2.64,1.4-4.41,1.5-1.89,.06-3.07,.92-4.31,1.73-10.27-10.17-23.91-16.92-39.08-18.41-.16-1.45-.27-2.91-1.4-4.36-1.07-1.46-1.83-2.91-1.67-4.37-.05-1.45,.01-2.9,.12-4.41,.32-2.91,.75-5.81,1.99-8.72,.59-1.4,.64-3.06,0-4.62-.97-2.22-3.15-3.54-5.43-3.53-.76,0-1.53,.15-2.27,.46-2.96,1.29-4.36,4.73-3.07,7.69,1.24,2.91,1.66,5.81,1.99,8.72,.1,1.51,.17,2.96,.11,4.41,.16,1.46-.59,2.91-1.67,4.37-1.13,1.45-1.24,2.91-1.4,4.36-14.77,1.45-28.06,7.92-38.23,17.65l-.1-.05c-1.23-.81-2.41-1.62-4.3-1.67-1.77-.11-3.39-.43-4.41-1.51-1.13-.86-2.26-1.82-3.28-2.85-2.1-2.04-4.1-4.25-5.55-7.05-.7-1.35-1.99-2.43-3.56-2.91-3.12-.86-6.34,.91-7.26,4.03-.91,3.07,.92,6.36,4.04,7.22,3.01,.91,5.54,2.42,8.02,4.03,1.18,.81,2.32,1.67,3.45,2.64,1.23,.81,1.88,2.32,2.36,4.04,.36,1.72,1.35,2.72,2.31,3.69-7.36,10.49-11.73,23.24-11.73,37,0,2.28,.13,4.53,.36,6.74-1.21,.43-2.4,.88-3.43,2.09-1.18,1.35-2.48,2.42-3.93,2.53-1.4,.37-2.85,.65-4.3,.81-2.91,.37-5.87,.59-8.93-.06-1.51-.26-3.18,.06-4.52,1.02-2.64,1.83-3.23,5.49-1.4,8.13,1.88,2.64,5.54,3.29,8.18,1.41,2.58-1.83,5.32-2.86,8.12-3.77,1.4-.44,2.81-.81,4.26-1.08,1.4-.48,2.96-.06,4.63,.64,1.38,.72,2.61,.66,3.82,.54,4.74,15.36,15.1,28.23,28.63,36.35-.46,1.3-.9,2.64-.49,4.35,.33,1.77,.38,3.45-.37,4.68-.6,1.35-1.24,2.63-1.94,3.93-1.51,2.47-3.12,4.95-5.49,7.1-1.13,1.02-1.89,2.48-1.94,4.14-.11,3.23,2.43,5.93,5.66,6.04,3.22,.11,5.97-2.43,6.08-5.66,.06-3.17,.92-5.97,1.88-8.77,.49-1.34,1.08-2.69,1.73-3.98,.48-1.4,1.77-2.43,3.33-3.29,1.56-.8,2.25-1.94,2.95-3.13,6.8,2.43,14.08,3.83,21.7,3.83s15.16-1.44,22.05-3.96c.73,1.25,1.48,2.43,3.04,3.26,1.56,.91,2.84,1.89,3.33,3.29,.64,1.35,1.19,2.69,1.67,4.04,.97,2.8,1.77,5.59,1.88,8.76,0,1.57,.65,3.08,1.88,4.21,2.43,2.15,6.09,1.99,8.3-.38,2.15-2.42,1.99-6.09-.38-8.29-2.37-2.1-3.98-4.63-5.44-7.16-.69-1.24-1.34-2.58-1.93-3.87-.75-1.29-.7-2.91-.33-4.69,.44-1.83-.05-3.17-.48-4.57l-.04-.14c13.42-8.2,23.64-21.11,28.28-36.47h.18c1.5,.12,2.96,.28,4.57-.64,1.61-.75,3.24-1.19,4.64-.76,1.4,.22,2.84,.54,4.24,.92,2.8,.81,5.61,1.78,8.25,3.55,1.29,.81,2.9,1.19,4.52,.81,3.17-.7,5.16-3.82,4.46-6.94-.7-3.17-3.82-5.16-7-4.47Zm-91.55-20.61c.54-.75,1.51-1.24,2.53-1.24h6.56c1.02,0,2,.49,2.53,1.24l4.2,5.28c.59,.7,.81,1.71,.65,2.62l-1.51,6.52c-.17,1.03-.87,1.83-1.73,2.32l-6.02,2.79c-.86,.49-1.94,.49-2.8,0l-6.03-2.79c-.86-.49-1.62-1.29-1.73-2.32l-1.5-6.52c-.16-.91,.06-1.92,.65-2.62l4.2-5.28Zm-47.82,12.48c-.05-.99-.14-1.96-.14-2.96,0-10.71,3.15-20.65,8.51-29.02l1.72,1.79c4.09,4.25,8.23,8.34,12.43,12.48,1.78,1.78,3.56,3.46,5.39,5.12,1.29,1.19,.8,3.28-.87,3.77-2.63,.81-5.27,1.55-7.91,2.42-5.55,1.83-11.14,3.55-16.69,5.55l-2.44,.85Zm33.29,14.92c-1.02,2.69-2,5.33-2.91,8.02-2,5.54-3.93,11.03-5.76,16.63l-.74,2.31c-9.58-6.37-16.94-15.74-20.86-26.78l2.86-.24c5.87-.54,11.63-1.24,17.49-1.94,2.53-.27,5.01-.65,7.54-.97,1.67-.27,3.02,1.4,2.38,2.97Zm-13.04-57.6l-1.69-1.05c7.57-6.53,16.98-10.94,27.36-12.43l-.26,2.07c-.75,5.81-1.29,11.68-1.83,17.49-.32,3.07-.59,6.2-.81,9.26-2.63-1.88-5.27-3.87-8.07-5.65-4.85-3.28-9.69-6.57-14.7-9.69Zm33.43,93.55c-5.51,0-10.82-.84-15.82-2.37l1.35-2.15c3.12-4.95,6.08-10.02,9.04-15.08,1.34-2.2,2.64-4.46,3.88-6.78,.43-.78,1.19-1.16,1.95-1.16s1.54,.38,1.97,1.16c1.18,2.26,2.43,4.47,3.72,6.68,2.91,5.06,5.8,10.17,8.93,15.13l1.27,2.06c-5.14,1.62-10.61,2.51-16.29,2.51Zm14-78.91c-1.46,1.02-3.45,.11-3.56-1.67-.16-2.32-.37-4.57-.59-6.89-.53-5.81-1.07-11.68-1.83-17.49l-.26-2.07c10.81,1.56,20.55,6.29,28.27,13.26l-1.8,1.13c-4.95,3.18-9.73,6.46-14.58,9.75-1.94,1.29-3.82,2.63-5.65,3.98Zm16.27,69.62l-.61-1.96c-1.78-5.6-3.71-11.14-5.59-16.63-.86-2.48-1.73-4.9-2.64-7.32-.59-1.56,.7-3.18,2.31-2.96,2.53,.27,5.01,.54,7.54,.75,5.87,.54,11.68,1.08,17.54,1.46l1.88,.1c-3.85,10.89-11.05,20.18-20.43,26.56Zm23.42-41.88l-1.91-.61c-5.6-1.83-11.19-3.4-16.84-5.01-3.66-1.08-7.33-2.04-10.99-2.95,2.75-2.64,5.61-5.23,8.24-7.92,4.15-4.15,8.29-8.29,12.32-12.6l1.44-1.53c4.97,8.15,7.88,17.7,7.88,27.96,0,.9-.1,1.78-.14,2.66Z"/></g></g></svg>