<?xml version="1.0" encoding="UTF-8"?><svg xmlns="http://www.w3.org/2000/svg" viewBox="0 0 307.4 258.92"><defs><style>.d{fill:#5fc4f0;stroke-linejoin:round;}.d,.e,.f,.g,.h{stroke:#393478;}.d,.e,.g{stroke-width:9px;}.e{fill:#f16365;}.e,.f,.g,.h{stroke-miterlimit:10;}.f{stroke-width:2px;}.f,.g,.h{fill:#f76364;}.h{stroke-width:3px;}</style></defs><g id="a"/><g id="b"><g id="c"><g><path class="d" d="M302.9,124.1c0,24.16-18.97,43.9-42.82,45.14-.79,.04-1.58,.06-2.38,.06H49.7c-.67,0-1.33-.01-2-.05-24.03-1.04-43.2-20.86-43.2-45.15s20.24-45.2,45.2-45.2c6.41,0,12.5,1.33,18.02,3.74,4.72-19.92,22.62-34.74,43.98-34.74,7.02,0,13.67,1.6,19.59,4.46,8.79-27.75,34.76-47.86,65.41-47.86,37.88,0,68.59,30.71,68.59,68.6,0,2.16-.1,4.29-.3,6.39,21.5,3.48,37.91,22.12,37.91,44.61Z"/><g><rect class="e" x="90.06" y="134.02" width="140.76" height="32.83" rx="10.03" ry="10.03"/><rect class="g" x="90.06" y="167.6" width="140.76" height="32.83" rx="10.03" ry="10.03"/><path class="g" d="M153.7,233.68h-53.62c-5.51,0-10.02-4.51-10.02-10.02v-12.78c0-5.51,4.51-10.02,10.02-10.02h120.71c5.52,0,10.03,4.51,10.03,10.02v12.78c0,5.51-4.51,10.02-10.03,10.02h-29.59"/><circle class="f" cx="109.8" cy="149.18" r="4.88"/><circle class="f" cx="109.8" cy="184.18" r="4.88"/><circle class="f" cx="109.8" cy="217.18" r="4.88"/><path class="h" d="M192.72,231.18c-.23-1.92-.73-3.77-1.46-5.49l2.44-2.64-1.43-2.47-3.51,.79c-1.15-1.52-2.5-2.87-4.02-4.02l.79-3.51-2.47-1.43-2.64,2.44c-1.72-.73-3.57-1.23-5.49-1.47l-1.07-3.43h-2.86l-1.07,3.43c-1.92,.24-3.77,.74-5.49,1.47l-2.64-2.44-2.47,1.43,.79,3.51c-1.52,1.15-2.87,2.5-4.02,4.02l-3.51-.79-1.43,2.47,2.44,2.64c-.73,1.72-1.23,3.57-1.47,5.49l-3.43,1.07v2.86l3.44,1.07c.23,1.93,.73,3.77,1.46,5.49l-2.44,2.64,1.43,2.48,3.52-.8c1.14,1.52,2.49,2.87,4.01,4.01l-.79,3.52,2.47,1.43,2.65-2.44c1.72,.73,3.56,1.23,5.48,1.46l1.07,3.45h2.86l1.07-3.45c1.92-.23,3.76-.73,5.48-1.46l2.65,2.44,2.47-1.43-.79-3.52c1.52-1.14,2.87-2.49,4.01-4.01l3.52,.8,1.43-2.48-2.44-2.64c.73-1.72,1.23-3.56,1.46-5.49l3.44-1.07v-2.86l-3.44-1.07Zm-20.29,13.08c-5.84,0-10.58-4.74-10.58-10.58s4.74-10.58,10.58-10.58,10.58,4.73,10.58,10.58-4.74,10.58-10.58,10.58Z"/></g></g><circle class="f" cx="172.43" cy="233.68" r="10.29"/></g></g></svg>