<?xml version="1.0" encoding="UTF-8"?><svg xmlns="http://www.w3.org/2000/svg" viewBox="0 0 203.23 195.54"><defs><style>.d{stroke-linecap:round;}.d,.e{stroke:#393478;stroke-miterlimit:10;stroke-width:9px;}.d,.e,.f{fill:#5fc4f0;}.g{fill:#393478;}.h{font-family:Roboto-Regular, Roboto;font-size:10.15px;}.h,.i,.j{fill:#f76364;}.i{font-family:Roboto-Bold, Roboto;font-size:14px;}</style></defs><g id="a"/><g id="b"><g id="c"><g><g><path class="f" d="M12.17,4.5H165.15c4.23,0,7.67,3.44,7.67,7.67V165.15c0,4.23-3.44,7.67-7.67,7.67H12.17c-4.23,0-7.67-3.44-7.67-7.67V12.17c0-4.23,3.44-7.67,7.67-7.67Z"/><path class="g" d="M165.15,9c1.75,0,3.17,1.42,3.17,3.17V165.15c0,1.75-1.42,3.17-3.17,3.17H12.17c-1.75,0-3.17-1.42-3.17-3.17V12.17c0-1.75,1.42-3.17,3.17-3.17H165.15m0-9H12.17C5.45,0,0,5.45,0,12.17V165.15c0,6.72,5.45,12.17,12.17,12.17H165.15c6.72,0,12.17-5.45,12.17-12.17V12.17c0-6.72-5.45-12.17-12.17-12.17h0Z"/></g><line class="e" x1="0" y1="26.47" x2="176.26" y2="26.47"/><path class="j" d="M12.54,13.5c-1.13,0-2.04,.91-2.04,2.04s.91,2.04,2.04,2.04,2.04-.91,2.04-2.04-.91-2.04-2.04-2.04h0Z"/><path class="j" d="M26.07,13.5c-1.13,0-2.04,.91-2.04,2.04s.91,2.04,2.04,2.04,2.04-.91,2.04-2.04-.91-2.04-2.04-2.04h0Z"/><path class="j" d="M39.61,13.5c-1.13,0-2.04,.91-2.04,2.04s.91,2.04,2.04,2.04,2.04-.91,2.04-2.04-.91-2.04-2.04-2.04h0Z"/><text class="h" transform="translate(14.58 55.09)"><tspan x="0" y="0">01010101010</tspan></text><text class="h" transform="translate(14.58 71.82)"><tspan x="0" y="0">10101010101010101010101010</tspan></text><text class="h" transform="translate(14.58 88.55)"><tspan x="0" y="0">0010100010100101</tspan></text><g><circle class="f" cx="129.82" cy="124.94" r="27.67"/><path class="g" d="M129.82,101.76c12.78,0,23.17,10.4,23.17,23.17s-10.4,23.17-23.17,23.17-23.17-10.4-23.17-23.17,10.4-23.17,23.17-23.17m0-9c-17.77,0-32.17,14.41-32.17,32.17s14.41,32.17,32.17,32.17,32.17-14.41,32.17-32.17-14.41-32.17-32.17-32.17h0Z"/></g><line class="d" x1="148.06" y1="148.57" x2="198.73" y2="191.04"/><text class="h" transform="translate(14.58 105.28)"><tspan x="0" y="0">11101010101010</tspan></text><text class="h" transform="translate(14.58 122.02)"><tspan x="0" y="0">1010101010100</tspan></text><text class="h" transform="translate(14.58 138.75)"><tspan x="0" y="0">101010111010</tspan></text><text class="h" transform="translate(14.58 155.48)"><tspan x="0" y="0">11110101010101</tspan></text><text class="i" transform="translate(109.92 122.86)"><tspan x="0" y="0">01010</tspan></text><text class="i" transform="translate(114.15 139.78)"><tspan x="0" y="0">0010</tspan></text></g></g></g></svg>