<?xml version="1.0" encoding="UTF-8"?><svg xmlns="http://www.w3.org/2000/svg" viewBox="0 0 208.47 228.08"><defs><style>.d{fill:#40a1f2;}.d,.e,.f{stroke:#fff;}.d,.f{stroke-miterlimit:10;}.g{letter-spacing:0em;}.h{font-family:Roboto-Black, Roboto;font-size:25.68px;}.h,.i{fill:#fff;}.e{stroke-linejoin:round;stroke-width:9px;}.e,.f{fill:none;}.j{letter-spacing:-.03em;}.f{stroke-linecap:round;stroke-width:4px;}.i{font-family:Roboto-Regular, Roboto;font-size:48.62px;}</style></defs><g id="a"/><g id="b"><g id="c"><polygon class="d" points="203.97 4.5 203.97 200.15 179.15 200.15 179.15 223.58 36.44 223.58 36.44 88.97 4.5 88.97 4.5 43.45 36.44 43.45 36.44 18.03 56.29 18.03 56.29 4.5 203.97 4.5"/><g><polygon class="e" points="179.15 66.41 179.15 223.58 36.44 223.58 36.44 88.97 100.23 88.97 100.23 43.45 36.44 43.45 36.44 18.03 130.77 18.03 179.15 66.41"/><polygon class="e" points="203.97 4.5 203.97 200.15 179.15 200.15 179.15 66.41 130.77 18.03 56.29 18.03 56.29 4.5 203.97 4.5"/><rect class="e" x="4.5" y="43.45" width="95.73" height="45.52"/><text class="h" transform="translate(27.19 74.27)"><tspan class="j" x="0" y="0">L</tspan><tspan class="g" x="13.12" y="0">OG</tspan></text><line class="f" x1="111.94" y1="114.91" x2="165.45" y2="114.91"/><line class="f" x1="111.94" y1="125.39" x2="165.45" y2="125.39"/><line class="f" x1="52.37" y1="135.88" x2="165.45" y2="135.88"/><line class="f" x1="52.37" y1="146.37" x2="165.45" y2="146.37"/><line class="f" x1="52.37" y1="156.85" x2="165.45" y2="156.85"/><line class="f" x1="52.37" y1="167.34" x2="165.45" y2="167.34"/><line class="f" x1="52.37" y1="177.83" x2="165.45" y2="177.83"/><line class="f" x1="52.37" y1="188.31" x2="165.45" y2="188.31"/><line class="f" x1="52.37" y1="198.8" x2="165.45" y2="198.8"/><text class="i" transform="translate(55.44 134.46) scale(.53 1)"><tspan x="0" y="0">&lt;=&gt;</tspan></text></g></g></g></svg>