<?xml version="1.0" encoding="UTF-8"?><svg xmlns="http://www.w3.org/2000/svg" viewBox="0 0 208.47 228.09"><defs><style>.d{stroke-linecap:round;stroke-miterlimit:10;stroke-width:4px;}.d,.e{fill:#5fc4f0;}.d,.e,.f{stroke:#393478;}.g{fill:#393478;font-family:Roboto-Regular, Roboto;font-size:48.62px;}.e,.f{stroke-linejoin:round;stroke-width:9px;}.f{fill:#f76364;}.h{letter-spacing:0em;}.i{fill:#fff;font-family:Roboto-Black, Roboto;font-size:25.68px;}.j{letter-spacing:-.03em;}</style></defs><g id="a"/><g id="b"><g id="c"><g><polygon class="e" points="179.15 66.41 179.15 223.59 36.44 223.59 36.44 88.97 100.23 88.97 100.23 43.45 36.44 43.45 36.44 18.03 130.77 18.03 179.15 66.41"/><polygon class="e" points="203.97 4.5 203.97 200.15 179.15 200.15 179.15 66.41 130.77 18.03 56.29 18.03 56.29 4.5 203.97 4.5"/><rect class="f" x="4.5" y="43.45" width="95.73" height="45.52"/><text class="i" transform="translate(27.19 74.27)"><tspan class="j" x="0" y="0">L</tspan><tspan class="h" x="13.12" y="0">OG</tspan></text><line class="d" x1="111.95" y1="114.91" x2="165.45" y2="114.91"/><line class="d" x1="111.95" y1="125.4" x2="165.45" y2="125.4"/><line class="d" x1="52.37" y1="135.88" x2="165.45" y2="135.88"/><line class="d" x1="52.37" y1="146.37" x2="165.45" y2="146.37"/><line class="d" x1="52.37" y1="156.86" x2="165.45" y2="156.86"/><line class="d" x1="52.37" y1="167.34" x2="165.45" y2="167.34"/><line class="d" x1="52.37" y1="177.83" x2="165.45" y2="177.83"/><line class="d" x1="52.37" y1="188.32" x2="165.45" y2="188.32"/><line class="d" x1="52.37" y1="198.8" x2="165.45" y2="198.8"/><text class="g" transform="translate(55.44 134.46) scale(.53 1)"><tspan x="0" y="0">&lt;=&gt;</tspan></text></g></g></g></svg>