<?xml version="1.0" encoding="UTF-8"?><svg xmlns="http://www.w3.org/2000/svg" viewBox="0 0 291.84 291.84"><defs><style>.d,.e{fill:#fff;}.f{fill:#40a1f2;stroke-miterlimit:10;}.f,.g,.h{stroke:#fff;}.g{stroke-linecap:round;stroke-width:5px;}.g,.h{fill:none;stroke-linejoin:round;}.h{stroke-width:9px;}.e{font-family:Roboto-Black, Roboto;font-size:30px;}</style></defs><g id="a"/><g id="b"><g id="c"><circle class="f" cx="145.92" cy="145.92" r="141.42" transform="translate(-60.44 145.92) rotate(-45)"/><g><circle class="h" cx="145.92" cy="145.92" r="141.42" transform="translate(-60.44 145.92) rotate(-45)"/><rect class="h" x="101.42" y="141.92" width="87.5" height="75" rx="13.85" ry="13.85"/><path class="d" d="M149.22,135.8c2.57-2.07,3.1-5.62,3.48-8.82,0-.43,.22-.9-.12-1.28-.62-.89-1.75-2.1-2.37-3.01-.1-.14-.19-.25-.08-.34l1.04-1.01c13.87-13.51,28.11-26.63,42.95-39.08,5.96-4.98,11.99-9.88,18.29-14.52,2.02-1.49,4.87-1.06,6.36,.97,1.21,1.64,1.15,3.83,0,5.39-4.64,6.3-9.54,12.34-14.52,18.29-12.76,15.22-26.23,29.79-40.09,44-.09,.12-.2,0-.34-.08-.14-.11-.35-.23-.48-.35-.41-.33-1.59-1.28-2.01-1.63-.37-.27-.51-.43-.84-.59-3.48,.3-7.49,.76-9.78,3.55-1,1.35-2.86-.47-1.49-1.49h0Z"/><text class="e" transform="translate(114.92 190.92)"><tspan x="0" y="0">24/7</tspan></text><line class="g" x1="145.92" y1="4.5" x2="145.92" y2="20.92"/><line class="g" x1="145.92" y1="269.5" x2="145.92" y2="285.92"/><line class="g" x1="245.42" y1="45.71" x2="233.81" y2="57.32"/><line class="g" x1="58.03" y1="233.1" x2="46.42" y2="244.71"/><line class="g" x1="286.63" y1="145.21" x2="270.21" y2="145.21"/><line class="g" x1="21.63" y1="145.21" x2="5.21" y2="145.21"/><line class="g" x1="245.42" y1="244.71" x2="233.81" y2="233.1"/><line class="g" x1="58.03" y1="57.32" x2="46.42" y2="45.71"/><line class="g" x1="227.81" y1="259.63" x2="218.26" y2="246.28"/><line class="g" x1="73.58" y1="44.14" x2="64.03" y2="30.79"/><line class="g" x1="205.79" y1="272.55" x2="198.8" y2="257.69"/><line class="g" x1="93.04" y1="32.73" x2="86.05" y2="17.87"/><line class="g" x1="178.54" y1="282.09" x2="174.73" y2="266.11"/><line class="g" x1="117.11" y1="24.31" x2="113.3" y2="8.33"/><line class="g" x1="116.03" y1="282.71" x2="119.52" y2="266.66"/><line class="g" x1="172.32" y1="23.76" x2="175.81" y2="7.71"/><line class="g" x1="90.16" y1="274.4" x2="96.67" y2="259.32"/><line class="g" x1="195.17" y1="31.1" x2="201.68" y2="16.02"/><line class="g" x1="65.21" y1="260.47" x2="74.62" y2="247.02"/><line class="g" x1="217.22" y1="43.4" x2="226.63" y2="29.95"/><line class="g" x1="31.03" y1="226.45" x2="44.44" y2="216.97"/><line class="g" x1="247.4" y1="73.45" x2="260.81" y2="63.97"/><line class="g" x1="17.78" y1="203.35" x2="32.74" y2="196.56"/><line class="g" x1="259.1" y1="93.86" x2="274.06" y2="87.07"/><line class="g" x1="10.37" y1="182.96" x2="26.19" y2="178.55"/><line class="g" x1="265.65" y1="111.87" x2="281.47" y2="107.46"/><line class="g" x1="6.35" y1="163.08" x2="22.64" y2="161"/><line class="g" x1="269.2" y1="129.42" x2="285.49" y2="127.34"/><line class="g" x1="6.76" y1="124.37" x2="23" y2="126.81"/><line class="g" x1="268.84" y1="163.61" x2="285.08" y2="166.04"/><line class="g" x1="12.97" y1="99.13" x2="28.49" y2="104.5"/><line class="g" x1="263.35" y1="185.92" x2="278.87" y2="191.29"/><line class="g" x1="25.27" y1="72.81" x2="39.35" y2="81.26"/><line class="g" x1="252.49" y1="209.16" x2="266.57" y2="217.61"/></g></g></g></svg>