<?xml version="1.0" encoding="UTF-8"?><svg xmlns="http://www.w3.org/2000/svg" viewBox="0 0 219.31 243.24"><defs><style>.d,.e{fill:#40a1f2;}.f{fill:#fff;}.e,.g,.h,.i{stroke-miterlimit:10;}.e,.i{stroke:#fff;}.g,.h{stroke:#40a1f2;}.g,.h,.i{fill:none;stroke-width:9px;}.h{stroke-linecap:round;}</style></defs><g id="a"/><g id="b"><g id="c"><path class="e" d="M154.5,98.7c0,41.42-33.58,75-75,75-21.64,0-41.14-9.16-54.82-23.83-12.52-13.4-20.18-31.39-20.18-51.17C4.5,57.28,38.08,23.7,79.5,23.7c22.73,0,43.1,10.11,56.85,26.09,11.31,13.13,18.15,30.22,18.15,48.91Z"/><g><path class="i" d="M154.5,98.7c0,41.42-33.58,75-75,75-21.64,0-41.14-9.16-54.82-23.83-12.52-13.4-20.18-31.39-20.18-51.17C4.5,57.28,38.08,23.7,79.5,23.7c22.73,0,43.1,10.11,56.85,26.09,11.31,13.13,18.15,30.22,18.15,48.91Z"/><line class="h" x1="121.1" y1="145.03" x2="214.81" y2="238.74"/><g><polyline class="i" points="11.01 181.17 34.42 127.56 64.89 144.71 83.15 102.46 106.11 114.31 151.47 17.54"/><polygon class="f" points="161.99 26.83 159.69 0 137.61 15.4 161.99 26.83"/></g><g><line class="g" x1="132" y1="59.07" x2="151.47" y2="17.54"/><polygon class="d" points="161.99 26.83 159.69 0 137.61 15.4 161.99 26.83"/></g><line class="g" x1="11.01" y1="181.17" x2="29.12" y2="139.7"/></g></g></g></svg>