<?xml version="1.0" encoding="UTF-8"?><svg xmlns="http://www.w3.org/2000/svg" viewBox="0 0 291.84 291.84"><defs><style>.d{fill:#5fc4f0;}.d,.e{stroke:#393478;stroke-linejoin:round;stroke-width:9px;}.f{fill:#f76364;}.e{fill:#40a1f2;stroke-linecap:round;}.g{fill:#fff;font-family:Roboto-Black, Roboto;font-size:30px;}</style></defs><g id="a"/><g id="b"><g id="c"><g><circle class="d" cx="145.92" cy="145.92" r="141.42"/><rect class="f" x="101.42" y="141.92" width="87.5" height="75" rx="13.85" ry="13.85"/><path class="f" d="M149.22,135.81c2.57-2.07,3.1-5.62,3.48-8.82,0-.43,.22-.9-.12-1.28-.62-.89-1.75-2.1-2.37-3.01-.1-.14-.19-.25-.08-.34l1.04-1.01c13.87-13.51,28.11-26.63,42.95-39.08,5.96-4.98,11.99-9.88,18.29-14.52,2.02-1.49,4.87-1.06,6.36,.97,1.21,1.64,1.15,3.83,0,5.39-4.64,6.3-9.54,12.34-14.52,18.29-12.76,15.22-26.23,29.79-40.09,44-.09,.12-.2,0-.34-.08-.14-.11-.35-.23-.48-.35-.41-.33-1.59-1.28-2.01-1.63-.37-.27-.51-.43-.84-.59-3.48,.3-7.49,.76-9.78,3.55-1,1.35-2.86-.47-1.49-1.49h0Z"/><text class="g" transform="translate(114.92 190.92)"><tspan x="0" y="0">24/7</tspan></text><line class="e" x1="142.92" y1="7.5" x2="142.92" y2="23.92"/><line class="e" x1="114.44" y1="11.33" x2="117.85" y2="27.4"/><line class="e" x1="87.37" y1="21.01" x2="94.05" y2="36.01"/><line class="e" x1="62.91" y1="36.1" x2="72.56" y2="49.38"/><line class="e" x1="42.12" y1="55.94" x2="54.32" y2="66.93"/><line class="e" x1="25.91" y1="79.67" x2="40.13" y2="87.89"/><line class="e" x1="14.99" y1="106.26" x2="30.61" y2="111.33"/><line class="e" x1="9.83" y1="134.54" x2="26.17" y2="136.25"/><line class="e" x1="10.67" y1="163.26" x2="27" y2="161.55"/><line class="e" x1="17.46" y1="191.19" x2="33.08" y2="186.12"/><line class="e" x1="29.91" y1="217.1" x2="44.13" y2="208.89"/><line class="e" x1="47.47" y1="239.85" x2="59.68" y2="228.86"/><line class="e" x1="69.38" y1="258.45" x2="79.04" y2="245.16"/><line class="e" x1="94.68" y1="272.09" x2="101.36" y2="257.09"/><line class="e" x1="122.26" y1="280.17" x2="125.68" y2="264.11"/><line class="e" x1="150.92" y1="282.34" x2="150.92" y2="265.92"/><line class="e" x1="179.41" y1="278.51" x2="175.99" y2="262.45"/><line class="e" x1="206.47" y1="268.84" x2="199.79" y2="253.83"/><line class="e" x1="230.93" y1="253.75" x2="221.28" y2="240.46"/><line class="e" x1="251.72" y1="233.9" x2="239.52" y2="222.91"/><line class="e" x1="267.93" y1="210.17" x2="253.71" y2="201.96"/><line class="e" x1="278.85" y1="183.58" x2="263.24" y2="178.51"/><line class="e" x1="284.01" y1="155.31" x2="267.68" y2="153.59"/><line class="e" x1="283.17" y1="126.58" x2="266.84" y2="128.3"/><line class="e" x1="276.38" y1="98.65" x2="260.76" y2="103.73"/><line class="e" x1="263.93" y1="72.75" x2="249.71" y2="80.96"/><line class="e" x1="246.37" y1="50" x2="234.17" y2="60.98"/><line class="e" x1="224.46" y1="31.39" x2="214.81" y2="44.68"/><line class="e" x1="199.16" y1="17.75" x2="192.48" y2="32.76"/><line class="e" x1="171.58" y1="9.67" x2="168.17" y2="25.73"/></g></g></g></svg>