<?xml version="1.0" encoding="UTF-8"?><svg xmlns="http://www.w3.org/2000/svg" viewBox="0 0 291.84 291.84"><defs><style>.d{stroke-linecap:round;stroke-width:5px;}.d,.e{fill:none;stroke:#231f20;stroke-linejoin:round;}.f{font-family:Roboto-Black, Roboto;font-size:30px;}.e{stroke-width:9px;}.g{fill:#231f20;}</style></defs><g id="a"/><g id="b"><g id="c"><g><circle class="e" cx="145.92" cy="145.92" r="141.42"/><rect class="e" x="101.42" y="141.92" width="87.5" height="75" rx="13.85" ry="13.85"/><path class="g" d="M149.22,135.81c.82-.55,1.35-1.38,1.83-2.27,.46-.9,.81-1.92,1.08-3.02,.28-1.09,.46-2.27,.57-3.53,.02-.32,.07-.61,.07-.96,0-.03-.03-.08-.07-.13-.02-.04-.06-.11-.13-.19-.13-.17-.17-.26-.39-.52l-1.09-1.35-.53-.66-.13-.17-.07-.11-.14-.21c-.06-.08-.09-.13-.1-.16-.02-.05-.04-.08-.04-.1,0-.04,.04-.05,.05-.07l1.04-1.01c2.79-2.68,5.54-5.4,8.36-8.05,5.59-5.35,11.3-10.58,17.04-15.78,5.76-5.18,11.61-10.27,17.56-15.26,5.96-4.98,11.99-9.88,18.29-14.52,2.02-1.49,4.87-1.06,6.36,.97,1.21,1.64,1.15,3.83,0,5.39-4.64,6.3-9.54,12.34-14.52,18.29-4.99,5.95-10.08,11.8-15.26,17.56-5.2,5.74-10.43,11.45-15.78,17.04-2.65,2.82-5.36,5.58-8.05,8.36l-1.01,1.04s-.03,.05-.07,.05c-.02,0-.06-.01-.1-.04-.03-.01-.08-.04-.16-.1l-.21-.14-.11-.07-.17-.13-.66-.53-1.35-1.09c-.26-.22-.35-.26-.52-.39-.08-.06-.15-.11-.19-.13-.05-.03-.1-.06-.13-.07-.34,0-.64,.05-.96,.07-1.26,.11-2.44,.3-3.53,.57-1.1,.27-2.12,.62-3.02,1.08-.89,.47-1.72,1.01-2.27,1.83-.33,.49-1,.62-1.49,.29-.49-.33-.62-1-.29-1.49,.08-.12,.18-.22,.29-.29Z"/><text class="f" transform="translate(114.92 190.92)"><tspan x="0" y="0">24/7</tspan></text><line class="d" x1="145.92" y1="4.5" x2="145.92" y2="20.92"/><line class="d" x1="145.92" y1="269.5" x2="145.92" y2="285.92"/><line class="d" x1="245.42" y1="45.71" x2="233.81" y2="57.32"/><line class="d" x1="58.04" y1="233.1" x2="46.42" y2="244.71"/><line class="d" x1="286.63" y1="145.21" x2="270.21" y2="145.21"/><line class="d" x1="21.63" y1="145.21" x2="5.21" y2="145.21"/><line class="d" x1="245.42" y1="244.71" x2="233.81" y2="233.1"/><line class="d" x1="58.04" y1="57.32" x2="46.42" y2="45.71"/><line class="d" x1="227.82" y1="259.63" x2="218.26" y2="246.28"/><line class="d" x1="73.58" y1="44.14" x2="64.03" y2="30.79"/><line class="d" x1="205.79" y1="272.55" x2="198.8" y2="257.69"/><line class="d" x1="93.04" y1="32.73" x2="86.05" y2="17.87"/><line class="d" x1="178.54" y1="282.09" x2="174.74" y2="266.11"/><line class="d" x1="117.11" y1="24.31" x2="113.3" y2="8.33"/><line class="d" x1="116.03" y1="282.71" x2="119.52" y2="266.66"/><line class="d" x1="172.32" y1="23.76" x2="175.81" y2="7.71"/><line class="d" x1="90.16" y1="274.4" x2="96.67" y2="259.32"/><line class="d" x1="195.17" y1="31.1" x2="201.68" y2="16.02"/><line class="d" x1="65.21" y1="260.47" x2="74.63" y2="247.02"/><line class="d" x1="217.22" y1="43.4" x2="226.64" y2="29.95"/><line class="d" x1="31.03" y1="226.45" x2="44.44" y2="216.97"/><line class="d" x1="247.41" y1="73.45" x2="260.81" y2="63.97"/><line class="d" x1="17.78" y1="203.35" x2="32.74" y2="196.56"/><line class="d" x1="259.11" y1="93.86" x2="274.06" y2="87.07"/><line class="d" x1="10.37" y1="182.96" x2="26.19" y2="178.55"/><line class="d" x1="265.65" y1="111.87" x2="281.47" y2="107.46"/><line class="d" x1="6.35" y1="163.08" x2="22.64" y2="161"/><line class="d" x1="269.2" y1="129.42" x2="285.49" y2="127.34"/><line class="d" x1="6.76" y1="124.38" x2="23" y2="126.81"/><line class="d" x1="268.84" y1="163.61" x2="285.08" y2="166.05"/><line class="d" x1="12.97" y1="99.13" x2="28.49" y2="104.5"/><line class="d" x1="263.36" y1="185.92" x2="278.87" y2="191.29"/><line class="d" x1="25.27" y1="72.81" x2="39.35" y2="81.26"/><line class="d" x1="252.49" y1="209.16" x2="266.58" y2="217.61"/></g></g></g></svg>