<?xml version="1.0" encoding="UTF-8"?><svg xmlns="http://www.w3.org/2000/svg" viewBox="0 0 214.81 227.47"><defs><style>.d{stroke:#393478;stroke-linecap:round;}.d,.e{stroke-miterlimit:10;stroke-width:9px;}.d,.f{fill:#5fc4f0;}.g{fill:#393478;}.h{fill:#f76364;}.e{fill:none;stroke:#f76364;}</style></defs><g id="a"/><g id="b"><g id="c"><g><g><circle class="f" cx="75" cy="87.93" r="70.5"/><path class="g" d="M75,21.93c36.39,0,66,29.61,66,66s-29.61,66-66,66S9,124.32,9,87.93,38.61,21.93,75,21.93m0-9C33.58,12.93,0,46.5,0,87.93s33.58,75,75,75,75-33.58,75-75S116.42,12.93,75,12.93h0Z"/></g><line class="d" x1="127.5" y1="140.16" x2="210.31" y2="222.97"/></g><g><polyline class="e" points="10.87 161.26 34.46 111.63 55.11 121.45 76.04 77.43 98.38 88.05 133.32 14.56"/><polygon class="h" points="139.09 25.7 131.88 17.57 121.03 17.11 140.24 0 139.09 25.7"/></g></g></g></svg>