<?xml version="1.0" encoding="UTF-8"?><svg xmlns="http://www.w3.org/2000/svg" viewBox="0 0 142.81 280.12"><defs><style>.d{fill:none;stroke-linecap:round;}.d,.e{stroke:#393578;stroke-miterlimit:10;stroke-width:9px;}.f{fill:#393478;}.e{fill:#f76364;}.g{fill:#5fc4f0;}</style></defs><g id="a"/><g id="b"><g id="c"><circle class="e" cx="63.42" cy="63.42" r="58.92"/><path class="g" d="M142.81,165.9v55.82c0,10.52-4.36,20.78-11.96,28.15-5.15,4.99-5.07,7.11-5.07,7.13v17.53c.01,2.79-2.27,5.08-5.06,5.11l-56.45,.48h-.05c-1.35,0-2.62-.52-3.58-1.47-.98-.97-1.52-2.25-1.53-3.62-.06-10.61-1.14-12.38-16.54-26.95l-.62-.58c-8.32-7.86-10.44-10.45-14.47-29.88-.99-4.77-1.49-9.67-1.49-14.56v-38.43c0-4.74-.02-10.12,3.37-13.51,1.21-1.21,3.39-2.66,6.9-2.66,4.16,0,8.04,1.25,11.27,3.41V84.29c0-10.4,6.87-18.86,15.32-18.86s15.32,8.46,15.32,18.86v47.52c1.9-.86,4.01-1.33,6.23-1.33,7.39,0,13.58,5.26,15.01,12.23,1.98-.93,4.2-1.46,6.53-1.46,6.94,0,12.81,4.63,14.69,10.96,2.07-1.03,4.4-1.62,6.86-1.62,8.45,0,15.32,6.87,15.32,15.31Z"/><path class="f" d="M78.17,84.29v70.34c0,.31-.03,.62-.09,.91-.42,2.05-2.24,3.59-4.41,3.59-2.49,0-4.5-2.01-4.5-4.5V84.29c0-5.25-2.95-9.86-6.32-9.86s-6.32,4.61-6.32,9.86v109.61c0,2.49-2.01,4.5-4.5,4.5s-4.5-2.01-4.5-4.5V84.29c0-10.4,6.87-18.86,15.32-18.86s15.32,8.46,15.32,18.86Z"/><path class="f" d="M99.72,145.79v26.59c0,.32-.03,.64-.1,.95-.44,2.03-2.24,3.55-4.4,3.55-2.49,0-4.5-2.01-4.5-4.5v-26.59c0-3.48-2.84-6.31-6.32-6.31-3.14,0-5.75,2.29-6.23,5.29-.06,.33-.09,.67-.09,1.02v18.52c0,2.49-2.02,4.5-4.5,4.5s-4.5-2.01-4.5-4.5v-18.52c0-.55,.03-1.1,.09-1.64,.59-5.52,4.12-10.17,9-12.34,1.9-.86,4.01-1.33,6.23-1.33,7.39,0,13.58,5.26,15.01,12.23h0c.2,1,.31,2.03,.31,3.08Z"/><path class="f" d="M142.81,165.9v55.82c0,10.52-4.36,20.78-11.96,28.15-5.15,4.99-5.07,7.11-5.07,7.13v17.53c.01,2.79-2.27,5.08-5.06,5.11l-56.45,.48h-.05c-1.35,0-2.62-.52-3.58-1.47-.98-.97-1.52-2.25-1.53-3.62-.06-10.61-1.14-12.38-16.54-26.95l-.62-.58c-8.32-7.86-10.44-10.45-14.47-29.88-.99-4.77-1.49-9.67-1.49-14.56v-38.43c0-4.74-.02-10.12,3.37-13.51,1.21-1.21,3.39-2.66,6.9-2.66,4.16,0,8.04,1.25,11.27,3.41,5,3.34,8.45,8.83,9,15.13,.06,.6,.09,1.21,.09,1.82v14.89c0,.31-.03,.61-.09,.91-.42,2.04-2.23,3.59-4.41,3.59-2.48,0-4.5-2.02-4.5-4.5v-14.89c0-.47-.03-.94-.09-1.4-.69-5.6-5.47-9.96-11.27-9.96-.44,0-.6,.07-.61,.07-.67,.78-.67,4.89-.66,7.09v38.44c0,4.27,.43,8.56,1.3,12.73,3.61,17.4,4.87,18.59,11.84,25.17l.62,.59c14.11,13.35,18.47,17.92,19.23,29.54l48.81-.42v-13.26c-.2-4.15,2.36-8.73,7.79-14,5.87-5.69,9.23-13.6,9.23-21.69v-55.82c0-3.48-2.84-6.31-6.32-6.31-3.13,0-5.74,2.29-6.23,5.29-.06,.33-.09,.67-.09,1.02v18.53c0,2.48-2.01,4.5-4.5,4.5s-4.5-2.02-4.5-4.5v-18.53c0-.55,.03-1.1,.09-1.64,.56-5.28,3.82-9.76,8.37-12.05,2.07-1.03,4.4-1.62,6.86-1.62,8.45,0,15.32,6.87,15.32,15.31Z"/><path class="f" d="M121.26,156.57v26.59c0,.31-.03,.61-.09,.9-.42,2.05-2.23,3.6-4.41,3.6-2.48,0-4.5-2.02-4.5-4.5v-26.59c0-3.49-2.83-6.32-6.32-6.32-3.11,0-5.71,2.26-6.22,5.23-.07,.35-.1,.72-.1,1.09v18.52c0,2.48-2.01,4.5-4.5,4.5s-4.5-2.02-4.5-4.5v-18.52c0-.58,.03-1.15,.1-1.72,.6-5.37,3.99-9.91,8.69-12.13h0c1.98-.94,4.2-1.47,6.53-1.47,6.94,0,12.81,4.63,14.69,10.96,.41,1.38,.63,2.84,.63,4.36Z"/><path class="d" d="M27.26,63.42c0-19.97,16.19-36.16,36.16-36.16s36.16,16.19,36.16,36.16"/></g></g></svg>