<svg id="Layer_1" data-name="Layer 1" xmlns="http://www.w3.org/2000/svg" viewBox="0 0 104.42 203.61"><defs><style>.cls-1{fill:#f76364;}.cls-1,.cls-4{stroke:#393578;stroke-miterlimit:10;stroke-width:9px;}.cls-2{fill:#5fc4f0;}.cls-3{fill:#393478;}.cls-4{fill:none;stroke-linecap:round;}</style></defs><g id="b"><g id="c"><circle class="cls-1" cx="47.06" cy="47.06" r="42.56"/><path class="cls-2" d="M106.57,125.54v40.32a28.52,28.52,0,0,1-8.64,20.34c-3.72,3.6-3.67,5.13-3.67,5.15V204a3.69,3.69,0,0,1-3.65,3.69l-40.78.35h0A3.66,3.66,0,0,1,47.21,207a3.7,3.7,0,0,1-1.11-2.62c0-7.66-.82-8.94-12-19.47l-.45-.41c-6-5.68-7.54-7.55-10.45-21.59a52.31,52.31,0,0,1-1.08-10.52V124.62c0-3.42,0-7.31,2.44-9.76a6.82,6.82,0,0,1,5-1.92,14.63,14.63,0,0,1,8.15,2.46V66.58c0-7.51,5-13.62,11.06-13.62s11.07,6.11,11.07,13.62v34.33a10.91,10.91,0,0,1,4.5-1,11.08,11.08,0,0,1,10.84,8.84,11.06,11.06,0,0,1,15.33,6.86,11.08,11.08,0,0,1,16,9.89Z" transform="translate(-2.15 -4.44)"/><path class="cls-3" d="M59.87,66.58V117.4a2.81,2.81,0,0,1-.07.65,3.25,3.25,0,0,1-6.43-.65V66.58c0-3.79-2.13-7.12-4.57-7.12s-4.56,3.33-4.56,7.12v79.19a3.25,3.25,0,0,1-6.5,0V66.58c0-7.51,5-13.62,11.06-13.62S59.87,59.07,59.87,66.58Z" transform="translate(-2.15 -4.44)"/><path class="cls-3" d="M75.44,111v19.21a3.25,3.25,0,0,1-6.5,0V111a4.57,4.57,0,0,0-9.07-.74,4.53,4.53,0,0,0-.07.74v13.38a3.25,3.25,0,0,1-6.5,0V111a9.23,9.23,0,0,1,.07-1.18,11,11,0,0,1,6.5-8.92,10.91,10.91,0,0,1,4.5-1,11.08,11.08,0,0,1,10.84,8.84h0A10.86,10.86,0,0,1,75.44,111Z" transform="translate(-2.15 -4.44)"/><path class="cls-3" d="M106.57,125.54v40.32a28.52,28.52,0,0,1-8.64,20.34c-3.72,3.6-3.67,5.13-3.67,5.15V204a3.69,3.69,0,0,1-3.65,3.69l-40.78.35h0A3.66,3.66,0,0,1,47.21,207a3.7,3.7,0,0,1-1.11-2.62c0-7.66-.82-8.94-12-19.47l-.45-.41c-6-5.68-7.54-7.55-10.45-21.59a52.31,52.31,0,0,1-1.08-10.52V124.62c0-3.42,0-7.31,2.44-9.76a6.82,6.82,0,0,1,5-1.92,14.7,14.7,0,0,1,14.65,13.39q.06.66.06,1.32V138.4a3.6,3.6,0,0,1-.06.66,3.25,3.25,0,0,1-6.44-.66V127.65a8.43,8.43,0,0,0-.06-1,8.22,8.22,0,0,0-8.15-7.2,1.45,1.45,0,0,0-.44,0c-.48.57-.48,3.53-.47,5.12v27.77a45,45,0,0,0,.94,9.2c2.6,12.57,3.51,13.43,8.55,18.18l.45.43c10.19,9.64,13.34,12.94,13.89,21.34l35.26-.31v-9.58c-.15-3,1.7-6.3,5.63-10.11a22,22,0,0,0,6.66-15.67V125.54A4.56,4.56,0,0,0,91,124.8a3.64,3.64,0,0,0-.07.74v13.38a3.25,3.25,0,0,1-6.5,0V125.54a9.39,9.39,0,0,1,.07-1.19,11.07,11.07,0,0,1,22.07,1.19Z" transform="translate(-2.15 -4.44)"/><path class="cls-3" d="M91,118.8V138a2.81,2.81,0,0,1-.07.65A3.25,3.25,0,0,1,84.5,138V118.8a4.56,4.56,0,0,0-9.06-.79,4.07,4.07,0,0,0-.07.79v13.38a3.26,3.26,0,0,1-6.51,0V118.8a10.19,10.19,0,0,1,.08-1.24,11.09,11.09,0,0,1,6.27-8.77h0A11.07,11.07,0,0,1,91,118.8Z" transform="translate(-2.15 -4.44)"/><path class="cls-4" d="M23.09,51.51a26.13,26.13,0,1,1,52.25,0" transform="translate(-2.15 -4.44)"/></g></g></svg>