<?xml version="1.0" encoding="UTF-8"?><svg xmlns="http://www.w3.org/2000/svg" viewBox="0 0 259 206.47"><defs><style>.d{stroke-width:4px;}.d,.e{fill:none;stroke:#000;stroke-miterlimit:10;}.f{font-family:Roboto-Black, Roboto;font-size:30px;}.e{stroke-width:9px;}</style></defs><g id="a"/><g id="b"><g id="c"><g><path class="e" d="M254.5,103.88c0,3.46-1.4,6.58-3.66,8.84-2.26,2.26-5.39,3.66-8.84,3.66H17c-6.9,0-12.5-5.59-12.5-12.5,0-3.45,1.4-6.58,3.66-8.84,2.26-2.26,5.39-3.66,8.84-3.66H242c6.9,0,12.5,5.6,12.5,12.5Z"/><path class="e" d="M230.89,120.64v54.08c0,15.05-12.21,27.25-27.26,27.25H55.37c-15.05,0-27.25-12.2-27.25-27.25v-54.08c0-1.45,.11-2.87,.33-4.26H230.56c.22,1.39,.33,2.81,.33,4.26Z"/><path class="e" d="M157.5,72.59v18.79h-56v-18.79c0-15.4,12.6-28,28-28,7.7,0,14.7,3.15,19.78,8.23,5.07,5.07,8.22,12.07,8.22,19.77Z"/><circle class="e" cx="129.5" cy="19.05" r="14.55"/><path class="e" d="M204.15,88.38c0,1.04-.13,2.04-.36,3h-24.28c-.23-.96-.36-1.96-.36-3,0-6.9,5.6-12.5,12.5-12.5s12.5,5.6,12.5,12.5Z"/><g><path class="d" d="M91.15,160.89c3.32-18.03,19.01-31.68,37.85-31.68s34.53,13.65,37.85,31.68"/><polygon points="96.04 158.03 91.42 159.44 87.21 157.09 90.5 168.03 96.04 158.03"/><polygon points="161.96 158.03 166.58 159.44 170.79 157.09 167.5 168.03 161.96 158.03"/></g><text class="f" transform="translate(112.02 163.63)"><tspan x="0" y="0">24</tspan></text></g></g></g></svg>