<?xml version="1.0" encoding="UTF-8"?><svg xmlns="http://www.w3.org/2000/svg" viewBox="0 0 259 206.47"><defs><style>.d,.e{fill:#fff;}.f{fill:#40a1f2;}.f,.g,.h{stroke:#fff;stroke-miterlimit:10;}.g{stroke-width:9px;}.g,.h{fill:none;}.e{font-family:Roboto-Black, Roboto;font-size:30px;}.h{stroke-width:4px;}</style></defs><g id="a"/><g id="b"><g id="c"><path class="f" d="M114.95,19.05c0-8.03,6.51-14.55,14.55-14.55s14.55,6.52,14.55,14.55-6.51,14.56-14.55,14.56-14.55-6.52-14.55-14.56Z"/><path class="f" d="M254.5,103.88c0,3.46-1.4,6.58-3.66,8.84-2.26,2.26-5.39,3.66-8.84,3.66h-11.44c.22,1.39,.33,2.81,.33,4.26v54.08c0,15.05-12.21,27.25-27.26,27.25H55.37c-15.05,0-27.25-12.2-27.25-27.25v-54.08c0-1.45,.11-2.87,.33-4.26h-11.45c-6.9,0-12.5-5.59-12.5-12.5,0-3.45,1.4-6.58,3.66-8.84,2.26-2.26,5.39-3.66,8.84-3.66H101.5v-18.79c0-15.4,12.6-28,28-28,7.7,0,14.7,3.15,19.78,8.23,5.07,5.07,8.22,12.07,8.22,19.77v18.79h22.01c-.23-.96-.36-1.96-.36-3,0-6.9,5.6-12.5,12.5-12.5s12.5,5.6,12.5,12.5c0,1.04-.13,2.04-.36,3h38.21c6.9,0,12.5,5.6,12.5,12.5Z"/><g><path class="g" d="M254.5,103.88c0,3.46-1.4,6.58-3.66,8.84-2.26,2.26-5.39,3.66-8.84,3.66H17c-6.9,0-12.5-5.59-12.5-12.5,0-3.45,1.4-6.58,3.66-8.84,2.26-2.26,5.39-3.66,8.84-3.66H242c6.9,0,12.5,5.6,12.5,12.5Z"/><path class="g" d="M230.89,120.64v54.08c0,15.05-12.21,27.25-27.26,27.25H55.37c-15.05,0-27.25-12.2-27.25-27.25v-54.08c0-1.45,.11-2.87,.33-4.26H230.56c.22,1.39,.33,2.81,.33,4.26Z"/><path class="g" d="M157.5,72.59v18.79h-56v-18.79c0-15.4,12.6-28,28-28,7.7,0,14.7,3.15,19.78,8.23,5.07,5.07,8.22,12.07,8.22,19.77Z"/><path class="g" d="M144.05,19.05c0,8.04-6.51,14.56-14.55,14.56s-14.55-6.52-14.55-14.56,6.51-14.55,14.55-14.55,14.55,6.52,14.55,14.55Z"/><path class="g" d="M204.15,88.38c0,1.04-.13,2.04-.36,3h-24.28c-.23-.96-.36-1.96-.36-3,0-6.9,5.6-12.5,12.5-12.5s12.5,5.6,12.5,12.5Z"/><g><path class="h" d="M91.15,160.89c3.32-18.03,19.01-31.68,37.85-31.68s34.53,13.65,37.85,31.68"/><polygon class="d" points="96.04 158.04 91.42 159.44 87.21 157.09 90.5 168.03 96.04 158.04"/><polygon class="d" points="161.96 158.04 166.58 159.44 170.79 157.09 167.5 168.03 161.96 158.04"/></g><text class="e" transform="translate(112.02 163.63)"><tspan x="0" y="0">24</tspan></text></g></g></g></svg>