<?xml version="1.0" encoding="UTF-8"?><svg xmlns="http://www.w3.org/2000/svg" viewBox="0 0 221.09 234"><defs><style>.d{fill:#5fc4f0;}.d,.e,.f{stroke:#393478;}.d,.e,.f,.g{stroke-miterlimit:10;}.d,.f{stroke-width:4px;}.e,.g{fill:none;stroke-linecap:round;stroke-width:9px;}.f{fill:#f76364;}.g{stroke:#f76364;}</style></defs><g id="a"/><g id="b"><g id="c"><line class="g" x1="74.99" y1="117" x2="61.12" y2="117"/><path class="f" d="M159.09,120.02v-4.05l-4.87-1.51c-.33-2.72-1.04-5.33-2.08-7.77l3.45-3.74-2.02-3.5-4.97,1.12c-1.62-2.15-3.54-4.06-5.69-5.69l1.12-4.97-3.5-2.02-3.74,3.45c-2.44-1.04-5.05-1.75-7.77-2.08l-1.51-4.86h-4.05l-1.51,4.86c-2.73,.33-5.34,1.04-7.77,2.08l-3.74-3.45-3.5,2.02,1.12,4.97c-2.15,1.62-4.06,3.54-5.69,5.69l-4.97-1.12-2.02,3.5,3.45,3.74c-1.04,2.44-1.75,5.04-2.08,7.77l-4.87,1.51v4.05l4.87,1.52c.33,2.72,1.04,5.33,2.08,7.77l-3.46,3.74,2.02,3.5,4.98-1.13c1.62,2.15,3.53,4.06,5.68,5.68l-1.13,4.98,3.5,2.02,3.75-3.46c2.43,1.03,5.04,1.74,7.76,2.07l1.52,4.88h4.05l1.52-4.88c2.72-.33,5.33-1.04,7.76-2.07l3.75,3.46,3.5-2.02-1.13-4.98c2.15-1.62,4.06-3.53,5.68-5.68l4.98,1.13,2.02-3.5-3.46-3.74c1.03-2.44,1.74-5.04,2.08-7.77l4.87-1.52Zm-33.6,12.95c-8.27,0-14.98-6.71-14.98-14.98s6.71-14.98,14.98-14.98,14.98,6.71,14.98,14.98-6.71,14.98-14.98,14.98Z"/><path class="d" d="M219.09,54.52v-4.05l-4.87-1.51c-.33-2.72-1.04-5.33-2.08-7.77l3.45-3.74-2.02-3.5-4.97,1.12c-1.62-2.15-3.54-4.06-5.69-5.69l1.12-4.97-3.5-2.02-3.74,3.45c-2.44-1.04-5.05-1.75-7.77-2.08l-1.51-4.86h-4.05l-1.51,4.86c-2.73,.33-5.34,1.04-7.77,2.08l-3.74-3.45-3.5,2.02,1.12,4.97c-2.15,1.62-4.06,3.54-5.69,5.69l-4.97-1.12-2.02,3.5,3.45,3.74c-1.04,2.44-1.75,5.04-2.08,7.77l-4.87,1.51v4.05l4.87,1.52c.33,2.72,1.04,5.33,2.08,7.77l-3.46,3.74,2.02,3.5,4.98-1.13c1.62,2.15,3.53,4.06,5.68,5.68l-1.13,4.98,3.5,2.02,3.75-3.46c2.43,1.03,5.04,1.74,7.76,2.07l1.52,4.88h4.05l1.52-4.88c2.72-.33,5.33-1.04,7.76-2.07l3.75,3.46,3.5-2.02-1.13-4.98c2.15-1.62,4.06-3.53,5.68-5.68l4.98,1.13,2.02-3.5-3.46-3.74c1.03-2.44,1.74-5.04,2.08-7.77l4.87-1.52Zm-33.6,12.95c-8.27,0-14.98-6.71-14.98-14.98s6.71-14.98,14.98-14.98,14.98,6.71,14.98,14.98-6.71,14.98-14.98,14.98Z"/><path class="d" d="M219.09,185.52v-4.05l-4.87-1.51c-.33-2.72-1.04-5.33-2.08-7.77l3.45-3.74-2.02-3.5-4.97,1.12c-1.62-2.15-3.54-4.06-5.69-5.69l1.12-4.97-3.5-2.02-3.74,3.45c-2.44-1.04-5.05-1.75-7.77-2.08l-1.51-4.86h-4.05l-1.51,4.86c-2.73,.33-5.34,1.04-7.77,2.08l-3.74-3.45-3.5,2.02,1.12,4.97c-2.15,1.62-4.06,3.54-5.69,5.69l-4.97-1.12-2.02,3.5,3.45,3.74c-1.04,2.44-1.75,5.04-2.08,7.77l-4.87,1.51v4.05l4.87,1.52c.33,2.72,1.04,5.33,2.08,7.77l-3.46,3.74,2.02,3.5,4.98-1.13c1.62,2.15,3.53,4.06,5.68,5.68l-1.13,4.98,3.5,2.02,3.75-3.46c2.43,1.03,5.04,1.74,7.76,2.07l1.52,4.88h4.05l1.52-4.88c2.72-.33,5.33-1.04,7.76-2.07l3.75,3.46,3.5-2.02-1.13-4.98c2.15-1.62,4.06-3.53,5.68-5.68l4.98,1.13,2.02-3.5-3.46-3.74c1.03-2.44,1.74-5.04,2.08-7.77l4.87-1.52Zm-33.6,12.95c-8.27,0-14.98-6.71-14.98-14.98s6.71-14.98,14.98-14.98,14.98,6.71,14.98,14.98-6.71,14.98-14.98,14.98Z"/><path class="e" d="M187.49,229.5c-62.13,0-112.5-50.37-112.5-112.5S125.36,4.5,187.49,4.5"/><line class="e" x1="201.9" y1="229.5" x2="41.99" y2="229.5"/><line class="e" x1="201.9" y1="4.5" x2="41.99" y2="4.5"/><g><line class="e" x1="97.47" y1="45" x2="74.99" y2="45"/><line class="e" x1="62.49" y1="34.53" x2="74.99" y2="45"/></g><g><line class="e" x1="100.47" y1="190.53" x2="77.99" y2="190.53"/><line class="e" x1="65.49" y1="201" x2="77.99" y2="190.53"/></g><g><line class="e" x1="85.01" y1="70.53" x2="33.38" y2="70.53"/><line class="e" x1="20.87" y1="89.94" x2="33.38" y2="70.53"/></g><g><line class="e" x1="85.01" y1="163.94" x2="33.38" y2="163.94"/><line class="e" x1="20.87" y1="144.53" x2="33.38" y2="163.94"/></g><circle class="e" cx="54.72" cy="27.43" r="10.21"/><circle class="e" cx="14.71" cy="99.49" r="10.21"/><circle class="e" cx="14.71" cy="134.98" r="10.21"/><circle class="e" cx="55.96" cy="208.98" r="10.21"/><circle class="g" cx="48.99" cy="116.6" r="10.21"/></g></g></svg>