<?xml version="1.0" encoding="UTF-8"?><svg xmlns="http://www.w3.org/2000/svg" viewBox="0 0 177.11 192.96"><defs><style>.d,.e,.f,.g{fill:none;stroke-miterlimit:10;stroke-width:3px;}.d,.e,.g{stroke:#393478;}.d,.f{stroke-linecap:round;}.e{stroke-dasharray:0 0 4.97 4.97;}.f{stroke:#f76364;}.h{fill:#393478;}.i{fill:#f76364;}.j{fill:#5fc4f0;}</style></defs><g id="a"/><g id="b"><g id="c"><path class="j" d="M177.11,8.71V115.76c0,4.81-3.91,8.71-8.71,8.71h-57.26c-.05,.09-.11,.17-.18,.25-4.26,5.31-6.51,11.71-6.51,18.52,0,6.41,1.99,12.46,5.77,17.57h21.28c8.87,0,16.08,7.21,16.08,16.08s-7.21,16.07-16.08,16.07H45.61c-8.87,0-16.08-7.21-16.08-16.07s7.21-16.08,16.08-16.08h21.64c3.74-5.07,5.78-11.25,5.78-17.57,0-6.84-2.39-13.5-6.72-18.77H8.71c-4.8,0-8.71-3.9-8.71-8.71V8.71C0,3.91,3.91,0,8.71,0H168.4c4.8,0,8.71,3.91,8.71,8.71Z"/><g><path class="h" d="M168.4,0H8.71C3.91,0,0,3.91,0,8.71V115.76c0,4.81,3.91,8.71,8.71,8.71H168.4c4.8,0,8.71-3.9,8.71-8.71V8.71c0-4.8-3.91-8.71-8.71-8.71Zm-.29,115.47H9V9H168.11V115.47Z"/><rect class="h" x="4.5" y="17.62" width="168.11" height="9"/><rect class="h" x="4.5" y="99.91" width="168.11" height="9"/><path class="h" d="M131.5,160.81H45.61c-8.87,0-16.08,7.21-16.08,16.08s7.21,16.07,16.08,16.07h85.89c8.87,0,16.08-7.21,16.08-16.07s-7.21-16.08-16.08-16.08Zm0,23.15H45.61c-3.9,0-7.08-3.17-7.08-7.07s3.18-7.08,7.08-7.08h85.89c3.9,0,7.08,3.18,7.08,7.08s-3.18,7.07-7.08,7.07Z"/><g><path class="h" d="M110.96,161.77c1.56,1.93,1.25,4.76-.68,6.32-.83,.67-1.83,.99-2.82,.99-1.32,0-2.62-.57-3.51-1.68-1.65-2.05-3.08-4.26-4.26-6.59-2.76-5.41-4.24-11.44-4.24-17.57,0-6.58,1.71-13.06,4.88-18.77,1.05-1.89,2.26-3.69,3.62-5.38,1.56-1.94,4.39-2.25,6.33-.69,1.85,1.48,2.21,4.15,.86,6.07-.05,.09-.11,.17-.18,.25-4.26,5.31-6.51,11.71-6.51,18.52,0,6.41,1.99,12.46,5.77,17.57,.24,.32,.49,.64,.74,.96Z"/><path class="h" d="M82.03,143.24c0,6.13-1.47,12.16-4.23,17.57-1.29,2.53-2.86,4.92-4.69,7.12-.89,1.07-2.17,1.62-3.46,1.62-1.01,0-2.03-.34-2.88-1.04-1.91-1.59-2.17-4.43-.58-6.34,.37-.44,.72-.9,1.06-1.36,3.74-5.07,5.78-11.25,5.78-17.57,0-6.84-2.39-13.5-6.72-18.77-.04-.05-.08-.1-.12-.15-1.59-1.91-1.33-4.75,.58-6.34,1.91-1.59,4.75-1.33,6.34,.58,1.54,1.85,2.89,3.83,4.04,5.91,3.18,5.71,4.88,12.18,4.88,18.77Z"/></g></g><rect class="d" x="106.97" y="38.43" width="49.69" height="25.81"/><line class="d" x1="106.97" y1="74.48" x2="156.66" y2="74.48"/><g><line class="g" x1="106.97" y1="84.01" x2="109.47" y2="84.01"/><line class="e" x1="114.43" y1="84.01" x2="151.67" y2="84.01"/><line class="g" x1="154.16" y1="84.01" x2="156.66" y2="84.01"/></g><path class="d" d="M54.78,35.1c-12.28,0-22.24,9.95-22.24,22.23,0,6.55,2.84,12.44,7.35,16.52,3.94,3.55,9.16,5.72,14.89,5.72,12.28,0,22.23-9.96,22.23-22.24s-9.95-22.23-22.23-22.23Zm0,33.14c-2.61,0-4.99-.91-6.86-2.42-2.47-2-4.05-5.06-4.05-8.49,0-6.02,4.88-10.9,10.91-10.9s10.9,4.88,10.9,10.9-4.88,10.91-10.9,10.91Z"/><path class="d" d="M65.68,57.33c0,6.03-4.88,10.91-10.9,10.91-2.61,0-4.99-.91-6.86-2.42-2.47-2-4.05-5.06-4.05-8.49,0-6.02,4.88-10.9,10.91-10.9s10.9,4.88,10.9,10.9Z"/><g><line class="f" x1="42.84" y1="70.9" x2="22" y2="91.74"/><polygon class="i" points="29.02 69 40.22 73.52 44.73 84.72 55.5 58.24 29.02 69"/></g></g></g></svg>