<?xml version="1.0" encoding="iso-8859-1"?>
<!-- Generator: Adobe Illustrator 19.0.0, SVG Export Plug-In . SVG Version: 6.00 Build 0)  -->
<svg xmlns="http://www.w3.org/2000/svg" xmlns:xlink="http://www.w3.org/1999/xlink" version="1.1" id="Layer_1" x="0px" y="0px" viewBox="0 0 511.969 511.969" style="enable-background:new 0 0 511.969 511.969;" xml:space="preserve" width="512" height="512">
<g>
	<g>
		<path style="fill:#FFC850;" d="M401.852,209.419c0-80.828-65.874-146.271-146.864-145.57    C174.87,64.543,110.7,129.3,110.701,209.421c0.001,54.044,29.455,101.2,73.183,126.314c3.022,1.735,4.898,4.937,4.898,8.422    v47.939H323.77v-47.968c0-3.473,1.878-6.659,4.89-8.388C372.393,310.627,401.852,263.467,401.852,209.419z"/>
		<path style="fill:#F9B428;" d="M203.884,335.735c-43.728-25.114-73.183-72.271-73.183-126.314    C130.7,132.21,190.296,69.277,266.327,64.186c-3.743-0.255-7.524-0.37-11.34-0.336C174.87,64.543,110.7,129.3,110.701,209.421    c0,54.044,29.455,101.2,73.183,126.314c3.021,1.735,4.898,4.937,4.898,8.422v47.939h20v-47.939    C208.783,340.673,206.906,337.471,203.884,335.735z"/>
		<path style="fill:#E4EAF8;" d="M349.036,195.07h-17.219c-0.423,0-0.784-0.3-0.867-0.715c-1.976-9.846-5.846-19.007-11.221-27.082    c-0.234-0.353-0.191-0.818,0.109-1.118l12.178-12.178c2.156-2.156,2.156-5.65,0-7.806l-12.49-12.49    c-2.156-2.156-5.65-2.156-7.806,0l-12.178,12.178c-0.299,0.299-0.765,0.343-1.117,0.108c-8.075-5.375-17.236-9.245-27.082-11.221    c-0.415-0.083-0.715-0.444-0.715-0.867v-17.219c0-3.048-2.471-5.52-5.52-5.52h-17.664c-3.048,0-5.52,2.471-5.52,5.52v17.219    c0,0.423-0.3,0.783-0.715,0.867c-9.846,1.976-19.006,5.846-27.081,11.221c-0.353,0.235-0.818,0.191-1.118-0.108l-12.178-12.178    c-2.156-2.156-5.65-2.156-7.806,0l-12.49,12.49c-2.156,2.156-2.156,5.65,0,7.806l12.178,12.178c0.299,0.3,0.343,0.765,0.109,1.118    c-5.375,8.075-9.245,17.236-11.221,27.082c-0.083,0.415-0.444,0.715-0.867,0.715h-17.219c-3.048,0-5.52,2.471-5.52,5.52v17.663    c0,3.048,2.471,5.52,5.52,5.52h17.219c0.423,0,0.784,0.3,0.867,0.715c1.976,9.846,5.846,19.007,11.221,27.082    c0.234,0.353,0.191,0.818-0.109,1.118l-12.178,12.178c-2.156,2.156-2.156,5.65,0,7.806l12.49,12.49    c2.155,2.156,5.65,2.156,7.806,0l12.178-12.178c0.299-0.3,0.765-0.343,1.118-0.109c8.075,5.375,17.235,9.245,27.081,11.22    c0.415,0.083,0.715,0.444,0.715,0.867v17.219c0,3.048,2.471,5.52,5.52,5.52h17.663c3.048,0,5.52-2.471,5.52-5.52v-17.219    c0-0.423,0.3-0.783,0.715-0.867c9.846-1.976,19.006-5.846,27.082-11.22c0.352-0.235,0.818-0.191,1.117,0.109l12.178,12.177    c2.156,2.156,5.651,2.156,7.806,0l12.49-12.49c2.156-2.156,2.156-5.651,0-7.806l-12.178-12.178    c-0.299-0.299-0.343-0.765-0.109-1.118c5.375-8.075,9.245-17.235,11.221-27.082c0.083-0.415,0.444-0.715,0.867-0.715h17.219    c3.048,0,5.52-2.471,5.52-5.52V200.59C354.555,197.541,352.084,195.07,349.036,195.07z"/>
		<path style="fill:#D8DCE5;" d="M200.538,272.67c-2.156-2.156-2.156-5.65,0-7.806l12.178-12.178    c0.299-0.299,0.343-0.765,0.109-1.118c-5.375-8.075-9.245-17.235-11.221-27.082c-0.083-0.415-0.444-0.715-0.867-0.715h-17.219    c-3.048,0-5.52-2.471-5.52-5.52v-17.663c0-3.048,2.471-5.52,5.52-5.52h17.219c0.423,0,0.784-0.3,0.867-0.715    c1.976-9.846,5.846-19.007,11.221-27.082c0.234-0.353,0.191-0.818-0.109-1.118l-12.178-12.178c-2.156-2.155-2.156-5.65,0-7.806    l6.393-6.393l-6.097-6.097c-2.156-2.156-5.65-2.156-7.806,0l-12.49,12.49c-2.156,2.156-2.156,5.65,0,7.806l12.178,12.178    c0.299,0.3,0.343,0.765,0.109,1.118c-5.375,8.075-9.245,17.236-11.221,27.082c-0.083,0.415-0.444,0.715-0.867,0.715h-17.219    c-3.048,0-5.52,2.471-5.52,5.52v17.663c0,3.048,2.471,5.52,5.52,5.52h17.219c0.423,0,0.784,0.3,0.867,0.715    c1.976,9.846,5.846,19.007,11.221,27.082c0.234,0.353,0.191,0.818-0.109,1.118l-12.178,12.178c-2.156,2.156-2.156,5.65,0,7.806    l12.49,12.49c2.155,2.156,5.65,2.156,7.806,0l6.097-6.097L200.538,272.67z"/>
		<circle style="fill:#D8DCE5;" cx="256.277" cy="209.421" r="44.716"/>
		<path style="fill:#C3C8D1;" d="M231.184,209.421c0-21.324,14.931-39.149,34.905-43.623c-3.159-0.708-6.439-1.093-9.812-1.093    c-24.696,0-44.716,20.02-44.716,44.717c0,24.696,20.02,44.716,44.716,44.716c3.373,0,6.653-0.385,9.812-1.093    C246.114,248.57,231.184,230.745,231.184,209.421z"/>
		<path style="fill:#00AAF0;" d="M322.447,387.096H190.106c-8.007,0-14.558,6.551-14.558,14.558v11.469    c0,8.007,6.551,14.558,14.558,14.558h132.341c8.007,0,14.558-6.551,14.558-14.558v-11.469    C337.004,393.647,330.454,387.096,322.447,387.096z"/>
		<path style="fill:#E4EAF8;" d="M258.081,187.803l16.015,9.246c1.117,0.645,1.804,1.836,1.804,3.125v18.493    c0,1.289-0.688,2.481-1.804,3.125l-16.015,9.246c-1.116,0.645-2.492,0.645-3.609,0l-16.015-9.246    c-1.117-0.645-1.804-1.836-1.804-3.125v-18.493c0-1.289,0.688-2.481,1.804-3.125l16.015-9.246    C255.589,187.158,256.964,187.158,258.081,187.803z"/>
		<path style="fill:#CED2DB;" d="M258.081,221.793c-1.116-0.645-1.804-1.836-1.804-3.125v-18.493c0-1.289,0.688-2.481,1.804-3.125    l8.008-4.623l-8.008-4.623c-1.116-0.645-2.492-0.645-3.609,0l-16.015,9.246c-1.116,0.645-1.804,1.836-1.804,3.125v18.493    c0,1.289,0.688,2.48,1.804,3.125l16.015,9.246c1.117,0.645,2.492,0.645,3.609,0l8.008-4.623L258.081,221.793z"/>
		<g>
			<path style="fill:#D8DCE5;" d="M256.288,216.926c-4.128,0-7.51-3.382-7.51-7.51c0-3.299,2.268-6.563,6.04-7.35     c4.712-0.922,8.97,2.709,8.97,7.35C263.788,213.458,260.486,216.926,256.288,216.926z"/>
		</g>
		<path style="fill:#C3C8D1;" d="M256.276,216.925v-15.001c-4.232,0.002-7.499,3.488-7.499,7.492    C248.777,213.543,252.158,216.919,256.276,216.925z"/>
		<path style="fill:#707487;" d="M256.276,502.98c19.725,0,35.715-16.726,35.715-37.359h-71.431    C220.561,486.254,236.551,502.98,256.276,502.98z"/>
		<path style="fill:#5B5D6E;" d="M240.561,465.621h-20c0,20.633,15.99,37.359,35.715,37.359c3.473,0,6.826-0.528,10-1.495    C251.42,496.96,240.561,482.622,240.561,465.621z"/>
		<path style="fill:#00C3FF;" d="M322.447,426.681H190.106c-8.007,0-14.558,6.551-14.558,14.558v11.47    c0,8.007,6.551,14.558,14.558,14.558h132.341c8.007,0,14.558-6.551,14.558-14.558v-11.47    C337.004,433.232,330.454,426.681,322.447,426.681z"/>
		<path style="fill:#039ADD;" d="M322.447,407.888H190.106c-6.561,0-12.138-4.401-13.94-10.396    c-0.397,1.321-0.617,2.716-0.617,4.162v11.469c0,8.007,6.551,14.558,14.557,14.558h132.341c8.007,0,14.557-6.551,14.557-14.558    v-11.469c0-1.446-0.22-2.841-0.617-4.162C334.585,403.487,329.008,407.888,322.447,407.888z"/>
		<path style="fill:#00AAF0;" d="M322.447,447.473H190.106c-6.561,0-12.138-4.402-13.94-10.396    c-0.397,1.321-0.617,2.716-0.617,4.161v11.469c0,8.007,6.551,14.558,14.557,14.558h132.341c8.007,0,14.557-6.551,14.557-14.558    v-11.469c0-1.446-0.22-2.841-0.617-4.161C334.585,443.071,329.008,447.473,322.447,447.473z"/>
		<path style="fill:#D8DCE5;" d="M261.925,302.18v-13.798c0-1.912-1.508-3.484-3.418-3.564l-17.297-0.724    c0.415,0.083,0.715,0.444,0.715,0.867v17.219c0,3.048,2.471,5.52,5.52,5.52h17.663c0.401,0,0.792-0.045,1.168-0.126    C263.79,307.037,261.925,304.827,261.925,302.18z"/>
		<path style="fill:#D8DCE5;" d="M261.925,116.662c0-2.647,1.865-4.857,4.351-5.393c-0.377-0.081-0.767-0.126-1.168-0.126h-17.664    c-3.048,0-5.52,2.471-5.52,5.52v17.219c0,0.423-0.3,0.783-0.715,0.867l17.9-0.749c1.573-0.066,2.814-1.36,2.814-2.935V116.662z"/>
	</g>
	<g>
		<path d="M255.984,262.126c28.792,0,52.217-23.424,52.217-52.217c0-28.792-23.425-52.216-52.217-52.216    s-52.217,23.424-52.217,52.216C203.768,238.702,227.192,262.126,255.984,262.126z M255.984,172.693    c20.521,0,37.217,16.695,37.217,37.216c0,20.521-16.695,37.217-37.217,37.217s-37.217-16.695-37.217-37.217    C218.768,189.388,235.463,172.693,255.984,172.693z"/>
		<path d="M234.133,116.258v12.87c-6.948,1.869-13.577,4.616-19.816,8.211l-9.102-9.102c-4.741-4.741-12.411-4.741-17.152,0    l-13.75,13.75c-4.74,4.74-4.742,12.41-0.001,17.151l9.103,9.103c-3.596,6.239-6.343,12.87-8.211,19.817h-12.87    c-6.688,0-12.128,5.44-12.128,12.127v19.448c0,6.687,5.44,12.127,12.128,12.127h12.87c1.868,6.947,4.615,13.578,8.211,19.817    l-9.102,9.101c-4.74,4.74-4.742,12.411-0.001,17.152l13.752,13.752c4.729,4.727,12.421,4.727,17.151-0.001l9.102-9.102    c6.239,3.595,12.869,6.342,19.816,8.211v12.87c0,6.687,5.44,12.127,12.128,12.127h19.447c6.688,0,12.128-5.44,12.128-12.127    v-12.87c6.947-1.869,13.577-4.616,19.816-8.211l9.103,9.103c4.729,4.727,12.422,4.727,17.15-0.001l13.753-13.752    c4.729-4.729,4.728-12.423-0.001-17.15l-9.103-9.102c3.596-6.239,6.343-12.87,8.211-19.817h12.87    c6.688,0,12.128-5.44,12.128-12.127v-19.448c0-6.687-5.44-12.127-12.128-12.127h-12.87c-1.868-6.947-4.615-13.578-8.211-19.817    l9.102-9.102c4.729-4.728,4.73-12.422,0.001-17.151l-13.751-13.751c-4.741-4.741-12.411-4.741-17.152,0l-9.102,9.102    c-6.239-3.596-12.868-6.343-19.816-8.211v-12.87c0-6.687-5.44-12.127-12.128-12.127h-19.447    C239.573,104.13,234.133,109.571,234.133,116.258z M249.133,135.096V119.13h13.703v15.966c0,3.6,2.559,6.692,6.095,7.367    c9.211,1.757,17.82,5.324,25.59,10.603c2.977,2.023,6.972,1.646,9.519-0.9l11.291-11.292l9.689,9.689l-11.292,11.292    c-2.545,2.545-2.923,6.541-0.9,9.518c5.279,7.769,8.846,16.379,10.603,25.589c0.675,3.537,3.767,6.095,7.367,6.095h15.967v13.703    h-15.967c-3.601,0-6.692,2.559-7.367,6.095c-1.757,9.21-5.323,17.819-10.603,25.59c-2.022,2.978-1.645,6.972,0.9,9.518    l11.292,11.292l-9.689,9.689l-11.291-11.292c-2.545-2.544-6.539-2.924-9.519-0.9c-7.77,5.279-16.379,8.846-25.59,10.603    c-3.536,0.675-6.095,3.767-6.095,7.367v15.966h-13.703v-15.966c0-3.6-2.559-6.692-6.095-7.367    c-9.211-1.757-17.82-5.324-25.59-10.603c-2.979-2.024-6.974-1.645-9.519,0.9l-11.291,11.292l-9.689-9.689l11.292-11.292    c2.545-2.545,2.923-6.54,0.9-9.518c-5.279-7.771-8.846-16.38-10.603-25.59c-0.675-3.537-3.767-6.095-7.367-6.095h-15.967v-13.703    h15.967c3.601,0,6.692-2.559,7.367-6.095c1.757-9.21,5.323-17.82,10.603-25.589c2.022-2.978,1.645-6.973-0.9-9.518l-11.291-11.292    l9.688-9.689l11.291,11.292c2.546,2.546,6.543,2.923,9.519,0.9c7.77-5.279,16.379-8.846,25.59-10.603    C246.574,141.789,249.133,138.696,249.133,135.096z"/>
		<path d="M53.575,217.409h24.716c4.143,0,7.5-3.358,7.5-7.5s-3.357-7.5-7.5-7.5H53.575c-4.143,0-7.5,3.358-7.5,7.5    S49.433,217.409,53.575,217.409z"/>
		<path d="M433.678,217.409h24.716c4.143,0,7.5-3.358,7.5-7.5s-3.357-7.5-7.5-7.5h-24.716c-4.143,0-7.5,3.358-7.5,7.5    S429.535,217.409,433.678,217.409z"/>
		<path d="M125.032,330.254l-17.477,17.477c-2.929,2.929-2.929,7.678,0.001,10.606c2.928,2.929,7.676,2.929,10.606,0l17.477-17.477    c2.929-2.929,2.929-7.678-0.001-10.606C132.711,327.324,127.962,327.325,125.032,330.254z"/>
		<path d="M386.937,89.564l17.477-17.477c2.929-2.929,2.929-7.678-0.001-10.606c-2.928-2.929-7.677-2.929-10.606,0l-17.477,17.477    c-2.929,2.929-2.929,7.678,0.001,10.606C379.256,92.492,384.006,92.494,386.937,89.564z"/>
		<path d="M255.984,39.716c4.143,0,7.5-3.358,7.5-7.5V7.5c0-4.142-3.357-7.5-7.5-7.5s-7.5,3.358-7.5,7.5v24.716    C248.484,36.358,251.842,39.716,255.984,39.716z"/>
		<path d="M376.33,330.254c-2.93,2.929-2.93,7.677-0.001,10.606l17.477,17.477c2.929,2.929,7.678,2.929,10.606,0    c2.93-2.929,2.93-7.677,0.001-10.606l-17.477-17.477C384.008,327.325,379.259,327.324,376.33,330.254z"/>
		<path d="M125.032,89.564c2.929,2.929,7.678,2.929,10.606,0c2.93-2.929,2.93-7.677,0.001-10.606l-17.477-17.477    c-2.929-2.929-7.678-2.93-10.606,0c-2.93,2.929-2.93,7.677-0.001,10.606L125.032,89.564z"/>
		<path d="M234.415,228.776l16.017,9.248c3.426,1.976,7.681,1.975,11.107-0.001l16.013-9.245c3.428-1.978,5.557-5.665,5.557-9.622    v-18.493c0-3.958-2.129-7.645-5.555-9.621l-16.015-9.246c-0.001,0-0.001-0.001-0.002-0.001c-3.427-1.977-7.681-1.976-11.107,0.001    l-16.013,9.245c-3.428,1.978-5.557,5.665-5.557,9.622v18.493C228.86,223.113,230.989,226.8,234.415,228.776z M243.86,202.91    l12.124-7l12.124,7v13.999l-12.124,7l-12.124-7V202.91z"/>
		<path d="M263.492,209.904c0-3.425-2.347-6.579-6.04-7.35c-4.539-0.915-8.96,2.57-8.96,7.35c0,4.17,3.403,7.51,7.5,7.51    C260.052,217.414,263.492,214.089,263.492,209.904z"/>
		<path d="M272.599,72.822c63.337,7.591,112.873,57.134,120.464,120.479c0.456,3.81,3.693,6.609,7.437,6.609    c0.298,0,0.599-0.018,0.902-0.054c4.112-0.493,7.047-4.227,6.554-8.339c-4.047-33.78-19.578-65.688-43.732-89.846    c-24.156-24.159-56.062-39.694-89.839-43.743c-4.119-0.494-7.847,2.441-8.339,6.554C265.552,68.596,268.486,72.329,272.599,72.822    z"/>
		<path d="M179.857,342.728c0.699,0.401,1.133,1.136,1.133,1.917v37.286c-7.782,3.411-13.234,11.184-13.234,20.21v11.469    c0,5.575,2.083,10.67,5.507,14.558c-3.424,3.888-5.507,8.982-5.507,14.558v11.47c0,12.162,9.895,22.057,22.058,22.057h23.621    c3.563,20.265,21.28,35.715,42.55,35.715s38.987-15.451,42.55-35.715h23.621c12.163,0,22.058-9.895,22.058-22.057v-11.47    c0-5.575-2.083-10.67-5.507-14.558c3.424-3.888,5.507-8.982,5.507-14.558v-11.469c0-9.026-5.452-16.8-13.234-20.21v-37.315    c0-0.764,0.431-1.486,1.124-1.884c41.774-23.988,70.127-66.766,75.841-114.431c0.493-4.112-2.44-7.846-6.554-8.339    c-4.102-0.487-7.847,2.44-8.339,6.554c-5.154,42.985-30.73,81.567-68.417,103.208c-5.339,3.065-8.655,8.772-8.655,14.892v35.468    H195.99v-35.439c0-6.138-3.32-11.857-8.663-14.926c-42.817-24.591-69.417-70.5-69.418-119.811    c-0.001-69.924,52.219-128.858,121.467-137.086c4.113-0.489,7.052-4.22,6.563-8.333c-0.488-4.114-4.235-7.047-8.332-6.563    c-76.791,9.125-134.698,74.462-134.697,151.982C102.91,264.576,132.395,315.469,179.857,342.728z M228.781,476.253h54.406    C275.59,503.777,236.375,503.763,228.781,476.253z M329.213,454.196c0,3.891-3.166,7.057-7.058,7.057    c-14.797,0-118.16,0-132.342,0c-3.892,0-7.058-3.166-7.058-7.057v-11.47c0-3.892,3.166-7.058,7.058-7.058h132.342    c3.892,0,7.058,3.166,7.058,7.058V454.196z M322.155,395.084c3.892,0,7.058,3.166,7.058,7.058v11.469    c0,3.892-3.166,7.058-7.058,7.058H189.813c-3.892,0-7.058-3.166-7.058-7.058v-11.469c0-3.892,3.166-7.058,7.058-7.058H322.155z"/>
	</g>
</g>















</svg>
