<svg height="511pt" viewBox="-79 0 511 511.99703" width="511pt" xmlns="http://www.w3.org/2000/svg"><path d="m248.5 87.996094h-144v-48h-96v464h336v-464h-96zm-111.203125 247.199218-80-80 80 80 158.402344-158.398437zm0 0" fill="#57a4ff"/><g fill="#004fac"><path d="m344.5 31.996094h-88v-8c0-4.417969-3.582031-8-8-8h-44.3125c-5.707031-9.898438-16.265625-15.996094-27.6875-15.996094-11.425781 0-21.984375 6.097656-27.691406 15.996094h-44.308594c-4.417969 0-8 3.582031-8 8v8h-88c-4.417969 0-8 3.582031-8 8v464c0 4.417968 3.582031 8 8 8h336c4.417969 0 8-3.582032 8-8v-464c0-4.417969-3.582031-8-8-8zm-232 0h41.4375c3.421875 0 6.460938-2.171875 7.570312-5.40625 2.246094-6.351563 8.253907-10.597656 14.992188-10.597656 6.734375 0 12.742188 4.246093 14.992188 10.597656 1.105468 3.234375 4.148437 5.40625 7.566406 5.40625h41.441406v48h-128zm224 464h-320v-448h80v40c0 4.417968 3.582031 8 8 8h144c4.417969 0 8-3.582032 8-8v-40h80zm0 0"/><path d="m137.296875 323.878906-74.34375-74.347656c-3.136719-3.03125-8.128906-2.988281-11.214844.097656-3.085937 3.085938-3.128906 8.078125-.097656 11.214844l80 80c3.125 3.125 8.191406 3.125 11.3125 0l158.402344-158.398438c3.03125-3.140624 2.988281-8.128906-.097657-11.214843-3.085937-3.085938-8.078124-3.128907-11.214843-.097657zm0 0"/><path d="m96.5 455.996094h-40v-40c0-4.417969-3.582031-8-8-8s-8 3.582031-8 8v48c0 4.417968 3.582031 8 8 8h48c4.417969 0 8-3.582032 8-8 0-4.417969-3.582031-8-8-8zm0 0"/><path d="m144.5 455.996094h-16c-4.417969 0-8 3.582031-8 8 0 4.417968 3.582031 8 8 8h16c4.417969 0 8-3.582032 8-8 0-4.417969-3.582031-8-8-8zm0 0"/></g></svg>