<svg xmlns="http://www.w3.org/2000/svg" width="20.667" height="20.667" viewBox="0 0 20.667 20.667">
  <g id="_04-dashboard_-element_-interface_-layout_-wireframe" data-name="04-dashboard,-element,-interface,-layout,-wireframe" transform="translate(-4 -4)">
    <path id="Shape" d="M24.667,13.472V24.667H12.611V13.472ZM10.889,4V16.056H4V4Z" fill="#2eaff0"/>
    <path id="Shape-2" data-name="Shape" d="M10.889,17.778v6.889H4V17.778ZM24.667,4v7.75H12.611V4Z" fill="#f5f8fa"/>
    <path id="Shape-3" data-name="Shape" d="M10.889,17.778v6.889H4V17.778Zm13.778-4.306V24.667H12.611V13.472ZM9.167,19.5H5.722v3.444H9.167Zm13.778-4.306H14.333v7.75h8.611ZM10.889,4V16.056H4V4ZM9.167,5.722H5.722v8.611H9.167ZM24.667,4v7.75H12.611V4ZM22.944,5.722H14.333v4.306h8.611Z" fill="#0d47a1"/>
  </g>
</svg>
