<svg id="Layer_1" enable-background="new 0 0 62 62" height="512" viewBox="0 0 62 62" width="512" xmlns="http://www.w3.org/2000/svg"><path d="m9 42.143v7.589c0 6.223 9.85 11.268 22 11.268s22-5.045 22-11.268v-7.589z" fill="#acebff"/><path d="m9 34.58v7.589c0 6.223 9.85 11.268 22 11.268s22-5.045 22-11.268v-7.589z" fill="#fff"/><path d="m9 27.017v7.589c0 6.223 9.85 11.268 22 11.268s22-5.045 22-11.268v-7.589z" fill="#acebff"/><path d="m9 19.713v7.589c0 6.223 9.85 11.268 22 11.268s22-5.045 22-11.268v-7.589z" fill="#fff"/><path d="m9 12.268v7.589c0 6.223 9.85 11.268 22 11.268s22-5.045 22-11.268v-7.589z" fill="#acebff"/><ellipse cx="31" cy="12.268" fill="#fff" rx="22" ry="11.268"/><path d="m31 0c-12.897 0-23 5.389-23 12.268v37.465c0 6.878 10.103 12.267 23 12.267s23-5.389 23-12.268v-37.464c0-6.879-10.103-12.268-23-12.268zm21 49.732c0 5.566-9.617 10.268-21 10.268s-21-4.702-21-10.268v-2.481c3.559 4.273 11.522 7.185 21 7.185s17.441-2.912 21-7.185zm0-15.126c0 2.3-1.669 4.441-4.404 6.173-.3.19-.491.516-.491.871 0 .803.889 1.31 1.566.879 1.341-.852 2.467-1.805 3.329-2.841v2.481c0 5.565-9.617 10.268-21 10.268s-21-4.702-21-10.268v-2.481c3.559 4.273 11.522 7.185 21 7.185 4.238 0 8.161-.591 11.532-1.619.428-.13.713-.531.713-.979 0-.679-.653-1.178-1.302-.978-3.21.99-6.96 1.575-10.943 1.575-11.383 0-21-4.702-21-10.268v-2.221c3.559 4.273 11.522 7.185 21 7.185s17.441-2.912 21-7.185zm0-7.303c0 5.565-9.617 10.268-21 10.268s-21-4.702-21-10.268v-2.363c3.559 4.273 11.522 7.185 21 7.185s17.441-2.912 21-7.185zm0-7.446c0 5.565-9.617 10.268-21 10.268s-21-4.702-21-10.268v-2.507c3.559 4.273 11.522 7.185 21 7.185s17.441-2.912 21-7.185zm-21 2.678c-11.383 0-21-4.702-21-10.268s9.617-10.267 21-10.267 21 4.702 21 10.268-9.617 10.267-21 10.267z" fill="#303053"/><path d="m31.66 11.224c-1.392-.576-1.626-.885-1.626-1.361 0-.442.319-.914 1.213-.914.787 0 1.422.299 2.083.678l.642-1.696c-.634-.382-1.294-.639-2.036-.712v-1.477h-1.679v1.583c-1.385.342-2.263 1.381-2.263 2.718 0 1.65 1.303 2.389 2.707 2.94 1.282.52 1.459.997 1.459 1.436 0 .654-.566 1.093-1.408 1.093-.885 0-1.638-.358-2.349-.848l-.617 1.722c.693.516 1.506.796 2.366.874v1.534h1.694v-1.628c1.429-.358 2.368-1.471 2.368-2.853 0-1.815-1.366-2.604-2.554-3.089z" fill="#4cbbe9"/></svg>