<svg height="496pt" viewBox="-40 0 496 496" width="496pt" xmlns="http://www.w3.org/2000/svg"><path d="m160 40h96v32h32v-64h-160v64h32zm0 0" fill="#57a4ff"/><path d="m80 488h256l40-360h-336zm186.089844-65.742188 28.261718-240.226562c1.027344-8.714844 8.921876-14.949219 17.636719-13.921875 8.714844 1.023437 14.949219 8.917969 13.921875 17.632813l-28.261718 240.226562c-1.027344 8.714844-8.921876 14.949219-17.636719 13.921875-8.714844-1.023437-14.949219-8.917969-13.921875-17.632813zm-74.089844-238.257812c0-8.835938 7.164062-16 16-16s16 7.164062 16 16v240c0 8.835938-7.164062 16-16 16s-16-7.164062-16-16zm-86.128906-16c8.058594-.003906 14.839844 6.03125 15.777344 14.03125l28.261718 240.226562c1.027344 8.714844-5.207031 16.609376-13.921875 17.632813-8.714843 1.027344-16.609375-5.207031-17.636719-13.921875l-28.261718-240.226562c-.53125-4.503907.894531-9.019532 3.910156-12.410157s7.335938-5.332031 11.871094-5.332031zm0 0" fill="#57a4ff"/><g fill="#004fac"><path d="m408 64h-112v-56c0-4.417969-3.582031-8-8-8h-160c-4.417969 0-8 3.582031-8 8v56h-112c-4.417969 0-8 3.582031-8 8v56c0 4.417969 3.582031 8 8 8h24.839844l39.199218 352.878906c.449219 4.058594 3.878907 7.125 7.960938 7.121094h256c4.078125 0 7.503906-3.066406 7.953125-7.121094l39.246094-352.878906h24.800781c4.417969 0 8-3.582031 8-8v-56c0-4.417969-3.582031-8-8-8zm-272-48h144v48h-16v-24c0-4.417969-3.582031-8-8-8h-96c-4.417969 0-8 3.582031-8 8v24h-16zm32 48v-16h80v16zm160.800781 416h-241.601562l-38.261719-344h318.125zm71.199219-360h-384v-40h384zm0 0"/><path d="m208 448c13.253906 0 24-10.746094 24-24v-240c0-13.253906-10.746094-24-24-24s-24 10.746094-24 24v240c0 13.253906 10.746094 24 24 24zm-8-264c0-4.417969 3.582031-8 8-8s8 3.582031 8 8v240c0 4.417969-3.582031 8-8 8s-8-3.582031-8-8zm0 0"/><path d="m82.144531 186.6875 28.253907 240.214844c.871093 8.589844 6.300781 16.042968 14.214843 19.5 7.910157 3.453125 17.070313 2.371094 23.960938-2.828125 6.886719-5.203125 10.4375-13.714844 9.28125-22.269531l-28.253907-240.207032c-.871093-8.589844-6.300781-16.042968-14.214843-19.5-7.910157-3.453125-17.070313-2.371094-23.960938 2.828125-6.886719 5.203125-10.4375 13.714844-9.28125 22.269531zm17.832031-8c1.480469-1.710938 3.632813-2.691406 5.894532-2.6875 4.003906-.003906 7.371094 2.992188 7.832031 6.96875l28.265625 240.230469c.511719 4.328125-2.582031 8.253906-6.910156 8.765625-4.328125.511718-8.25-2.582032-8.761719-6.910156l-28.265625-240.253907c-.261719-2.238281.457031-4.480469 1.96875-6.152343zm0 0"/><path d="m281.871094 448c12.113281 0 22.308594-9.066406 23.730468-21.097656l28.253907-240.222656c1.546875-13.105469-7.824219-24.980469-20.925781-26.527344-13.105469-1.546875-24.984376 7.824218-26.53125 20.925781l-28.253907 240.242187c-.796875 6.773438 1.339844 13.570313 5.875 18.667969 4.53125 5.097657 11.03125 8.011719 17.851563 8.011719zm20.425781-265.03125c.460937-3.976562 3.828125-6.972656 7.832031-6.96875 2.25 0 4.394532.964844 5.890625 2.644531 1.496094 1.679688 2.207031 3.917969 1.949219 6.15625l-28.265625 240.230469c-.460937 3.976562-3.828125 6.972656-7.832031 6.96875-2.25 0-4.394532-.964844-5.890625-2.644531-1.496094-1.679688-2.207031-3.917969-1.949219-6.15625zm0 0"/></g></svg>