<svg id="Layer_5" enable-background="new 0 0 64 64" height="512" viewBox="0 0 64 64" width="512" xmlns="http://www.w3.org/2000/svg"><g><g><path d="m49 20h10v5h-10z" fill="#f0bc5e"/></g><g><path d="m63 47.729v-7.459l-2.734-.876c-.249-.773-.557-1.521-.919-2.229l1.311-2.549-5.273-5.274-2.549 1.312c-.71-.363-1.456-.67-2.229-.919l-.557-1.735h-8.1l-.556 1.734c-.773.249-1.52.556-2.229.919l-2.549-1.312-5.274 5.274 1.312 2.549c-.362.709-.67 1.455-.919 2.229l-2.735.878v7.459l2.734.876c.249.775.557 1.521.919 2.229l-1.312 2.549 5.274 5.274 2.549-1.312c.709.362 1.455.67 2.229.919l.878 2.735h7.459l.876-2.734c.774-.249 1.521-.557 2.229-.919l2.549 1.312 5.273-5.274-1.311-2.549c.362-.708.67-1.455.919-2.229zm-17 6.271c-5.523 0-10-4.477-10-10s4.477-10 10-10 10 4.477 10 10-4.477 10-10 10z" fill="#f0bc5e"/></g><g><path d="m54 5c-2.757 0-5 2.243-5 5 0 .56.114 1.09.284 1.593l-4.446 2.594c-.725-.732-1.729-1.187-2.838-1.187-.964 0-1.837.356-2.528.926l-4.759-3.461c.18-.455.287-.947.287-1.465 0-2.206-1.794-4-4-4s-4 1.794-4 4c0 1.339.667 2.52 1.68 3.246l-2.601 6.762c-.027-.001-.052-.008-.079-.008-1.654 0-3 1.346-3 3s1.346 3 3 3 3-1.346 3-3c0-.91-.415-1.716-1.057-2.267l2.608-6.779c.149.018.295.046.449.046.964 0 1.836-.356 2.528-.926l4.759 3.461c-.18.455-.287.947-.287 1.465 0 2.206 1.794 4 4 4s4-1.794 4-4c0-.376-.069-.733-.166-1.079l4.457-2.6c.916 1.022 2.232 1.679 3.709 1.679 2.757 0 5-2.243 5-5s-2.243-5-5-5zm-28 18c-.552 0-1-.449-1-1s.448-1 1-1 1 .449 1 1-.448 1-1 1zm5-12c-1.103 0-2-.897-2-2s.897-2 2-2 2 .897 2 2-.897 2-2 2zm11 8c-1.103 0-2-.897-2-2s.897-2 2-2 2 .897 2 2-.897 2-2 2zm12-6c-1.654 0-3-1.346-3-3s1.346-3 3-3 3 1.346 3 3-1.346 3-3 3z"/><path d="m49 23h2v2h-2z"/><path d="m57 23h2v2h-2z"/><path d="m53 23h2v2h-2z"/><path d="m49 19h10v2h-10z"/><path d="m11 26h-2c0 4.962 4.037 9 9 9v-2c-3.859 0-7-3.14-7-7z"/><path d="m46 49v2c3.859 0 7-3.141 7-7h-2c0 2.757-2.243 5-5 5z"/><path d="m60 1h-38c-1.654 0-3 1.346-3 3v5.035c-.347-.023-.676-.035-1-.035-9.374 0-17 7.626-17 17 0 7.994 5.553 14.699 13 16.505v3.495c0 .537.153 1.034.401 1.471-.839.532-1.401 1.464-1.401 2.529v8c0 2.757 2.243 5 5 5s5-2.243 5-5v-8c0-1.065-.562-1.997-1.401-2.529.248-.437.401-.934.401-1.471v-3.495c6.435-1.566 11.508-6.808 12.702-13.505h25.298c1.654 0 3-1.346 3-3v-22c0-1.654-1.346-3-3-3zm-38 28h6.566c-1.32 4.699-5.585 8-10.566 8-6.065 0-11-4.935-11-11s4.935-11 11-11c.32 0 .654.022 1 .057v10.943c0 1.654 1.346 3 3 3zm-1 29c0 1.654-1.346 3-3 3s-3-1.346-3-3v-8c0-.552.448-1 1-1h1 2 1c.552 0 1 .448 1 1zm-1-12c0 .552-.448 1-1 1h-2c-.552 0-1-.448-1-1v-3.128c.657.077 1.322.128 2 .128.677 0 1.342-.054 2-.132zm-2-5c-8.271 0-15-6.729-15-15s6.729-15 15-15c.317 0 .65.016 1 .043v2.002c-.342-.028-.675-.045-1-.045-7.168 0-13 5.832-13 13s5.832 13 13 13c6.077 0 11.253-4.159 12.628-10h2.047c-1.403 6.914-7.517 12-14.675 12zm43-15c0 .551-.448 1-1 1h-38c-.552 0-1-.449-1-1v-22c0-.551.448-1 1-1h38c.552 0 1 .449 1 1z"/><path d="m46 33c-6.065 0-11 4.935-11 11s4.935 11 11 11 11-4.935 11-11-4.935-11-11-11zm0 20c-4.963 0-9-4.037-9-9s4.037-9 9-9 9 4.037 9 9-4.037 9-9 9z"/></g></g></svg>