<svg id="Icons" height="512" viewBox="0 0 60 60" width="512" xmlns="http://www.w3.org/2000/svg"><path d="m47.01 10.328a2.008 2.008 0 0 0 -2.97.39 1.968 1.968 0 0 0 .32 2.61 22 22 0 0 1 -14.36 38.672h-1v-1.01a.952.952 0 0 0 -1.51-.8l-4.09 3.01a1 1 0 0 0 0 1.6l4.09 3.011a.952.952 0 0 0 1.51-.8v-1.011h1a26.008 26.008 0 0 0 17.01-45.672z"/><path d="m32.51 2.187a.952.952 0 0 0 -1.51.8v1.013h-1a26.008 26.008 0 0 0 -17.01 45.672 2.008 2.008 0 0 0 2.97-.39 1.968 1.968 0 0 0 -.32-2.61 22 22 0 0 1 14.36-38.672h1v1.01a.952.952 0 0 0 1.51.8l4.09-3.01a1 1 0 0 0 0-1.6z"/><path d="m41.981 37.298.018-13.46-10.999 6.158v13.429z"/><path d="m19.043 22.13 10.957 6.134 10.958-6.135-10.937-6.124zm11.829-3.187a1 1 0 0 1 -.384 1.361l-5 2.8a1 1 0 0 1 -.976-1.745l5-2.8a1 1 0 0 1 1.36.384z"/><path d="m29 30-10.983-6.153-.017 13.418 11 6.18zm-7 5.532a1 1 0 0 1 -2 0v-6.532a1 1 0 0 1 2 0z"/></svg>