<svg xmlns="http://www.w3.org/2000/svg" width="23.667" height="23.667" viewBox="0 0 23.667 23.667">
  <g id="New_Alert_Rule" data-name="New Alert Rule" transform="translate(0.5 0.5)">
    <path id="Path_6944" data-name="Path 6944" d="M11.333,0A11.333,11.333,0,1,0,22.667,11.333,11.346,11.346,0,0,0,11.333,0Zm0,0" fill="#2196f3" stroke="#0d47a1" stroke-width="1"/>
    <path id="Path_6945" data-name="Path 6945" d="M133.529,129.515h-4.014v4.014a.944.944,0,0,1-1.889,0v-4.014h-4.014a.944.944,0,0,1,0-1.889h4.014v-4.014a.944.944,0,0,1,1.889,0v4.014h4.014a.944.944,0,0,1,0,1.889Zm0,0" transform="translate(-117.237 -117.237)" fill="#fafafa"/>
  </g>
</svg>
