<svg id="Layer_2" height="512" viewBox="0 0 64 64" width="512" xmlns="http://www.w3.org/2000/svg" data-name="Layer 2"><path d="m32 9a23 23 0 1 0 23 23 23 23 0 0 0 -23-23zm0 40.5a2.121 2.121 0 1 1 2.122-2.121 2.122 2.122 0 0 1 -2.122 2.121zm8.164-20.5-2.444 2.687a8.515 8.515 0 0 0 -3.6 6.775v.431a2.122 2.122 0 0 1 -4.243 0v-.431a12.717 12.717 0 0 1 5.3-10.17 5.333 5.333 0 0 0 2.023-5.333 5.243 5.243 0 0 0 -4.113-4.111 5.31 5.31 0 0 0 -6.388 5.2 2.121 2.121 0 1 1 -4.242 0 9.548 9.548 0 1 1 17.707 4.952z" fill="#2ea6fc"/><g fill="#2057d1"><path d="m32 42.014a3.125 3.125 0 0 1 -3.122-3.121v-.432a13.7 13.7 0 0 1 5.7-10.969 4.34 4.34 0 0 0 1.641-4.342 4.238 4.238 0 0 0 -3.319-3.321 4.312 4.312 0 0 0 -5.2 4.215 3.121 3.121 0 1 1 -6.242 0 10.548 10.548 0 0 1 20.885-2.084 10.62 10.62 0 0 1 -1.324 7.56 1 1 0 0 1 -1.709-1.04 8.624 8.624 0 0 0 1.07-6.139 8.514 8.514 0 0 0 -6.68-6.677 8.553 8.553 0 0 0 -10.249 8.38 1.121 1.121 0 1 0 2.242 0 6.306 6.306 0 1 1 10.078 5.048 11.727 11.727 0 0 0 -4.9 9.369v.432a1.122 1.122 0 0 0 2.243 0v-.432a9.5 9.5 0 0 1 4-7.574 1 1 0 1 1 1.2 1.6 7.525 7.525 0 0 0 -3.2 5.974v.432a3.124 3.124 0 0 1 -3.114 3.121z"/><path d="m32 50.5a3.121 3.121 0 1 1 3.121-3.121 3.125 3.125 0 0 1 -3.121 3.121zm0-4.242a1.121 1.121 0 1 0 1.121 1.121 1.123 1.123 0 0 0 -1.121-1.122z"/><path d="m32 56a24 24 0 1 1 18.193-8.348 1 1 0 1 1 -1.515-1.3 22 22 0 1 0 -16.678 7.648 21.757 21.757 0 0 0 13.7-4.782 1 1 0 1 1 1.246 1.565 23.746 23.746 0 0 1 -14.946 5.217z"/></g></svg>