<svg height="496pt" viewBox="0 -16 496.03899 496" width="496pt" xmlns="http://www.w3.org/2000/svg"><path d="m138.164062 184.023438h-32.566406c24.226563-73.78125 97.195313-120.179688 174.289063-110.824219 77.089843 9.355469 136.84375 71.859375 142.71875 149.296875 3.453125 81.15625-53.507813 152.414062-133.433594 166.917968-79.925781 14.503907-158.292969-32.195312-183.574219-109.390624l-56.921875 32c35.421875 90.929687 125.175781 148.882812 222.625 143.742187 114.089844-5.34375 208.082031-95.46875 216.113281-207.503906 9.382813-131.054688-95.945312-240.238281-227.21875-240.238281-105.566406-.488282-197.113281 72.867187-219.652343 176h-32.546875l65.089844 72zm0 0" fill="#57a4ff"/><path d="m434.132812 75.367188c-45.0625-48.09375-108.03125-75.37109425-173.9375-75.3437505-106.941406-.5859375-200.363281 72.1679685-225.988281 176.0000005h-26.210937c-3.160156 0-6.023438 1.863281-7.308594 4.75-1.28125 2.890624-.7421875 6.261718 1.375 8.609374l65.085938 72c1.554687 1.613282 3.699218 2.523438 5.9375 2.523438 2.238281 0 4.378906-.910156 5.933593-2.523438l65.089844-72c2.117187-2.347656 2.65625-5.722656 1.371094-8.613281-1.285157-2.886719-4.152344-4.75-7.316407-4.746093h-21.175781c27.265625-66.339844 96.519531-105.28125 167.367188-94.105469 70.851562 11.171875 124.761719 69.527343 130.289062 141.039062 2.582031 41.507813-12.246093 82.210938-40.917969 112.328125-29.558593 31.128906-70.605468 48.75-113.53125 48.738282-66.960937.417968-126.449218-42.65625-146.957031-106.402344-.734375-2.285156-2.457031-4.125-4.691406-5.003906-2.238281-.878907-4.75-.707032-6.847656.46875l-56.941407 32c-3.472656 1.953124-4.980468 6.160156-3.535156 9.871093 35.324219 90.179688 122.421875 149.390625 219.269532 149.066407 3.703124 0 7.441406-.097657 11.199218-.265626 118.230469-4.671874 214.304688-96.984374 223.699219-214.933593 4.828125-63.855469-17.398437-126.796875-61.257813-173.457031zm45.304688 172.320312c-7.671875 107.113281-99.265625 195-208.511719 200.085938-91.421875 4.640624-176.070312-48.113282-212.175781-132.230469l42.488281-23.878907c25.347657 65.621094 88.613281 108.75 158.957031 108.359376 47.332032.003906 92.585938-19.433594 125.167969-53.761719 31.714844-33.3125 48.113281-78.332031 45.25-124.238281-6.226562-88.445313-79.402343-157.238282-168.0625-158h-2.402343c-73.964844-.53125-139.675782 47.125-162.144532 117.597656-.761718 2.425781-.328125 5.066406 1.171875 7.117187 1.496094 2.054688 3.878907 3.273438 6.421875 3.285157h14.558594l-47.070312 52.070312-47.074219-52.070312h14.519531c3.753906.003906 7.003906-2.601563 7.816406-6.265626 21.664063-99.511718 110.007813-170.292968 211.847656-169.734374 61.457032-.023438 120.175782 25.40625 162.203126 70.246093 40.828124 43.414063 61.527343 101.992188 57.039062 161.417969zm0 0" fill="#004fac"/></svg>