<svg height="512pt" viewBox="0 -55 512 512" width="512pt" xmlns="http://www.w3.org/2000/svg"><path d="m457.914062 104.214844h-403.828124c-5.691407 0-10.304688-4.613282-10.304688-10.300782v-57.691406c0-5.691406 4.613281-10.300781 10.304688-10.300781h403.828124c5.691407 0 10.304688 4.609375 10.304688 10.300781v57.691406c0 5.6875-4.613281 10.300782-10.304688 10.300782zm0 0" fill="#00a0ff"/><path d="m457.914062 25.921875h-30.902343c5.6875 0 10.300781 4.609375 10.300781 10.300781v57.691406c0 5.6875-4.613281 10.300782-10.300781 10.300782h30.902343c5.691407 0 10.304688-4.613282 10.304688-10.300782v-57.691406c0-5.691406-4.613281-10.300781-10.304688-10.300781zm0 0" fill="#008df2"/><path d="m512 83.171875v302.335937c0 9.109376-7.378906 16.492188-16.484375 16.492188h-479.03125c-9.105469 0-16.484375-7.382812-16.484375-16.492188v-369.015624c0-9.109376 7.378906-16.492188 16.484375-16.492188h133.914063c25.058593 0 48.464843 12.507812 62.398437 33.347656 13.929687 20.828125 37.324219 33.328125 62.375 33.328125h220.347656c9.101563 0 16.480469 7.386719 16.480469 16.496094zm0 0" fill="#ffdf5a"/><path d="m181.890625 33.347656c13.929687 20.828125 37.328125 33.332032 62.375 33.332032h30.902344c-25.046875 0-48.441407-12.503907-62.371094-33.332032-13.933594-20.839844-37.339844-33.347656-62.398437-33.347656h-30.90625c25.058593 0 48.464843 12.507812 62.398437 33.347656zm0 0" fill="#fcc938"/><path d="m495.515625 66.675781h-30.902344c9.101563 0 16.480469 7.386719 16.480469 16.492188v302.339843c0 9.105469-7.378906 16.492188-16.480469 16.492188h30.902344c9.105469 0 16.484375-7.386719 16.484375-16.492188v-302.335937c0-9.109375-7.378906-16.496094-16.484375-16.496094zm0 0" fill="#fcc938"/><path d="m317.59375 343.792969h-123.1875c-8.652344 0-15.671875-7.015625-15.671875-15.671875v-200.886719c0-8.65625 7.019531-15.671875 15.671875-15.671875h123.1875c8.652344 0 15.671875 7.015625 15.671875 15.671875v200.886719c0 8.65625-7.019531 15.671875-15.671875 15.671875zm0 0" fill="#ef508d"/><path d="m317.59375 111.5625h-30.90625c8.65625 0 15.671875 7.015625 15.671875 15.671875v200.886719c0 8.652344-7.015625 15.671875-15.671875 15.671875h30.90625c8.652344 0 15.671875-7.015625 15.671875-15.671875v-200.886719c0-8.65625-7.019531-15.671875-15.671875-15.671875zm0 0" fill="#e5256e"/><path d="m276.605469 161.265625c0 11.378906-9.226563 20.601563-20.605469 20.601563s-20.605469-9.222657-20.605469-20.601563c0-11.382813 9.226563-20.605469 20.605469-20.605469s20.605469 9.222656 20.605469 20.605469zm0 0" fill="#3a5c7a"/><path d="m282.785156 233.378906h-53.570312c-2.273438 0-4.121094-1.847656-4.121094-4.121094v-16.484374c0-17.070313 13.839844-30.90625 30.90625-30.90625 17.070312 0 30.90625 13.835937 30.90625 30.90625v16.484374c0 2.273438-1.84375 4.121094-4.121094 4.121094zm0 0" fill="#3a5c7a"/><path d="m285.054688 262.074219c-3.152344-2.691407-7.886719-2.320313-10.574219.828125l-25.015625 29.277344-12.378906-12.203126c-2.953126-2.90625-7.699219-2.875-10.605469.074219-2.910157 2.949219-2.875 7.699219.074219 10.605469l18.117187 17.859375c1.40625 1.382813 3.296875 2.15625 5.265625 2.15625.105469 0 .210938 0 .320312-.007813 2.078126-.089843 4.027344-1.035156 5.378907-2.621093l30.246093-35.398438c2.691407-3.148437 2.320313-7.878906-.828124-10.570312zm0 0" fill="#00a0ff"/></svg>