<?xml version="1.0" encoding="iso-8859-1"?>
<!-- Generator: Adobe Illustrator 19.0.0, SVG Export Plug-In . SVG Version: 6.00 Build 0)  -->
<svg version="1.1" id="Capa_1" xmlns="http://www.w3.org/2000/svg" xmlns:xlink="http://www.w3.org/1999/xlink" x="0px" y="0px"
	 viewBox="0 0 512 512" style="enable-background:new 0 0 512 512;" xml:space="preserve">
<path style="fill:#67CDD9;" d="M91.774,222.189h328.453c10.675,0,19.321,8.646,19.321,19.321v173.887
	c0,10.675-8.646,19.321-19.321,19.321H91.774c-10.675,0-19.321-8.646-19.321-19.321V241.509
	C72.453,230.835,81.099,222.189,91.774,222.189z"/>
<circle style="fill:#FFDE17;" cx="256" cy="154.566" r="115.925"/>
<path d="M487.849,454.038h-9.66V212.528c0-16.007-12.974-28.981-28.981-28.981h-77.283v19.321h77.283c5.333,0,9.66,4.328,9.66,9.66
	v241.509H53.132V212.528c0-5.333,4.328-9.66,9.66-9.66h77.283v-19.321H62.792c-16.007,0-28.981,12.974-28.981,28.981v241.509h-9.66
	c-5.333,0-9.66,4.328-9.66,9.66v28.981c0,10.675,8.646,19.321,19.321,19.321h444.377c10.675,0,19.321-8.646,19.321-19.321v-28.981
	C497.509,458.366,493.182,454.038,487.849,454.038z M33.811,492.679v-19.321h173.887c0,5.333,4.328,9.66,9.66,9.66h77.283
	c5.333,0,9.66-4.328,9.66-9.66h173.887v19.321H33.811z"/>
<path d="M149.736,241.509v-19.321H91.774c-10.675,0-19.321,8.646-19.321,19.321v183.547c0,5.333,4.328,9.66,9.66,9.66h347.774
	c5.332,0,9.66-4.328,9.66-9.66V241.509c0-10.675-8.646-19.321-19.321-19.321h-57.962v19.321h57.962v173.887H91.774V241.509H149.736z
	"/>
<path d="M217.358,243.065v37.086h-28.981v19.321h28.981v19.321c0,5.333,4.328,9.66,9.66,9.66v19.321c0,5.333,4.328,9.66,9.66,9.66
	h38.642c5.333,0,9.66-4.328,9.66-9.66v-19.321c5.333,0,9.66-4.328,9.66-9.66v-19.321h28.981v-19.321h-28.981v-37.086
	c48.901-21.34,71.236-78.278,49.896-127.179c-21.34-48.901-78.278-71.236-127.179-49.896s-71.236,78.278-49.896,127.179
	C177.21,215.494,195.033,233.317,217.358,243.065z M265.66,338.113H246.34v-9.66h19.321V338.113z M275.321,309.132h-38.642v-9.66
	h38.642V309.132z M256,77.283c42.68,0.077,77.225,34.739,77.148,77.418c-0.058,32.642-20.615,61.73-51.374,72.675
	c-3.864,1.362-6.453,5.014-6.453,9.11v43.665h-38.642v-43.665c0-4.096-2.589-7.748-6.453-9.11
	c-40.216-14.307-61.208-58.503-46.901-98.719C194.27,97.898,223.358,77.341,256,77.283z"/>
<path d="M217.358,154.566c0-21.34,17.302-38.642,38.642-38.642V96.604c-31.995,0.029-57.933,25.967-57.962,57.962H217.358z"/>
<rect x="246.34" width="19.321" height="38.642"/>
<rect x="332.322" y="49.283" transform="matrix(-0.7071 0.7071 -0.7071 -0.7071 641.9701 -148.0257)" width="38.641" height="19.321"/>
<rect x="371.925" y="144.906" width="38.642" height="19.321"/>
<rect x="150.708" y="39.622" transform="matrix(-0.7071 0.7071 -0.7071 -0.7071 315.4436 -12.7764)" width="19.321" height="38.641"/>
<rect x="101.434" y="144.906" width="38.642" height="19.321"/>
<g>
</g>
<g>
</g>
<g>
</g>
<g>
</g>
<g>
</g>
<g>
</g>
<g>
</g>
<g>
</g>
<g>
</g>
<g>
</g>
<g>
</g>
<g>
</g>
<g>
</g>
<g>
</g>
<g>
</g>
</svg>
