<?xml version="1.0" encoding="UTF-8"?><svg xmlns="http://www.w3.org/2000/svg" viewBox="0 0 307.4 221.9"><defs><style>.d{fill:none;stroke:#231f20;stroke-linejoin:round;stroke-width:9px;}.e{font-family:Roboto-Bold, Roboto;font-size:72px;}</style></defs><g id="a"/><g id="b"><g id="c"><g><path class="d" d="M49.7,169.3h-2v-.05c.67,.04,1.33,.05,2,.05Z"/><path class="d" d="M260.08,169.24v.06h-2.38c.8,0,1.59-.02,2.38-.06Z"/><path class="d" d="M302.9,124.1c0,24.16-18.97,43.9-42.82,45.14-.79,.04-1.58,.06-2.38,.06h-49.8l-39.08-67.69c-5.07-8.8-17.77-8.8-22.84,0l-39.08,67.69H49.7c-.67,0-1.33,0-2-.05-24.03-1.04-43.2-20.86-43.2-45.15s20.24-45.2,45.2-45.2c6.41,0,12.5,1.33,18.02,3.74,4.72-19.92,22.62-34.74,43.98-34.74,7.02,0,13.67,1.6,19.59,4.46,8.79-27.75,34.76-47.86,65.41-47.86,37.88,0,68.59,30.71,68.59,68.6,0,2.16-.1,4.29-.3,6.39,21.5,3.48,37.91,22.12,37.91,44.61Z"/><path class="d" d="M212.83,217.4H101.97c-10.15,0-16.5-10.99-11.42-19.79l16.35-28.31,39.08-67.69c5.07-8.8,17.77-8.8,22.84,0l39.08,67.69,16.35,28.31c5.08,8.8-1.27,19.79-11.42,19.79Z"/><text class="e" transform="translate(149.19 187.74)"><tspan x="0" y="0">!</tspan></text></g></g></g></svg>