<?xml version="1.0" encoding="UTF-8"?><svg xmlns="http://www.w3.org/2000/svg" viewBox="0 0 271.5 266.92"><defs><style>.d{fill:#40a1f2;}.d,.e,.f{stroke:#fff;stroke-miterlimit:10;}.e{stroke-linecap:round;}.e,.f{fill:none;stroke-width:9px;}</style></defs><g id="a"/><g id="b"><g id="c"><g><path class="d" d="M267,49.74v212.68H4.5V49.74C4.5,24.75,24.75,4.5,49.74,4.5H221.75c24.99,0,45.25,20.25,45.25,45.24Z"/><g><g><line class="e" x1="42.98" y1="132.31" x2="96.24" y2="79.05"/><line class="e" x1="114" y1="77.81" x2="158.07" y2="111.23"/><line class="e" x1="174.5" y1="107.31" x2="219.1" y2="49.31"/></g><path class="f" d="M47,140.31c0,5.52-4.48,10-10,10s-10-4.48-10-10,4.48-10,10-10c2.25,0,4.32,.74,5.99,1.99,2.43,1.82,4.01,4.73,4.01,8.01Z"/><path class="f" d="M59.5,191.77v70.45c0,.05-.04,.09-.08,.09h-24.84s-.08-.04-.08-.09v-70.45s.04-.08,.08-.08h24.84s.08,.04,.08,.08Z"/><circle class="f" cx="104" cy="72.31" r="10"/><rect class="f" x="94.83" y="137.31" width="25" height="125" rx=".11" ry=".11"/><path class="f" d="M176,117.31c0,5.52-4.48,10-10,10s-10-4.48-10-10c0-2.29,.77-4.4,2.06-6.08,1.83-2.38,4.7-3.92,7.94-3.92,5.52,0,10,4.47,10,10Z"/><path class="f" d="M180.16,166.93v95.28c0,.05-.04,.1-.1,.1h-24.8c-.06,0-.1-.05-.1-.1v-95.28c0-.05,.04-.09,.1-.09h24.8c.06,0,.1,.04,.1,.09Z"/><path class="f" d="M240.5,94.68v167.46c0,.09-.04,.18-.1,.18h-24.8c-.06,0-.1-.09-.1-.18V94.68c0-.09,.04-.16,.1-.16h24.8c.06,0,.1,.07,.1,.16Z"/><circle class="f" cx="226" cy="39.31" r="10"/><path class="e" d="M267,49.74v212.68H4.5V49.74C4.5,24.75,24.75,4.5,49.74,4.5H221.75c24.99,0,45.25,20.25,45.25,45.24Z"/></g></g></g></g></svg>