<?xml version="1.0" encoding="UTF-8"?><svg xmlns="http://www.w3.org/2000/svg" viewBox="0 0 189.66 251.87"><defs><style>.d{stroke-width:5px;}.d,.e,.f,.g{fill:none;stroke:#231f20;stroke-linejoin:round;}.e{stroke-width:9px;}.f{stroke-width:3px;}.h{fill:#231f20;}</style></defs><g id="a"/><g id="b"><g id="c"><g><polygon class="e" points="149.53 87.64 149.53 247.37 4.5 247.37 4.5 38.48 100.37 38.48 149.53 87.64"/><polygon class="e" points="166.93 71.06 166.93 230.79 149.53 230.79 149.53 87.64 100.37 38.48 21.9 38.48 21.9 21.9 117.77 21.9 166.93 71.06"/><polygon class="e" points="185.16 53.66 185.16 213.39 166.93 213.39 166.93 71.06 117.77 21.9 40.14 21.9 40.14 4.5 136 4.5 185.16 53.66"/><rect class="d" x="28.85" y="105.42" width="33.03" height="30.98"/><rect class="d" x="88.85" y="105.42" width="33.03" height="30.98"/><rect class="d" x="28.85" y="165.42" width="33.03" height="30.98"/><rect class="d" x="88.85" y="165.42" width="33.03" height="30.98"/><g><line class="g" x1="105.37" y1="175.9" x2="105.37" y2="184.08"/><polygon class="h" points="100.38 182.62 105.37 191.26 110.36 182.62 100.38 182.62"/></g><line class="f" x1="105.37" y1="171.91" x2="105.37" y2="184.43"/></g></g></g></svg>