<?xml version="1.0" encoding="UTF-8"?><svg xmlns="http://www.w3.org/2000/svg" viewBox="0 0 189.67 251.86"><defs><style>.d,.e{fill:#40a1f2;}.f,.g{fill:none;}.f,.g,.e{stroke-linejoin:round;}.f,.e{stroke:#40a1f2;}.g{stroke:#fff;stroke-width:9px;}.e{stroke-width:3px;}</style></defs><g id="a"/><g id="b"><g id="c"><g><path class="d" d="M136.01,4.5H40.14V21.9H21.91v16.57H4.5V247.36H149.53v-16.57h17.4v-17.4h18.24V53.66L136.01,4.5ZM61.89,196.4H28.86v-30.98H61.89v30.98Zm0-60H28.86v-30.98H61.89v30.98Zm60,60h-33.03v-30.98h33.03v30.98Zm0-60h-33.03v-30.98h33.03v30.98Z"/><g><path class="g" d="M100.37,38.47H4.5V247.36H149.53V87.63l-49.16-49.16ZM61.89,196.4H28.86v-30.98H61.89v30.98Zm0-60H28.86v-30.98H61.89v30.98Zm60,60h-33.03v-30.98h33.03v30.98Zm0-60h-33.03v-30.98h33.03v30.98Z"/><polygon class="g" points="166.93 71.06 166.93 230.79 149.53 230.79 149.53 87.63 100.37 38.47 21.91 38.47 21.91 21.9 117.77 21.9 166.93 71.06"/><polygon class="g" points="185.17 53.66 185.17 213.39 166.93 213.39 166.93 71.06 117.77 21.9 40.14 21.9 40.14 4.5 136.01 4.5 185.17 53.66"/><g><line class="f" x1="105.37" y1="175.9" x2="105.37" y2="184.08"/><polygon class="d" points="100.39 182.62 105.37 191.25 110.36 182.62 100.39 182.62"/></g><line class="e" x1="105.37" y1="171.9" x2="105.37" y2="184.42"/></g></g></g></g></svg>