<?xml version="1.0" encoding="UTF-8"?><svg xmlns="http://www.w3.org/2000/svg" viewBox="0 0 302.59 274.17"><defs><style>.d,.e{fill:#40a1f2;}.e{stroke-miterlimit:10;}.e,.f,.g{stroke-width:9px;}.e,.f,.g,.h{stroke:#fff;}.f,.g,.h{fill:none;stroke-linejoin:round;}.f,.h{stroke-linecap:round;}.h{stroke-width:4px;}</style></defs><g id="a"/><g id="b"><g id="c"><g><path class="d" d="M298.09,164.54c0,23.5-19.05,42.56-42.56,42.56-.23,0-.45,0-.68-.01h-49.93v52.51H100.28v-52.5H50.57c-23.51,0-42.56-19.06-42.56-42.56,0-13.3,6.1-25.18,15.65-32.98l-2.1-2.1,13.68-21.55c-2.58-4.33-4.56-9.06-5.83-14.07l-24.91-5.56v-14.96l24.91-5.56c1.27-5.01,3.25-9.74,5.83-14.07l-13.68-21.55,10.57-10.58,21.56,13.69c4.33-2.58,9.05-4.57,14.06-5.83l5.57-24.92h14.95l5.56,24.92c5.02,1.26,9.74,3.25,14.07,5.83l21.56-13.69,10.57,10.58-13.69,21.55c2.59,4.33,4.57,9.06,5.84,14.07l1.6,.36c12.54-16.71,32.52-27.52,55.02-27.52,37.98,0,68.78,30.8,68.78,68.78,0,4.31-.4,8.53-1.16,12.61,23.1,.47,41.67,19.34,41.67,42.55Z"/><path class="g" d="M256.42,121.99c.76-4.08,1.16-8.3,1.16-12.61,0-37.98-30.8-68.78-68.78-68.78-22.5,0-42.48,10.81-55.02,27.52l23.31,5.2v14.96l-24.91,5.56c-1.27,5.01-3.25,9.74-5.84,14.07l13.69,21.55-10.57,10.58-21.56-13.69c-4.33,2.58-9.05,4.57-14.07,5.83l-5.56,24.92h-14.95l-5.57-24.92c-5.01-1.26-9.73-3.25-14.06-5.83l-21.56,13.69-8.47-8.48c-9.55,7.8-15.65,19.68-15.65,32.98,0,23.5,19.05,42.56,42.56,42.56H255.53c23.51,0,42.56-19.06,42.56-42.56s-18.57-42.08-41.67-42.55Zm-51.5,84.61H100.28v-28.16h104.64v28.16Z"/><g><rect class="g" x="100.28" y="178.44" width="104.64" height="28.16"/><rect class="g" x="100.28" y="206.6" width="104.64" height="53"/><line class="g" x1="100.28" y1="235.35" x2="203.55" y2="235.35"/><line class="h" x1="140.21" y1="191.71" x2="186.17" y2="191.71"/><line class="h" x1="125.59" y1="191.71" x2="127.88" y2="191.71"/><line class="h" x1="140.21" y1="220.71" x2="186.17" y2="220.71"/><line class="h" x1="125.59" y1="220.71" x2="127.88" y2="220.71"/><line class="h" x1="140.21" y1="247.71" x2="186.17" y2="247.71"/><line class="h" x1="125.59" y1="247.71" x2="127.88" y2="247.71"/><line class="f" x1="118.8" y1="262.18" x2="118.8" y2="269.67"/><line class="e" x1="189.8" y1="262.18" x2="189.8" y2="269.67"/></g><g><path class="g" d="M157.09,88.28v-14.96l-23.31-5.2-1.6-.36c-1.27-5.01-3.25-9.74-5.84-14.07l13.69-21.55-10.57-10.58-21.56,13.69c-4.33-2.58-9.05-4.57-14.07-5.83l-5.56-24.92h-14.95l-5.57,24.92c-5.01,1.26-9.73,3.25-14.06,5.83l-21.56-13.69-10.57,10.58,13.68,21.55c-2.58,4.33-4.56,9.06-5.83,14.07l-24.91,5.56v14.96l24.91,5.56c1.27,5.01,3.25,9.74,5.83,14.07l-13.68,21.55,2.1,2.1,8.47,8.48,21.56-13.69c4.33,2.58,9.05,4.57,14.06,5.83l5.57,24.92h14.95l5.56-24.92c5.02-1.26,9.74-3.25,14.07-5.83l21.56,13.69,10.57-10.58-13.69-21.55c2.59-4.33,4.57-9.06,5.84-14.07l24.91-5.56Zm-59.05-4.42c-1.45,8.22-8.62,14.46-17.25,14.46-4.97,0-9.46-2.08-12.65-5.41-3.01-3.15-4.86-7.42-4.86-12.11,0-9.67,7.84-17.52,17.51-17.52s17.52,7.85,17.52,17.52c0,1.04-.09,2.07-.27,3.06Z"/><path class="g" d="M98.31,80.8c0,1.04-.09,2.07-.27,3.06-1.45,8.22-8.62,14.46-17.25,14.46-4.97,0-9.46-2.08-12.65-5.41-3.01-3.15-4.86-7.42-4.86-12.11,0-9.67,7.84-17.52,17.51-17.52s17.52,7.85,17.52,17.52Z"/></g></g></g></g></svg>