<?xml version="1.0" encoding="UTF-8"?><svg xmlns="http://www.w3.org/2000/svg" viewBox="0 0 246.89 246.89"><defs><style>.d,.e{fill:#40a1f2;}.e{stroke-miterlimit:10;}.e,.f{stroke:#fff;}.f,.g{fill:none;stroke-linejoin:round;stroke-width:9px;}.g{stroke:#40a1f2;stroke-linecap:round;}</style></defs><g id="a"/><g id="b"><g id="c"><path class="e" d="M174.9,136.29c-1.27,5.01-3.25,9.74-5.84,14.07l13.69,21.55-10.57,10.58-21.56-13.69c-4.33,2.58-9.05,4.57-14.07,5.83l-5.56,24.92h-14.95l-5.57-24.92c-5.01-1.26-9.73-3.25-14.06-5.83l-21.56,13.69-8.47-8.48-2.1-2.1,13.68-21.55c-2.58-4.33-4.56-9.06-5.83-14.07l-24.91-5.56v-14.96l24.91-5.56c1.27-5.01,3.25-9.74,5.83-14.07l-13.68-21.55,10.57-10.58,21.56,13.69c4.33-2.58,9.05-4.57,14.06-5.83l5.57-24.92h14.95l5.56,24.92c5.02,1.26,9.74,3.25,14.07,5.83l21.56-13.69,10.57,10.58-13.69,21.55c2.59,4.33,4.57,9.06,5.84,14.07l1.6,.36,23.31,5.2v14.96l-24.91,5.56Z"/><g><g><path class="f" d="M199.81,130.73v-14.96l-23.31-5.2-1.6-.36c-1.27-5.01-3.25-9.74-5.84-14.07l13.69-21.55-10.57-10.58-21.56,13.69c-4.33-2.58-9.05-4.57-14.07-5.83l-5.56-24.92h-14.95l-5.57,24.92c-5.01,1.26-9.73,3.25-14.06,5.83l-21.56-13.69-10.57,10.58,13.68,21.55c-2.58,4.33-4.56,9.06-5.83,14.07l-24.91,5.56v14.96l24.91,5.56c1.27,5.01,3.25,9.74,5.83,14.07l-13.68,21.55,2.1,2.1,8.47,8.48,21.56-13.69c4.33,2.58,9.05,4.57,14.06,5.83l5.57,24.92h14.95l5.56-24.92c5.02-1.26,9.74-3.25,14.07-5.83l21.56,13.69,10.57-10.58-13.69-21.55c2.59-4.33,4.57-9.06,5.84-14.07l24.91-5.56Zm-59.05-4.42c-1.45,8.22-8.62,14.46-17.25,14.46-4.97,0-9.46-2.08-12.65-5.41-3.01-3.15-4.86-7.42-4.86-12.11,0-9.67,7.84-17.52,17.51-17.52s17.52,7.85,17.52,17.52c0,1.04-.09,2.07-.27,3.06Z"/><path class="f" d="M141.03,123.24c0,1.04-.09,2.07-.27,3.06-1.45,8.22-8.62,14.46-17.25,14.46-4.97,0-9.46-2.08-12.65-5.41-3.01-3.15-4.86-7.42-4.86-12.11,0-9.67,7.84-17.52,17.51-17.52s17.52,7.85,17.52,17.52Z"/></g><g><path class="g" d="M20.77,183.54C-7.2,135.87,1.15,73.55,43.8,35.1,87.45-4.24,152.22-5.28,196.88,29.86"/><polygon class="d" points="29.88 172.56 31.91 199.4 7.65 187.74 29.88 172.56"/></g><g><path class="g" d="M223.56,59.19c30.98,48.15,23.43,113.02-20.48,152.6-42.42,38.24-104.82,40.29-149.29,8.1-1.03-.75-2.05-1.51-3.06-2.29-.86-.67-1.89-1.54-3.01-2.54"/><polygon class="d" points="214.9 70.55 211.79 43.8 236.51 54.48 214.9 70.55"/></g></g></g></g></svg>