<?xml version="1.0" encoding="UTF-8"?><svg xmlns="http://www.w3.org/2000/svg" viewBox="0 0 232.11 295.74"><defs><style>.d{fill:#40a1f2;}.e{stroke-width:5px;}.e,.f,.g{fill:none;stroke:#fff;stroke-linejoin:round;}.f{stroke-linecap:round;}.f,.g{stroke-width:9px;}</style></defs><g id="a"/><g id="b"><g id="c"><g><path class="d" d="M227.61,220.14c0,39.27-31.84,71.1-71.11,71.1-29.33,0-54.51-17.75-65.38-43.1H4.5V4.5H121.5l55,54.7,3,2.92h-.07l.07,.07v90.65c27.98,9.55,48.11,36.08,48.11,67.3Z"/><g><path class="g" d="M179.5,62.19v90.65c-7.21-2.47-14.95-3.81-23-3.81-29.47,0-54.75,17.93-65.54,43.47-3.59,8.5-5.57,17.84-5.57,27.64s2.04,19.41,5.73,28H4.5V4.5H121.5l55,54.7,2.93,2.92,.07,.07Z"/><polygon class="f" points="179.5 62.12 120.18 62.12 120.18 4.5 176.5 59.2 179.5 62.12"/><path class="g" d="M227.61,220.14c0,39.27-31.84,71.1-71.11,71.1-29.33,0-54.51-17.75-65.38-43.1-3.69-8.59-5.73-18.06-5.73-28s1.98-19.14,5.57-27.64c10.79-25.54,36.07-43.47,65.54-43.47,8.05,0,15.79,1.34,23,3.81,27.98,9.55,48.11,36.08,48.11,67.3Z"/><path class="e" d="M205.1,222.27c-27.14,27.14-71.07,27.14-98.21,0v-1.64c27.14-27.14,71.07-27.14,98.21,0v1.64Z"/><circle class="e" cx="156.5" cy="221.13" r="21.11"/><circle class="e" cx="156.5" cy="221.13" r="8.37"/><line class="f" x1="29.5" y1="130.25" x2="135.39" y2="130.25"/><line class="f" x1="29.5" y1="151" x2="135.39" y2="151"/><line class="f" x1="29.5" y1="109.5" x2="65.8" y2="109.5"/><line class="f" x1="29.5" y1="171.75" x2="103.86" y2="171.75"/><line class="f" x1="29.5" y1="192.5" x2="90.96" y2="192.5"/></g></g></g></g></svg>