<svg xmlns="http://www.w3.org/2000/svg" width="211.367" height="211.367" viewBox="0 0 211.367 211.367">
  <g id="Group_1" data-name="Group 1" transform="translate(-893.9 -529)">
    <g id="Manage_Alert_Rule" data-name="Manage Alert Rule" transform="translate(893.9 529)">
      <path id="Path_2907" data-name="Path 2907" d="M213.11,125.591V97.519a4.128,4.128,0,0,0-4.128-4.128H193.535a83.423,83.423,0,0,0-11.162-26.966L193.29,55.508a4.127,4.127,0,0,0,0-5.838L173.44,29.82a4.127,4.127,0,0,0-5.838,0L156.685,40.738a83.425,83.425,0,0,0-26.966-11.162V14.128A4.128,4.128,0,0,0,125.591,10H97.519a4.128,4.128,0,0,0-4.128,4.128V29.6a83.436,83.436,0,0,0-26.926,11.18L55.508,29.82a4.127,4.127,0,0,0-5.838,0L29.82,49.67a4.127,4.127,0,0,0,0,5.838L40.8,66.489a83.412,83.412,0,0,0-11.122,26.9H14.128A4.128,4.128,0,0,0,10,97.519v28.072a4.128,4.128,0,0,0,4.128,4.128H29.7a83.446,83.446,0,0,0,11.14,26.861L29.82,167.6a4.127,4.127,0,0,0,0,5.838L49.67,193.29a4.127,4.127,0,0,0,5.838,0L66.53,182.267a83.446,83.446,0,0,0,26.861,11.14v15.575a4.128,4.128,0,0,0,4.128,4.128h28.072a4.128,4.128,0,0,0,4.128-4.128V193.43a83.388,83.388,0,0,0,26.9-11.122L167.6,193.29a4.127,4.127,0,0,0,5.838,0L193.29,173.44a4.127,4.127,0,0,0,0-5.838l-10.958-10.959a83.413,83.413,0,0,0,11.18-26.924h15.47A4.128,4.128,0,0,0,213.11,125.591Zm0,0" transform="translate(-5.872 -5.872)" fill="#d6e8ff"/>
      <path id="Path_2908" data-name="Path 2908" d="M119.719,211.367H91.647a8.266,8.266,0,0,1-8.257-8.256V190.785a87.216,87.216,0,0,1-22.112-9.169l-8.723,8.723a8.267,8.267,0,0,1-11.677,0L21.028,170.487a8.265,8.265,0,0,1,0-11.675l8.723-8.724a87.213,87.213,0,0,1-9.169-22.112H8.257A8.266,8.266,0,0,1,0,119.719V91.647a8.266,8.266,0,0,1,8.257-8.257h12.3a87.212,87.212,0,0,1,9.16-22.151l-8.685-8.685a8.265,8.265,0,0,1,0-11.675L40.879,21.028a8.267,8.267,0,0,1,11.677,0l8.655,8.656a87.212,87.212,0,0,1,22.18-9.208V8.256A8.266,8.266,0,0,1,91.647,0h28.072a8.266,8.266,0,0,1,8.256,8.257V20.449a87.253,87.253,0,0,1,22.217,9.2l8.619-8.618a8.265,8.265,0,0,1,11.675,0l19.851,19.851a8.267,8.267,0,0,1,0,11.677l-8.618,8.618a87.254,87.254,0,0,1,9.2,22.217H203.11a8.266,8.266,0,0,1,8.256,8.257v28.072a8.266,8.266,0,0,1-8.256,8.257H190.89a87.272,87.272,0,0,1-9.208,22.18l8.655,8.656a8.265,8.265,0,0,1,0,11.675l-19.849,19.851a8.267,8.267,0,0,1-11.677,0l-8.684-8.685a87.262,87.262,0,0,1-22.151,9.16v12.3a8.266,8.266,0,0,1-8.256,8.256Zm-59.06-39.1a4.122,4.122,0,0,1,2.221.648A79.047,79.047,0,0,0,88.411,183.5a4.129,4.129,0,0,1,3.236,4.031V203.11h28.072V187.558a4.127,4.127,0,0,1,3.241-4.032,79.107,79.107,0,0,0,25.569-10.572,4.129,4.129,0,0,1,5.138.563L164.649,184.5,184.5,164.65l-10.958-10.958a4.128,4.128,0,0,1-.558-5.144,79.1,79.1,0,0,0,10.627-25.592,4.127,4.127,0,0,1,4.03-3.236h15.47V91.647H187.663a4.127,4.127,0,0,1-4.031-3.241A79.053,79.053,0,0,0,173.02,62.775a4.131,4.131,0,0,1,.561-5.141L184.5,46.717,164.649,26.867,153.732,37.785a4.13,4.13,0,0,1-5.141.561,79.088,79.088,0,0,0-25.631-10.611,4.127,4.127,0,0,1-3.241-4.031V8.256H91.647v15.47a4.129,4.129,0,0,1-3.235,4.031A79.089,79.089,0,0,0,62.819,38.383a4.126,4.126,0,0,1-5.143-.558L46.717,26.868,26.867,46.717,37.849,57.7a4.126,4.126,0,0,1,.563,5.136A79.107,79.107,0,0,0,27.84,88.406a4.127,4.127,0,0,1-4.031,3.241H8.256v28.072H23.831a4.13,4.13,0,0,1,4.032,3.236,79.068,79.068,0,0,0,10.588,25.531,4.128,4.128,0,0,1-.561,5.141L26.867,164.65,46.717,184.5l11.022-11.024a4.129,4.129,0,0,1,2.92-1.209Zm0,0" transform="translate(0 0)" fill="#004fac"/>
      <path id="Path_2909" data-name="Path 2909" d="M232.288,176.144A56.144,56.144,0,1,1,176.144,120,56.145,56.145,0,0,1,232.288,176.144Zm0,0" transform="translate(-70.461 -70.461)" fill="#fff"/>
      <path id="Path_2910" data-name="Path 2910" d="M170.312,230.529a60.261,60.261,0,1,1,29.462-112.842,4.128,4.128,0,1,1-4.038,7.2,52.016,52.016,0,1,0,21.127,22.152,4.128,4.128,0,1,1,7.386-3.69,60.252,60.252,0,0,1-53.936,87.178Zm0,0" transform="translate(-64.629 -64.6)" fill="#004fac"/>
      <path id="Path_2911" data-name="Path 2911" d="M348.48,160.268a4.131,4.131,0,1,1,2.919-1.211A4.153,4.153,0,0,1,348.48,160.268Zm0,0" transform="translate(-202.195 -89.258)" fill="#004fac"/>
      <path id="Path_2912" data-name="Path 2912" d="M227.707,192.332l-22.952,22.952-11.3-11.3-14.807,14.807,11.3,11.3L204.754,244.9l37.759-37.759Zm0,0" transform="translate(-104.898 -112.932)" fill="#cbe558"/>
      <path id="Path_2913" data-name="Path 2913" d="M198.883,243.156a4.129,4.129,0,0,1-2.919-1.21l-26.106-26.108a4.127,4.127,0,0,1,0-5.838l14.807-14.808a4.133,4.133,0,0,1,5.839,0l8.379,8.381,20.033-20.031a4.126,4.126,0,0,1,5.838,0l14.808,14.809a4.129,4.129,0,0,1,0,5.837L201.8,241.947A4.135,4.135,0,0,1,198.883,243.156ZM178.615,212.92l20.269,20.269,31.921-31.92-8.969-8.969L201.8,212.331a4.129,4.129,0,0,1-5.84,0l-8.381-8.381Zm0,0" transform="translate(-99.026 -107.061)" fill="#004fac"/>
    </g>
  </g>
</svg>
