<?xml version="1.0" encoding="UTF-8"?><svg xmlns="http://www.w3.org/2000/svg" viewBox="0 0 154.59 171.47"><defs><style>.d{fill:none;stroke-linejoin:round;stroke-width:7px;}.d,.e{stroke:#fff;}.e{fill:#40a1f2;stroke-miterlimit:10;}</style></defs><g id="a"/><g id="b"><g id="c"><path class="e" d="M112.14,75.98c0,18.76-9.88,33.97-33.97,33.97-4.04,0-7.91-.7-11.49-1.99l-37.08,54.41c-4.94,6.33-14.17,7.47-20.5,2.53-3.68-2.87-5.6-7.19-5.6-11.54,0-3.15,1-6.31,3.07-8.97l43.69-49.04c-3.82-5.49-6.06-12.17-6.06-19.37,0-18.76,15.2-33.97,33.97-33.97,4.98,0,9.72,1.08,13.98,3.01l-11.01,15.48c-2.59,3.18-3.92,6.85-3.92,10.02,0,2.51,.84,4.72,2.56,6.12,3.9,3.17,10.88,1.09,15.52-4.62l12.21-13.16c2.94,5.03,4.63,10.88,4.63,17.12Z"/><path class="e" d="M64.75,128.18l5.57,24.92h14.95l5.56-24.92c5.02-1.26,9.74-3.25,14.07-5.83l21.56,13.69,10.57-10.58-13.69-21.55c2.59-4.33,4.57-9.06,5.84-14.07l24.91-5.56v-14.96l-23.31-5.2-1.6-.36c-1.27-5.01-3.25-9.74-5.84-14.07l13.69-21.55-10.57-10.58-21.56,13.69c-4.33-2.58-9.05-4.57-14.07-5.83L85.27,.5h-14.95l-5.57,24.92c-5.01,1.26-9.73,3.25-14.06,5.83l-21.56-13.69-10.57,10.58,13.68,21.55c-2.58,4.33-4.56,9.06-5.83,14.07L1.5,69.32v14.96l24.91,5.56c1.27,5.01,3.25,9.74,5.83,14.07"/><path class="d" d="M112.14,75.98c0,18.76-9.88,33.97-33.97,33.97-4.04,0-7.91-.7-11.49-1.99l-37.08,54.41c-4.94,6.33-14.17,7.47-20.5,2.53-3.68-2.87-5.6-7.19-5.6-11.54,0-3.15,1-6.31,3.07-8.97l43.69-49.04c-3.82-5.49-6.06-12.17-6.06-19.37,0-18.76,15.2-33.97,33.97-33.97,4.98,0,9.72,1.08,13.98,3.01l-11.01,15.48c-2.59,3.18-3.92,6.85-3.92,10.02,0,2.51,.84,4.72,2.56,6.12,3.9,3.17,10.88,1.09,15.52-4.62l12.21-13.16c2.94,5.03,4.63,10.88,4.63,17.12Z"/></g></g></svg>