<?xml version="1.0" encoding="UTF-8"?><svg xmlns="http://www.w3.org/2000/svg" viewBox="0 0 161.59 175.47"><defs><style>.d{stroke-width:9px;}.d,.e{fill:none;stroke:#231f20;stroke-linejoin:round;}.e{stroke-width:7px;}</style></defs><g id="a"/><g id="b"><g id="c"><path class="d" d="M67.75,132.18l5.57,24.92h14.95l5.56-24.92c5.02-1.26,9.74-3.25,14.07-5.83l21.56,13.69,10.57-10.58-13.69-21.55c2.59-4.33,4.57-9.06,5.84-14.07l24.91-5.56v-14.96l-23.31-5.2-1.6-.36c-1.27-5.01-3.25-9.74-5.84-14.07l13.69-21.55-10.57-10.58-21.56,13.69c-4.33-2.58-9.05-4.57-14.07-5.83l-5.56-24.92h-14.95l-5.57,24.92c-5.01,1.26-9.73,3.25-14.06,5.83l-21.56-13.69-10.57,10.58,13.68,21.55c-2.58,4.33-4.56,9.06-5.83,14.07l-24.91,5.56v14.96l24.91,5.56c1.27,5.01,3.25,9.74,5.83,14.07"/><path class="e" d="M115.14,79.98c0,18.76-9.88,33.97-33.97,33.97-4.03,0-7.9-.7-11.49-1.99l-37.08,54.41c-4.94,6.33-14.17,7.47-20.5,2.52-3.68-2.87-5.6-7.18-5.6-11.54,0-3.15,1-6.31,3.08-8.97l43.69-49.05c-3.83-5.49-6.07-12.17-6.07-19.37,0-18.76,15.21-33.97,33.97-33.97,4.98,0,9.72,1.08,13.99,3l-11.01,15.49c-2.59,3.18-3.92,6.85-3.92,10.02,0,2.51,.84,4.72,2.56,6.12,3.9,3.17,10.88,1.09,15.53-4.62l12.21-13.16c2.94,5.03,4.63,10.88,4.63,17.11Z"/></g></g></svg>