<?xml version="1.0" encoding="UTF-8"?><svg xmlns="http://www.w3.org/2000/svg" viewBox="0 0 200.34 189.29"><defs><style>.d{stroke-width:5px;}.d,.e,.f{fill:none;stroke:#40a1f2;stroke-linejoin:round;}.e,.f{stroke-width:9px;}.g{fill:#fff;stroke:#fff;stroke-miterlimit:10;}.f{stroke-linecap:round;}</style></defs><g id="a"/><g id="b"><g id="c"><path class="g" d="M195.84,54.5c0,27.62-22.39,50-50,50-13.94,0-26.54-5.7-35.6-14.89-8.91-9.03-14.4-21.43-14.4-35.11,0-27.61,22.38-50,50-50s50,22.39,50,50Z"/><g><path class="e" d="M195.84,54.5c0,27.62-22.39,50-50,50-13.94,0-26.54-5.7-35.6-14.89-8.91-9.03-14.4-21.43-14.4-35.11,0-27.61,22.38-50,50-50s50,22.39,50,50Z"/><circle class="d" cx="145.84" cy="54.5" r="20"/><line class="f" x1="110.24" y1="89.61" x2="15.06" y2="184.79"/><line class="f" x1="15.06" y1="184.79" x2="4.5" y2="174.5"/><line class="f" x1="30.75" y1="168.6" x2="9.22" y2="147.55"/><line class="f" x1="46.44" y1="152.41" x2="33.03" y2="139"/></g></g></g></svg>