<?xml version="1.0" encoding="UTF-8"?><svg xmlns="http://www.w3.org/2000/svg" viewBox="0 0 296.6 248.85"><defs><style>.d{fill:none;stroke:#231f20;stroke-linejoin:round;stroke-width:9px;}.e{fill:#231f20;}</style></defs><g id="a"/><g id="b"><g id="c"><g><path class="d" d="M221.12,88.67l-2.12-.48c-1.68-6.63-4.3-12.88-7.73-18.61l18.12-28.51-13.99-14-28.52,18.11c-5.73-3.41-11.97-6.04-18.62-7.71l-7.35-32.97h-19.78l-7.37,32.97c-6.63,1.67-12.87,4.3-18.6,7.71l-28.52-18.11-13.99,14,18.1,28.51c-3.41,5.73-6.03,11.98-7.71,18.61l-32.96,7.36v19.79l8.69,1.94h.02l.87,.2h.01l23.37,5.22c.75,2.97,1.7,5.88,2.82,8.69l58.19,30.9v44.1h8.5v-44.1l64.95-34.49c.56-1.67,1.06-3.37,1.5-5.1l13.99-3.12,.95-.22,13.66-2.54v-1.08l10.87-6.32-6.51-13.87-30.84-6.88Zm-47.29,20.82c-1.91,10.88-11.4,19.13-22.82,19.13-6.57,0-12.51-2.75-16.73-7.16-3.98-4.16-6.43-9.81-6.43-16.02,0-12.79,10.37-23.17,23.16-23.17s23.18,10.38,23.18,23.17c0,1.38-.12,2.74-.36,4.05Z"/><path class="e" d="M151.01,133.12c-7.61,0-14.71-3.03-19.99-8.54-4.95-5.19-7.68-11.98-7.68-19.13,0-15.26,12.41-27.68,27.67-27.68s27.68,12.42,27.68,27.68c0,1.65-.14,3.28-.43,4.85-2.33,13.22-13.79,22.83-27.25,22.83Zm0-46.36c-10.29,0-18.67,8.38-18.67,18.68,0,4.83,1.84,9.41,5.18,12.91,3.56,3.72,8.35,5.77,13.48,5.77,9.08,0,16.81-6.48,18.39-15.41,.19-1.06,.29-2.15,.29-3.27,0-10.3-8.38-18.68-18.68-18.68Z"/></g><g><path class="e" d="M148.55,248.85L27.05,184.32v-41.33l90.84,48.24,18.75-23.03-54.05-29.02-.62-1.41c-.11-.24-.22-.5-.31-.74l-4.38-11.28,71.27,37.85v.79l1.96,1.05-1.96,2.41v81.01ZM36.05,178.91l103.5,54.97v-54.99l-19.34,23.75-84.16-44.68v20.95Z"/><path class="e" d="M95.52,146.11L27.05,109.35v-10.29l62.4,33.13,.61,1.56c.05,.12,.1,.24,.15,.36l5.32,12Z"/><path class="e" d="M120.21,202.64L0,138.81l27.07-39.67,24.76,13.3,3.44,1.07,5.75,3.86,89.5,48.06-30.31,37.21ZM13.1,135.57l104.79,55.65,18.75-23.03L57.66,125.78h-.24l-6.08-4.06-3.01-.94-18.4-9.88-16.84,24.67Z"/><path class="e" d="M148.05,248.85v-81.01l-1.96-2.41,1.96-1.05v-.79l77.88-41.36-4.22,11.16c-.03,.08-.05,.15-.07,.23l-.55,1.76-61.14,32.82,18.75,23.03,90.85-48.24v41.33l-121.5,64.53Zm9-69.96v54.99l103.5-54.97v-20.95l-84.15,44.68-19.35-23.75Z"/><path class="e" d="M209.77,141.45l3.27-10.51c.08-.25,.16-.49,.25-.74l.6-1.59,55.66-29.56v10.29l-59.78,32.1Z"/><path class="e" d="M176.4,202.64l-30.31-37.21,85.91-46.12,15.02-7.2,2.32-2.11,20.2-10.85,27.07,39.67-120.21,63.83Zm-16.44-34.44l18.75,23.03,104.79-55.65-16.83-24.67-12.08,6.49-1.47,1.34c-.66,.6-1.4,1.11-2.21,1.49l-14.93,7.15-76.03,40.82Z"/></g></g></g></svg>