<svg xmlns="http://www.w3.org/2000/svg" width="213" height="245" viewBox="0 0 213 245">
  <g id="Group_2" data-name="Group 2" transform="translate(-1000 -278)">
    <g id="Page-1" transform="translate(1000 294.4)">
      <g id="_046---Important-Message" data-name="046---Important-Message" transform="translate(0 0)">
        <ellipse id="Oval" cx="106.5" cy="107" rx="106.5" ry="107" transform="translate(0 -0.4)" fill="#3b97d3"/>
        <path id="Shape" d="M36.474,87.454a6.786,6.786,0,0,1-6.4-9.052A88.576,88.576,0,0,1,69.141,31.437a6.786,6.786,0,0,1,6.786,11.746A74.963,74.963,0,0,0,42.853,82.934,6.786,6.786,0,0,1,36.474,87.454Z" transform="translate(-9.437 -3.927)" fill="#9fc9d3"/>
        <ellipse id="Oval-2" data-name="Oval" cx="8.5" rx="8.5" transform="translate(16 98.6)" fill="#9fc9d3"/>
      </g>
    </g>
    <text id="_" data-name="?" transform="translate(1066 477)" fill="#3d1212" font-size="184" font-family="SegoeUI, Segoe UI"><tspan x="0" y="0">?</tspan></text>
  </g>
</svg>
