<?xml version="1.0" encoding="UTF-8"?><svg xmlns="http://www.w3.org/2000/svg" viewBox="0 0 296.6 244.85"><defs><style>.d{fill:#40a1f2;}.e{fill:#fff;}.f{fill:none;}</style></defs><g id="a"/><g id="b"><g id="c"><g><path class="d" d="M290.05,133.19l-25,13.28v31.14l-112.5,59.75v-34.97h-8.5v34.97L31.55,177.61v-31.14l-25-13.28,21.95-32.17,3.05,1.64v-.11l18.53,9.84,1,.53,2.22,.69,3.52,2.36,2.84,1.51h.01l26.19,13.91,58.19,30.9v-4l-58.19-30.9c-1.12-2.81-2.07-5.72-2.82-8.69l-23.37-5.22h-.01l-.87-.2h-.02l-8.69-1.94v-19.79l32.96-7.36c1.68-6.63,4.3-12.88,7.71-18.61l-18.1-28.51,13.99-14,28.52,18.11c5.73-3.41,11.97-6.04,18.6-7.71L141.13,.5h19.78l7.35,32.97c6.65,1.67,12.89,4.3,18.62,7.71l28.52-18.11,13.99,14-18.12,28.51c3.43,5.73,6.05,11.98,7.73,18.61l2.12,.48,30.84,6.88,6.51,13.87-10.86,6.32v.07l4.35-2.31,13.09-6.95v.11l3.05-1.64,21.95,32.17Z"/><path class="e" d="M152.05,238.19v-35.3h-7.5v35.3l-.73-.39L31.05,177.91v-31.14l-25.23-13.4,22.52-33,2.71,1.46v-.1l18.53,9.84v-20.41l.39-.09,32.66-7.29c1.64-6.37,4.18-12.49,7.53-18.18l-18.15-28.59,14.56-14.57,28.6,18.16c5.72-3.37,11.83-5.91,18.17-7.53L140.73,0h20.58l7.37,33.06c6.35,1.62,12.46,4.16,18.19,7.53l28.6-18.16,14.56,14.57-18.17,28.59c3.36,5.67,5.9,11.79,7.55,18.18l1.82,.41,31.08,6.93,6.62,14.12,6.62-3.51v.1l2.71-1.46,.25,.37,22.26,32.63-25.23,13.4v31.14l-.27,.14-113.23,60.14Zm-8.5-36.3h9.5v34.64l111.5-59.22v-31.14l24.77-13.16-21.38-31.34-3.39,1.82v-.11l-17.44,9.26v-1.12l.25-.22,10.46-6.09-6.21-13.23-33.02-7.37-.08-.3c-1.65-6.51-4.23-12.72-7.67-18.48l-.16-.26,18.07-28.43-13.42-13.43-28.44,18.06-.26-.16c-5.81-3.46-12.03-6.03-18.49-7.65l-.3-.08L160.51,1h-18.98l-7.35,32.88-.3,.08c-6.45,1.62-12.66,4.2-18.47,7.65l-.26,.16-.26-.17-28.18-17.9-13.42,13.43,18.05,28.43-.16,.26c-3.44,5.77-6.01,11.99-7.66,18.48l-.08,.3-32.87,7.34v18.99l32.87,7.34,.08,.3c.72,2.84,1.64,5.69,2.73,8.46l58.29,30.96v5.13L56.59,116.41l-3.5-2.34-2.15-.67-1.09-.57-17.8-9.45v.11l-3.39-1.82-21.38,31.34,24.77,13.16v31.14l111.5,59.22v-34.64ZM59.79,116.98h0l.12,.06,83.65,44.42v-2.87l-58.09-30.85-.07-.17c-1.1-2.77-2.03-5.61-2.76-8.45l-32.46-7.25,1.14,.61,2.26,.72,3.52,2.36,2.69,1.42Z"/></g><g><path class="f" d="M251.96,91.55l-30.84-6.88-2.12-.48c-1.68-6.63-4.3-12.88-7.73-18.61l18.12-28.51-13.99-14-28.52,18.11c-5.73-3.41-11.97-6.04-18.62-7.71L160.91,.5h-19.78l-7.37,32.97c-6.63,1.67-12.87,4.3-18.6,7.71l-28.52-18.11-13.99,14,18.1,28.51c-3.41,5.73-6.03,11.98-7.71,18.61l-32.96,7.36v19.79l8.69,1.94h.02l.87,.2h.01l23.37,5.22c.75,2.97,1.7,5.88,2.82,8.69l58.19,30.9v44.1h8.5v-44.1l64.95-34.49c.56-1.67,1.06-3.37,1.5-5.1l13.99-3.12,.95-.22,10.75-2,.65-.12,2.23-.41h.03v-1.09l10.87-6.32-6.51-13.87Zm-100.95,37.57c-7.61,0-14.71-3.04-19.98-8.55-.66-.68-1.23-1.34-1.73-2-.77-.96-1.51-2.04-2.16-3.16-2.48-4.21-3.79-9.05-3.79-13.98,0-15.26,12.41-27.67,27.66-27.67s27.68,12.41,27.68,27.67c0,1.65-.14,3.28-.43,4.84-.07,.39-.15,.78-.23,1.15-.17,.79-.38,1.55-.63,2.37-.4,1.24-.85,2.37-1.35,3.42-.31,.67-.69,1.4-1.11,2.12-.36,.63-.78,1.28-1.25,1.96-.51,.71-.97,1.3-1.44,1.87-.49,.6-1.04,1.2-1.63,1.79-5.23,5.25-12.2,8.15-19.62,8.15Zm0-46.35c-10.29,0-18.66,8.38-18.66,18.67,0,3.33,.88,6.59,2.55,9.43,.44,.75,.93,1.47,1.48,2.15,.35,.45,.71,.86,1.14,1.32,3.57,3.73,8.36,5.78,13.49,5.78s9.71-1.96,13.24-5.5c.39-.39,.75-.78,1.06-1.16,.36-.44,.7-.88,1.04-1.35,.28-.4,.57-.86,.82-1.3,.28-.49,.52-.94,.74-1.41,.36-.75,.66-1.51,.91-2.31,.16-.53,.31-1.07,.42-1.58,.05-.24,.11-.52,.16-.81,0-.01,0-.02,0-.03,.19-1.04,.29-2.13,.29-3.24,0-10.29-8.38-18.67-18.68-18.67Z"/><path class="e" d="M151.01,129.12c-7.61,0-14.71-3.03-19.99-8.54-4.95-5.19-7.68-11.98-7.68-19.13,0-15.26,12.41-27.68,27.67-27.68s27.68,12.42,27.68,27.68c0,1.65-.14,3.28-.43,4.85-2.33,13.22-13.79,22.83-27.25,22.83Zm0-46.36c-10.29,0-18.67,8.38-18.67,18.68,0,4.83,1.84,9.41,5.18,12.91,3.56,3.72,8.35,5.77,13.48,5.77,9.08,0,16.81-6.48,18.39-15.41,.19-1.06,.29-2.15,.29-3.27,0-10.3-8.38-18.68-18.68-18.68Z"/></g><g><path class="e" d="M148.55,244.85L27.05,180.32v-41.33l90.84,48.24,18.75-23.03-54.05-29.02-.63-1.41c-.11-.25-.22-.51-.31-.75l-4.34-11.25,71.23,37.83v.79l1.96,1.05-1.96,2.41v81.01ZM36.05,174.91l103.5,54.97v-54.99l-19.34,23.75-84.16-44.68v20.95Z"/><path class="e" d="M95.52,142.11L27.05,105.35v-10.29l62.4,33.14,.6,1.57c.04,.11,.09,.23,.15,.35l5.32,12Z"/><path class="e" d="M120.21,198.64L0,134.81l27.07-39.67,24.76,13.3,3.44,1.07,5.76,3.86,89.5,48.05-30.31,37.21ZM13.1,131.57l104.79,55.65,18.75-23.03L57.66,121.78h-.24l-6.08-4.07-3-.93-18.4-9.88-16.83,24.67Z"/><path class="e" d="M148.05,244.85v-81.01l-1.96-2.41,1.96-1.05v-.79l77.79-41.31-4.13,11.09c-.03,.08-.06,.17-.08,.25l-.55,1.76-61.14,32.82,18.75,23.03,90.85-48.24v41.33l-121.5,64.53Zm9-69.96v54.99l103.5-54.97v-20.95l-84.15,44.68-19.35-23.75Z"/><path class="e" d="M209.78,137.45l3.27-10.51c.07-.24,.15-.48,.24-.71l.6-1.6,55.67-29.56v10.29l-59.78,32.1Z"/><path class="e" d="M176.4,198.64l-30.31-37.21,85.91-46.12,15.02-7.2,2.32-2.11,20.2-10.85,27.07,39.67-120.21,63.83Zm-16.44-34.44l18.75,23.03,104.79-55.65-16.83-24.67-12.08,6.49-1.47,1.34c-.68,.62-1.45,1.13-2.27,1.51l-14.87,7.13-76.03,40.82Z"/></g></g></g></svg>