<?xml version="1.0" encoding="UTF-8"?><svg xmlns="http://www.w3.org/2000/svg" viewBox="0 0 218.66 218.66"><defs><style>.d,.e{stroke-width:4px;}.d,.e,.f,.g,.h{fill:none;stroke:#000;stroke-miterlimit:10;}.e{stroke-linecap:round;}.f{stroke-width:3px;}.g{stroke-width:2px;}.h{stroke-width:9px;}</style></defs><g id="a"/><g id="b"><g id="c"><circle class="g" cx="18.91" cy="19.52" r="2.41"/><circle class="g" cx="34.91" cy="19.52" r="2.41"/><circle class="g" cx="50.91" cy="19.52" r="2.41"/><rect class="h" x="4.5" y="4.5" width="209.66" height="209.66" rx="14.39" ry="14.39"/><line class="h" x1="4.5" y1="32.95" x2="214.16" y2="32.95"/><path class="d" d="M106.19,188.72c-20.57-10.23-37.95-25.92-50.25-45.37-12.65-20-19.33-43.13-19.33-66.9,0-1.4,.02-2.76,.07-4.07l.32-9.14,9.09,1.01c3.91,.43,7.92,.65,11.92,.65,8.13,0,16.24-.91,24.1-2.69,8.32-1.89,16.42-4.77,24.08-8.58l3.77-1.88,3.77,1.88c7.66,3.81,15.77,6.69,24.08,8.58,7.86,1.79,15.97,2.69,24.1,2.69,4,0,8.01-.22,11.92-.65l9.09-1.01,.32,9.14c.05,1.3,.07,2.67,.07,4.07,0,23.77-6.68,46.9-19.33,66.9-12.3,19.45-29.68,35.14-50.25,45.37l-3.78,1.88-3.78-1.88Z"/><path class="f" d="M175.85,76.45c0,45.86-26.42,85.55-64.88,104.68-38.45-19.12-64.88-58.82-64.88-104.68,0-1.26,.02-2.52,.06-3.77,4.22,.47,8.51,.7,12.85,.7,8.93,0,17.63-1,25.98-2.9,9.11-2.07,17.81-5.2,25.98-9.26,8.17,4.06,16.87,7.19,25.98,9.26,8.35,1.9,17.05,2.9,25.98,2.9,4.34,0,8.63-.24,12.85-.7,.04,1.25,.06,2.51,.06,3.77Z"/><polyline class="e" points="78.33 127.33 103.33 152.33 153.33 86.86"/></g></g></svg>