<svg xmlns="http://www.w3.org/2000/svg" width="20" height="15" viewBox="0 0 20 15"><defs><style>.a{fill:#303c42;}.b{fill:#00aaf0;}.c{fill:#fce182;}</style></defs><g transform="translate(0 -64)"><path class="a" d="M19.583,69.417A.416.416,0,0,0,20,69V65.667A1.668,1.668,0,0,0,18.333,64H1.667A1.668,1.668,0,0,0,0,65.667V69a.416.416,0,0,0,.417.417,2.083,2.083,0,1,1,0,4.167A.416.416,0,0,0,0,74v3.333A1.668,1.668,0,0,0,1.667,79H18.333A1.668,1.668,0,0,0,20,77.333V74a.416.416,0,0,0-.417-.417,2.083,2.083,0,0,1,0-4.167Z"/><path class="b" d="M39.667,94.888v2.946a.834.834,0,0,1-.833.833H22.167a.834.834,0,0,1-.833-.833V94.888a2.917,2.917,0,0,0,0-5.774V86.167a.834.834,0,0,1,.833-.833H38.834a.834.834,0,0,1,.833.833v2.946a2.917,2.917,0,0,0,0,5.774Z" transform="translate(-20.501 -20.501)"/><path class="c" d="M38.834,378.011H22.167a.769.769,0,0,1-.833-.677v1.094a.834.834,0,0,0,.833.833H38.834a.834.834,0,0,0,.833-.833v-1.094A.769.769,0,0,1,38.834,378.011Z" transform="translate(-20.501 -301.094)"/><path class="c" d="M38.834,85.333H22.167a.834.834,0,0,0-.833.833V87.26a.768.768,0,0,1,.833-.677H38.834a.768.768,0,0,1,.833.677V86.166A.834.834,0,0,0,38.834,85.333Z" transform="translate(-20.501 -20.5)"/><g transform="translate(5 65.563)"><path class="a" d="M128.417,104a.416.416,0,0,0-.417.417v.938a.417.417,0,1,0,.833,0v-.937A.416.416,0,0,0,128.417,104Z" transform="translate(-128 -104)"/><path class="a" d="M128.417,192a.416.416,0,0,0-.417.417v.833a.417.417,0,1,0,.833,0v-.833A.416.416,0,0,0,128.417,192Z" transform="translate(-128 -188.562)"/><path class="a" d="M128.417,277.333a.416.416,0,0,0-.417.417v.833a.417.417,0,1,0,.833,0v-.833A.416.416,0,0,0,128.417,277.333Z" transform="translate(-128 -270.562)"/><path class="a" d="M128.417,362.667a.416.416,0,0,0-.417.417v.833a.417.417,0,0,0,.833,0v-.833A.416.416,0,0,0,128.417,362.667Z" transform="translate(-128 -352.563)"/><path class="a" d="M219.583,170.667H213.75a.417.417,0,0,0,0,.833h5.833a.417.417,0,0,0,0-.833Z" transform="translate(-210 -168.063)"/><path class="a" d="M219.583,245.333H213.75a.417.417,0,0,0,0,.833h5.833a.417.417,0,0,0,0-.833Z" transform="translate(-210 -239.812)"/><path class="a" d="M219.583,320H213.75a.417.417,0,0,0,0,.833h5.833a.417.417,0,0,0,0-.833Z" transform="translate(-210 -311.562)"/></g></g></svg>