<?xml version="1.0" encoding="UTF-8"?><svg xmlns="http://www.w3.org/2000/svg" viewBox="0 0 207.63 208.43"><defs><style>.d{stroke-width:6px;}.d,.e,.f,.g,.h,.i{stroke:#fff;}.d,.f,.g,.h,.i,.j{fill:none;}.d,.g,.i{stroke-linejoin:round;}.e{fill:#40a1f2;}.e,.f,.h,.j{stroke-miterlimit:10;}.f{stroke-width:2px;}.g{stroke-width:5px;}.h,.i{stroke-width:9px;}.j{stroke:#40a1f2;stroke-linecap:round;stroke-width:8px;}</style></defs><g id="a"/><g id="b"><g id="c"><path class="e" d="M182.29,148.11c0,9.62-4.08,18.29-10.61,24.38-5.95,5.53-13.93,8.93-22.7,8.93-10.82,0-20.45-5.17-26.54-13.17H16.4c-6.57,0-11.9-5.33-11.9-11.89V16.4c0-6.57,5.33-11.9,11.9-11.9H156.35c6.57,0,11.9,5.33,11.9,11.9V120.94c8.5,6.03,14.04,15.95,14.04,27.17Z"/><circle class="f" cx="12.59" cy="16.97" r="1.93"/><circle class="f" cx="25.42" cy="16.97" r="1.93"/><circle class="f" cx="38.24" cy="16.97" r="1.93"/><g><path class="d" d="M94.81,107.9v-7l-10.9-2.43-.75-.17c-.6-2.34-1.52-4.56-2.73-6.58l6.4-10.08-4.95-4.95-10.08,6.4c-2.03-1.21-4.23-2.13-6.58-2.73l-2.6-11.66h-7l-2.6,11.66c-2.34,.59-4.55,1.52-6.58,2.73l-10.09-6.4-4.94,4.95,6.4,10.08c-1.21,2.02-2.13,4.24-2.73,6.58l-11.65,2.6v7l11.65,2.6c.59,2.34,1.52,4.56,2.73,6.58l-3.5,5.51-2.9,4.57,.98,.98,3.96,3.97,10.09-6.4c2.02,1.21,4.23,2.13,6.58,2.73l2.6,11.66h7l2.6-11.66c2.35-.59,4.55-1.52,6.58-2.73l10.08,6.4,4.95-4.95-2.91-4.57-3.5-5.51c1.21-2.02,2.13-4.24,2.73-6.58l11.65-2.6Zm-27.62-2.07c-.68,3.85-4.04,6.76-8.07,6.76-2.32,0-4.42-.97-5.92-2.53-1.4-1.47-2.27-3.47-2.27-5.67,0-4.52,3.67-8.19,8.19-8.19s8.2,3.67,8.2,8.19c0,.49-.04,.97-.12,1.43Z"/><path class="d" d="M67.31,104.39c0,.49-.04,.97-.12,1.43-.68,3.85-4.04,6.76-8.07,6.76-2.32,0-4.42-.97-5.92-2.53-1.4-1.47-2.27-3.47-2.27-5.67,0-4.52,3.67-8.19,8.19-8.19s8.2,3.67,8.2,8.19Z"/></g><g><path class="g" d="M135.64,66.71l-.75-4.4-7.12-.36-.49-.03c-.63-1.41-1.44-2.7-2.42-3.85l2.95-7.02-3.64-2.58-5.65,5.1c-1.41-.54-2.89-.89-4.43-1.01l-2.88-7.05-4.4,.75-.39,7.61c-1.41,.62-2.7,1.44-3.84,2.42l-7.03-2.95-2.58,3.64,5.1,5.65c-.54,1.4-.89,2.89-1.01,4.43l-7.05,2.88,.75,4.4,7.6,.39c.62,1.41,1.44,2.7,2.42,3.85l-1.61,3.84-1.33,3.18,.72,.51,2.91,2.07,5.66-5.1c1.4,.54,2.89,.89,4.43,1.01l2.88,7.05,4.4-.75,.39-7.61c1.41-.62,2.7-1.44,3.85-2.42l7.02,2.95,2.58-3.64-2.32-2.56-2.79-3.09c.55-1.4,.89-2.89,1.01-4.43l7.05-2.88Zm-17.59,1.65c-.02,2.49-1.82,4.68-4.35,5.12-1.46,.25-2.88-.14-3.99-.96-1.04-.78-1.8-1.94-2.04-3.32-.48-2.84,1.43-5.54,4.27-6.02,2.85-.48,5.55,1.43,6.03,4.27,.05,.31,.08,.61,.08,.91Z"/><path class="g" d="M117.98,67.44c.05,.31,.08,.61,.08,.91-.02,2.49-1.82,4.68-4.35,5.12-1.46,.25-2.88-.14-3.99-.96-1.04-.78-1.8-1.94-2.04-3.32-.48-2.84,1.43-5.54,4.27-6.02,2.85-.48,5.55,1.43,6.03,4.27Z"/></g><g><path class="g" d="M137.11,116.29c-.33-1.51-.87-2.94-1.59-4.26l4.31-6.29-3.04-3.26-6.57,3.86c-1.27-.82-2.65-1.46-4.14-1.89l-1.39-7.49-4.46-.15-1.92,7.37c-1.51,.32-2.94,.87-4.26,1.59l-6.29-4.31-3.26,3.04,3.86,6.57c-.82,1.26-1.46,2.65-1.89,4.13l-7.48,1.39-.16,4.47,7.37,1.92c.32,1.51,.87,2.94,1.59,4.26l-2.36,3.43-1.95,2.85,.6,.65,2.44,2.62,6.57-3.86c1.26,.82,2.65,1.46,4.13,1.88l.38,2.08c3.41-9.52,11.02-17.04,20.61-20.31l-.63-.17-.47-.12Zm-10.35,4.43c-.51,2.44-2.73,4.22-5.3,4.13-1.48-.05-2.79-.71-3.71-1.74-.86-.98-1.37-2.27-1.32-3.66,.1-2.89,2.53-5.14,5.41-5.03,2.89,.1,5.14,2.53,5.03,5.4,0,.31-.05,.62-.11,.91Z"/><path class="g" d="M126.87,119.81c-.01,.31-.05,.62-.11,.91-.52,2.44-2.73,4.22-5.3,4.13-1.48-.05-2.8-.72-3.71-1.75-.86-.97-1.37-2.26-1.32-3.66,.1-2.88,2.53-5.14,5.41-5.03,2.89,.1,5.14,2.53,5.04,5.41Z"/></g><path class="i" d="M168.25,16.4V120.94c-5.44-3.87-12.09-6.14-19.27-6.14-3.77,0-7.38,.62-10.77,1.78-9.59,3.27-17.2,10.78-20.61,20.3-1.26,3.51-1.94,7.29-1.94,11.23,0,7.56,2.53,14.55,6.78,20.14H16.4c-6.57,0-11.9-5.33-11.9-11.89V16.4c0-6.57,5.33-11.9,11.9-11.9H156.35c6.57,0,11.9,5.33,11.9,11.9Z"/><line class="h" x1="4.5" y1="29.4" x2="168.25" y2="29.4"/><path class="i" d="M182.29,148.11c0,9.62-4.08,18.29-10.61,24.38-5.95,5.53-13.93,8.93-22.7,8.93-10.82,0-20.45-5.17-26.54-13.17-4.25-5.59-6.78-12.58-6.78-20.14,0-3.94,.68-7.72,1.94-11.23,3.41-9.52,11.02-17.03,20.61-20.3,3.39-1.16,7-1.78,10.77-1.78,7.18,0,13.83,2.27,19.27,6.14,8.5,6.03,14.04,15.95,14.04,27.17Z"/><line class="j" x1="168.67" y1="169.48" x2="203.63" y2="204.43"/></g></g></svg>