<?xml version="1.0" encoding="UTF-8"?><svg xmlns="http://www.w3.org/2000/svg" viewBox="0 0 166.16 221.02"><defs><style>.d,.e{stroke-width:9px;}.d,.e,.f,.g,.h{stroke:#393478;}.d,.e,.g,.h{stroke-miterlimit:10;}.d,.h{fill:none;}.e,.f{fill:#5fc4f0;}.f{stroke-linejoin:round;}.f,.h{stroke-width:4px;}.i,.g{fill:#f76364;}.g{stroke-width:2px;}.h{stroke-linecap:round;}</style></defs><g id="a"/><g id="b"><g id="c"><g><g><rect class="e" x="4.5" y="4.5" width="157.16" height="152.22" rx="11.19" ry="11.19"/><line class="d" x1="4.69" y1="26.87" x2="161.66" y2="26.87"/><path class="i" d="M15.58,14.15c-1.04,0-1.88,.84-1.88,1.88s.84,1.88,1.88,1.88,1.88-.84,1.88-1.88-.84-1.88-1.88-1.88h0Z"/><path class="i" d="M28.08,14.15c-1.04,0-1.88,.84-1.88,1.88s.84,1.88,1.88,1.88,1.88-.84,1.88-1.88-.84-1.88-1.88-1.88h0Z"/><path class="i" d="M40.57,14.15c-1.04,0-1.88,.84-1.88,1.88s.84,1.88,1.88,1.88,1.88-.84,1.88-1.88-.84-1.88-1.88-1.88h0Z"/><line class="h" x1="51.44" y1="44.26" x2="142.84" y2="44.26"/><line class="h" x1="20.44" y1="57.26" x2="97.53" y2="57.26"/><line class="h" x1="65.75" y1="71.76" x2="142.84" y2="71.76"/><line class="h" x1="20.44" y1="86.26" x2="97.53" y2="86.26"/><line class="h" x1="109.36" y1="57.26" x2="118.1" y2="57.26"/><line class="h" x1="21.31" y1="44.26" x2="38.5" y2="44.26"/><line class="h" x1="128.64" y1="57.26" x2="132.75" y2="57.26"/><line class="h" x1="53.28" y1="71.76" x2="43.1" y2="71.76"/><line class="h" x1="121.25" y1="86.26" x2="111.06" y2="86.26"/><line class="h" x1="26.35" y1="71.76" x2="20.44" y2="71.76"/></g><g><path class="g" d="M118.35,141.33c-2.99-32.17-18.52-44.66-36.22-44.66s-31.6,12.49-34.59,44.66h-7.6v63.52c0,8.38,6.79,15.17,15.16,15.17h55.71c8.37,0,15.16-6.79,15.16-15.17v-63.52h-7.6Zm-59.35,0c2.75-22.2,11.6-33.79,23.12-33.79s22.01,11.59,24.75,33.79H59.01Z"/><path class="f" d="M96.09,175.58c0,5.72-3.65,10.59-8.75,12.4v11.38c0,2.42-1.98,4.4-4.4,4.4s-4.4-1.98-4.4-4.4v-11.38c-5.11-1.81-8.75-6.68-8.75-12.4,0-7.27,5.88-13.15,13.15-13.15s13.15,5.88,13.15,13.15Z"/></g></g></g></g></svg>