<?xml version="1.0" encoding="UTF-8"?><svg xmlns="http://www.w3.org/2000/svg" viewBox="0 0 277.82 208.35"><defs><style>.d{stroke-width:9px;}.d,.e{fill:#5fc4f0;stroke-linejoin:round;}.d,.e,.f{stroke:#393478;}.e{stroke-width:4px;}.f{fill:#f76364;stroke-miterlimit:10;stroke-width:2px;}</style></defs><g id="a"/><g id="b"><g id="c"><g><path class="d" d="M58.52,72.88c-.07,.31-.14,.62-.21,.94-.82-.34-1.66-.66-2.51-.94h2.72Z"/><path class="d" d="M273.32,109.77c0,21.5-17.42,38.92-38.91,38.92-1.84,0-3.66-.13-5.43-.38H48.85c-1.77,.25-3.59,.38-5.44,.38-21.49,0-38.91-17.42-38.91-38.92s17.42-38.91,38.91-38.91c4.33,0,8.5,.71,12.39,2.02,.85,.28,1.69,.6,2.51,.94,.07-.32,.14-.63,.21-.94,4.02-17.2,19.46-30.02,37.89-30.02,4.85,0,9.49,.89,13.77,2.51,9.96-23.99,33.63-40.87,61.23-40.87,36.6,0,66.28,29.67,66.28,66.27v.23c19.96,1.66,35.63,18.39,35.63,38.77Z"/><path class="f" d="M189.65,125.37c-3.12-33.52-19.3-46.53-37.74-46.53s-32.92,13.01-36.04,46.53h-7.92v66.18c0,8.73,7.07,15.8,15.79,15.8h58.04c8.72,0,15.79-7.07,15.79-15.8V125.37h-7.92Zm-61.83,0c2.86-23.13,12.09-35.21,24.09-35.21s22.93,12.08,25.79,35.21h-49.88Z"/><path class="e" d="M166.46,161.05c0,5.96-3.8,11.03-9.12,12.92v11.86c0,2.52-2.06,4.58-4.58,4.58s-4.58-2.06-4.58-4.58v-11.86c-5.32-1.89-9.12-6.96-9.12-12.92,0-7.57,6.13-13.7,13.7-13.7s13.7,6.13,13.7,13.7Z"/></g></g></g></svg>