<?xml version="1.0" encoding="UTF-8"?><svg xmlns="http://www.w3.org/2000/svg" viewBox="0 0 255.48 183.24"><defs><style>.d{fill:none;stroke:#fff;stroke-linecap:round;stroke-width:6px;}.d,.e{stroke-miterlimit:10;}.f{fill:#5fc4f0;stroke-linejoin:round;}.f,.e{stroke:#393478;stroke-width:9px;}.e{fill:#f76364;}</style></defs><g id="a"/><g id="b"><g id="c"><g><path class="f" d="M250.98,103.29c0,19.96-15.67,36.26-35.37,37.29-.65,.03-1.31,.05-1.97,.05H41.84c-.55,0-1.1,0-1.65-.04-19.85-.86-35.68-17.23-35.68-37.29s16.72-37.34,37.34-37.34c5.29,0,10.33,1.1,14.88,3.09,3.9-16.45,18.68-28.7,36.33-28.7,5.8,0,11.29,1.32,16.18,3.68,7.26-22.92,28.71-39.53,54.03-39.53,31.29,0,56.66,25.37,56.66,56.66,0,1.78-.08,3.54-.25,5.28,17.76,2.87,31.31,18.27,31.31,36.85Z"/><circle class="e" cx="131.78" cy="126.6" r="52.13"/><polyline class="d" points="105.06 134.6 118.9 147.35 158.5 105.86"/></g></g></g></svg>