<?xml version="1.0" encoding="UTF-8"?><svg xmlns="http://www.w3.org/2000/svg" viewBox="0 0 213.33 250.28"><defs><style>.d{fill:#393478;font-family:Constantia, Constantia;font-size:228.82px;}.e{fill:#5fc4f0;stroke-linejoin:round;stroke-width:4px;}.e,.f{stroke:#393478;}.f{fill:#f76364;stroke-miterlimit:10;stroke-width:2px;}</style></defs><g id="a"/><g id="b"><g id="c"><g><g><path class="f" d="M143.1,109.27c-2.99-32.17-18.52-44.66-36.22-44.66s-31.6,12.49-34.59,44.66h-7.6v63.52c0,8.38,6.79,15.17,15.16,15.17h55.71c8.37,0,15.16-6.79,15.16-15.17v-63.52h-7.6Zm-59.35,0c2.75-22.2,11.6-33.79,23.12-33.79s22.01,11.59,24.75,33.79h-47.88Z"/><path class="e" d="M120.84,143.51c0,5.72-3.65,10.59-8.75,12.4v11.38c0,2.42-1.98,4.4-4.4,4.4s-4.4-1.98-4.4-4.4v-11.38c-5.11-1.81-8.75-6.68-8.75-12.4,0-7.27,5.88-13.15,13.15-13.15s13.15,5.88,13.15,13.15Z"/></g><text class="d" transform="translate(0 192.96) scale(.78 1)"><tspan x="0" y="0">{</tspan></text><text class="d" transform="translate(150.9 192.96) scale(.78 1)"><tspan x="0" y="0">}</tspan></text></g></g></g></svg>