<?xml version="1.0" encoding="UTF-8"?><svg xmlns="http://www.w3.org/2000/svg" viewBox="0 0 204.99 234.34"><defs><style>.d,.e,.f,.g,.h,.i{stroke:#393478;}.d,.e,.g,.i{stroke-miterlimit:10;}.d,.f,.h{fill:#5fc4f0;}.d,.h{stroke-width:4px;}.e{stroke-linecap:round;}.e,.g{fill:none;stroke-width:5px;}.f{stroke-width:9px;}.f,.h{stroke-linejoin:round;}.i{fill:#f76364;stroke-width:2px;}</style></defs><g id="a"/><g id="b"><g id="c"><g><rect class="f" x="4.5" y="93.36" width="184.4" height="81.96"/><g><polygon class="d" points="106.67 24 86.73 24 83.83 2 109.57 2 106.67 24"/><path class="e" d="M97.07,29.67c3.93,0,7.11,3.18,7.11,7.11s-3.18,7.11-7.11,7.11-7.11-3.18-7.11-7.11"/><line class="e" x1="97.07" y1="29.67" x2="97.07" y2="25.02"/></g><line class="g" x1="97.07" y1="43.89" x2="27.28" y2="93.17"/><line class="g" x1="97.28" y1="43.89" x2="167.07" y2="93.17"/><g><line class="e" x1="33.7" y1="107.53" x2="33.7" y2="161.15"/><line class="e" x1="54.7" y1="107.53" x2="54.7" y2="161.15"/><line class="e" x1="75.7" y1="107.53" x2="75.7" y2="161.15"/><line class="e" x1="96.7" y1="107.53" x2="96.7" y2="161.15"/><line class="e" x1="117.7" y1="107.53" x2="117.7" y2="161.15"/><line class="e" x1="138.7" y1="107.53" x2="138.7" y2="161.15"/><line class="e" x1="159.7" y1="107.53" x2="159.7" y2="161.15"/></g><g><path class="i" d="M196.39,154.65c-2.99-32.17-18.52-44.66-36.22-44.66s-31.6,12.49-34.59,44.66h-7.6v63.52c0,8.38,6.79,15.17,15.16,15.17h55.71c8.37,0,15.16-6.79,15.16-15.17v-63.52h-7.6Zm-59.35,0c2.75-22.2,11.6-33.79,23.12-33.79s22.01,11.59,24.75,33.79h-47.88Z"/><path class="h" d="M174.13,188.9c0,5.72-3.65,10.59-8.75,12.4v11.38c0,2.42-1.98,4.4-4.4,4.4s-4.4-1.98-4.4-4.4v-11.38c-5.11-1.81-8.75-6.68-8.75-12.4,0-7.27,5.88-13.15,13.15-13.15s13.15,5.88,13.15,13.15Z"/></g></g></g></g></svg>