<?xml version="1.0" encoding="UTF-8"?><svg xmlns="http://www.w3.org/2000/svg" viewBox="0 0 201.15 211.59"><defs><style>.d{fill:none;stroke-linecap:round;}.d,.e{stroke-width:9px;}.d,.e,.f{stroke-linejoin:round;}.d,.e,.f,.g{stroke:#393478;}.e,.f{fill:#5fc4f0;}.f{stroke-width:4px;}.g{fill:#f76364;stroke-miterlimit:10;stroke-width:2px;}</style></defs><g id="a"/><g id="b"><g id="c"><g><g><rect class="e" x="4.5" y="4.5" width="148.58" height="42.22" rx="11.52" ry="11.52"/><g><line class="d" x1="66.96" y1="25.61" x2="90.62" y2="25.61"/><line class="d" x1="108.54" y1="25.61" x2="108.54" y2="25.61"/><line class="d" x1="128.7" y1="25.61" x2="128.7" y2="25.61"/><line class="d" x1="28.88" y1="25.61" x2="28.88" y2="25.61"/><line class="d" x1="49.03" y1="25.61" x2="49.03" y2="25.61"/></g></g><g><rect class="e" x="4.5" y="64.97" width="148.58" height="42.22" rx="11.52" ry="11.52"/><g><line class="d" x1="66.96" y1="86.08" x2="90.62" y2="86.08"/><line class="d" x1="108.54" y1="86.08" x2="108.54" y2="86.08"/><line class="d" x1="128.7" y1="86.08" x2="128.7" y2="86.08"/><line class="d" x1="28.88" y1="86.08" x2="28.88" y2="86.08"/><line class="d" x1="49.03" y1="86.08" x2="49.03" y2="86.08"/></g></g><g><rect class="e" x="4.5" y="125.44" width="148.58" height="42.22" rx="11.52" ry="11.52"/><g><line class="d" x1="66.96" y1="146.55" x2="90.62" y2="146.55"/><line class="d" x1="108.54" y1="146.55" x2="108.54" y2="146.55"/><line class="d" x1="128.7" y1="146.55" x2="128.7" y2="146.55"/><line class="d" x1="28.88" y1="146.55" x2="28.88" y2="146.55"/><line class="d" x1="49.03" y1="146.55" x2="49.03" y2="146.55"/></g></g><g><path class="g" d="M192.55,131.9c-2.99-32.17-18.52-44.66-36.22-44.66s-31.6,12.49-34.59,44.66h-7.6v63.52c0,8.38,6.79,15.17,15.16,15.17h55.71c8.37,0,15.16-6.79,15.16-15.17v-63.52h-7.6Zm-59.35,0c2.75-22.2,11.6-33.79,23.12-33.79s22.01,11.59,24.75,33.79h-47.88Z"/><path class="f" d="M170.29,166.15c0,5.72-3.65,10.59-8.75,12.4v11.38c0,2.42-1.98,4.4-4.4,4.4s-4.4-1.98-4.4-4.4v-11.38c-5.11-1.81-8.75-6.68-8.75-12.4,0-7.27,5.88-13.15,13.15-13.15s13.15,5.88,13.15,13.15Z"/></g></g></g></g></svg>