<?xml version="1.0" encoding="UTF-8"?><svg xmlns="http://www.w3.org/2000/svg" viewBox="0 0 213.21 237.59"><defs><style>.d{fill:#393478;}.e{fill:#f16365;}.f{stroke-linejoin:round;stroke-width:4px;}.f,.g{stroke:#393478;}.f,.h{fill:#5fc4f0;}.g{fill:#f76364;stroke-miterlimit:10;stroke-width:2px;}</style></defs><g id="a"/><g id="b"><g id="c"><g><path class="e" d="M18.61,61.08v86.79l35.58,44.73c2.88,3.63,7.28,5.75,11.92,5.75h74.35c4.64,0,9.03-2.12,11.92-5.75l46.38-58.31h0c2.87-3.62,3.95-8.36,2.93-12.86h0l-16.56-72.74h0c-1.03-4.51-4.06-8.32-8.23-10.33l-45.23-21.84h-56.77L18.61,61.08Z"/><g><path class="h" d="M60.52,108.91c-.03-.54-.07-1.07-.07-1.61,0-7.98,2.22-15.76,6.43-22.56l.94,.98c3.2,3.32,6.43,6.52,10.02,10.06,1.34,1.34,2.77,2.7,4.35,4.14,.35,.32,.5,.79,.39,1.25-.11,.45-.44,.8-.9,.94-.77,.24-1.53,.46-2.29,.69-1.36,.41-2.73,.81-4.09,1.26-1.31,.43-2.63,.86-3.95,1.28-3.12,1.01-6.34,2.05-9.5,3.19l-1.33,.46v-.08Z"/><path class="d" d="M66.97,85.56l.49,.51c3.19,3.31,6.3,6.39,10.02,10.06,1.36,1.36,2.79,2.72,4.37,4.15,.32,.29,.28,.64,.25,.77-.03,.13-.15,.45-.56,.58-.76,.23-1.52,.46-2.28,.69-1.34,.4-2.74,.82-4.11,1.27-1.32,.43-2.64,.86-3.96,1.29-3.12,1.01-6.34,2.05-9.5,3.19l-.72,.25c-.02-.34-.03-.67-.03-1,0-7.67,2.08-15.16,6.02-21.74m-.17-1.62c-4.32,6.74-6.85,14.74-6.85,23.36,0,.81,.07,1.59,.11,2.38l1.96-.68c4.47-1.61,8.97-3,13.44-4.47,2.13-.7,4.25-1.3,6.37-1.95,1.34-.39,1.74-2.08,.7-3.04-1.47-1.34-2.91-2.69-4.34-4.12-3.38-3.33-6.71-6.63-10.01-10.05l-1.39-1.44h0Z"/></g><g><path class="h" d="M79.02,142.61c-7.18-4.94-12.77-12.12-15.83-20.33l1.65-.14c4.43-.41,8.68-.92,13.19-1.45l.91-.11c1.3-.14,2.58-.31,3.87-.49,.73-.1,1.46-.2,2.2-.29,.09-.01,.16-.02,.22-.02,.42,0,.81,.21,1.04,.57,.24,.35,.28,.77,.12,1.16-.77,2.03-1.58,4.21-2.35,6.49-1.91,5.28-3.34,9.42-4.64,13.39l-.39,1.23Z"/><path class="d" d="M85.24,120.28c.25,0,.48,.13,.63,.35,.08,.12,.2,.38,.06,.71-.77,2.02-1.58,4.21-2.35,6.47-1.92,5.31-3.35,9.45-4.65,13.42l-.19,.58c-6.65-4.74-11.87-11.44-14.86-19.09l1-.08c4.42-.41,8.67-.91,13.16-1.45l.94-.11c1.31-.14,2.62-.32,3.89-.49,.73-.1,1.46-.2,2.24-.3,.04,0,.09-.01,.13-.01m0-1c-.09,0-.19,0-.29,.02-2.04,.26-4.03,.56-6.07,.78-4.72,.56-9.36,1.13-14.08,1.56l-2.3,.19c3.16,8.89,9.08,16.43,16.8,21.56l.6-1.86c1.47-4.51,3.03-8.93,4.64-13.39,.73-2.17,1.52-4.29,2.34-6.46,.48-1.17-.42-2.41-1.63-2.41h0Z"/></g><g><path class="h" d="M93.47,86.17c-1.61-1.17-3.27-2.37-5-3.47l-.67-.45c-3.62-2.45-7.36-4.98-11.17-7.35l-.78-.48c5.89-4.92,12.99-8.14,20.6-9.35l-.13,1.01c-.59,4.57-1.02,9.23-1.44,13.74l-.03,.35c-.22,2.12-.42,4.32-.59,6.57-.26-.19-.53-.38-.79-.57Z"/><path class="d" d="M95.87,65.66l-.04,.34c-.59,4.58-1.02,9.25-1.44,13.76l-.03,.34c-.19,1.84-.37,3.75-.52,5.7l-.08-.06c-1.61-1.17-3.28-2.38-4.99-3.46l-.65-.44c-3.63-2.46-7.39-5-11.22-7.38l-.19-.12c5.54-4.47,12.12-7.46,19.17-8.69m1.16-1.2c-8.36,1.2-15.93,4.75-22.03,10.01l1.36,.85c4.03,2.51,7.93,5.16,11.84,7.8,2.25,1.43,4.38,3.04,6.5,4.55,.18-2.46,.39-4.98,.65-7.46,.43-4.68,.87-9.4,1.47-14.08l.21-1.67h0Z"/></g><g><path class="h" d="M103.24,115.15c-.31,0-.62-.08-.88-.23l-4.89-2.27c-.28-.16-1.02-.67-1.11-1.47l-1.22-5.31c-.1-.59,.05-1.24,.42-1.68l3.39-4.26c.36-.5,1-.81,1.65-.81h5.28c.65,0,1.29,.31,1.63,.79l3.4,4.27c.37,.44,.53,1.09,.42,1.71l-1.21,5.22c-.14,.86-.78,1.34-1.15,1.55l-4.81,2.23c-.3,.17-.61,.25-.92,.25Z"/><path class="d" d="M105.88,99.64c.49,0,.98,.23,1.22,.58l.02,.02,.02,.02,3.4,4.27c.26,.31,.38,.81,.31,1.27l-1.21,5.22v.06c-.11,.6-.58,.97-.88,1.14l-4.81,2.23-.04,.02-.04,.02c-.19,.11-.41,.16-.63,.16s-.44-.06-.63-.16l-.04-.02-.04-.02-4.81-2.23c-.26-.16-.8-.54-.86-1.09v-.06l-.02-.06-1.2-5.22c-.07-.46,.04-.96,.32-1.29l3.41-4.29c.25-.35,.74-.58,1.23-.58h5.28m0-1h-5.28c-.82,0-1.6,.39-2.04,1l-3.38,4.25c-.47,.56-.65,1.38-.52,2.11l1.21,5.25c.09,.83,.7,1.47,1.39,1.87l4.85,2.25c.35,.2,.74,.3,1.13,.3s.78-.1,1.13-.3l4.85-2.25c.69-.39,1.26-1.04,1.39-1.87l1.22-5.25c.13-.73-.05-1.55-.52-2.11l-3.38-4.25c-.43-.6-1.22-1-2.04-1h0Z"/></g><g><path class="h" d="M103.28,150.14c-4.05,0-8.07-.57-11.96-1.7l.74-1.17c2.44-3.87,4.79-7.89,7.07-11.78l.22-.37c1.11-1.82,2.17-3.67,3.13-5.48,.23-.42,.65-.67,1.13-.67s.92,.25,1.15,.68c.83,1.58,1.78,3.3,3,5.39l.93,1.63c2,3.49,4.07,7.1,6.26,10.57l.68,1.1c-4.02,1.2-8.17,1.81-12.35,1.81Z"/><path class="d" d="M103.6,129.47c.14,0,.5,.04,.7,.4,.84,1.61,1.8,3.33,3.01,5.41l.92,1.6c2.01,3.5,4.09,7.13,6.29,10.61l.34,.55c-3.77,1.07-7.66,1.61-11.58,1.61s-7.53-.5-11.18-1.5l.38-.61c2.46-3.91,4.83-7.96,7.13-11.88l.16-.27c1.13-1.85,2.19-3.7,3.15-5.5,.21-.38,.55-.42,.69-.42m0-1c-.61,0-1.22,.31-1.57,.93-1,1.87-2.05,3.69-3.12,5.46-2.38,4.07-4.77,8.16-7.28,12.14l-1.09,1.73c4.03,1.23,8.3,1.91,12.74,1.91s8.98-.72,13.12-2.02l-1.02-1.66c-2.52-3.99-4.85-8.11-7.19-12.18-1.04-1.78-2.05-3.56-3-5.38-.35-.63-.97-.93-1.59-.93h0Z"/></g><g><path class="h" d="M113.48,86.95c-.59,0-1.25-.43-1.3-1.22-.13-1.86-.29-3.62-.48-5.56-.4-4.37-.85-9.33-1.47-14.1l-.13-1.01c7.95,1.27,15.31,4.72,21.35,10.01l-.88,.56c-3.4,2.18-6.75,4.46-10,6.67l-1.75,1.19c-1.4,.93-2.89,1.98-4.57,3.22-.23,.16-.5,.25-.77,.25Z"/><path class="d" d="M110.69,65.66c7.38,1.3,14.22,4.51,19.93,9.35l-.32,.2c-3.4,2.19-6.76,4.47-10.02,6.68l-1.74,1.18c-1.41,.94-2.91,2-4.57,3.22-.15,.11-.32,.16-.5,.16-.37,0-.77-.26-.8-.76-.13-1.83-.29-3.61-.48-5.57-.4-4.37-.85-9.33-1.48-14.12l-.04-.34m-1.16-1.2l.21,1.67c.61,4.68,1.05,9.4,1.47,14.08,.18,1.87,.35,3.68,.47,5.55,.06,1.02,.9,1.69,1.8,1.69,.36,0,.73-.11,1.07-.34,1.47-1.09,2.99-2.17,4.55-3.2,3.91-2.65,7.75-5.29,11.74-7.85l1.45-.91c-6.22-5.61-14.06-9.42-22.76-10.68h0Z"/></g><g><path class="h" d="M127.64,141.43c-1.21-3.79-2.51-7.59-3.77-11.26l-.74-2.14c-.72-2.09-1.42-4.02-2.13-5.91-.15-.4-.1-.83,.14-1.18,.24-.34,.61-.54,1.01-.54,.06,0,.11,0,.17,.01l.43,.05c1.94,.21,3.76,.4,5.67,.56l.41,.04c4.49,.41,9.13,.84,13.72,1.14l.85,.04c-3,8.08-8.46,15.19-15.47,20.12l-.29-.93Z"/><path class="d" d="M122.16,120.9s.07,0,.13,.01l.47,.05c1.92,.21,3.74,.4,5.62,.56l.46,.04c4.48,.41,9.11,.84,13.7,1.14h.16c-2.93,7.52-8.02,14.13-14.49,18.86l-.08-.27c-1.2-3.79-2.51-7.58-3.77-11.25l-.74-2.16c-.73-2.1-1.43-4.03-2.14-5.92-.13-.33,0-.59,.09-.72,.14-.21,.37-.33,.6-.33m0-1c-1.18,0-2.07,1.22-1.62,2.4,.73,1.95,1.43,3.9,2.13,5.89,1.51,4.42,3.07,8.88,4.5,13.39l.49,1.58c7.55-5.14,13.35-12.62,16.45-21.38l-1.51-.08c-4.72-.31-9.4-.74-14.12-1.18-2.04-.17-4.03-.39-6.07-.6-.08-.01-.16-.02-.24-.02h0Z"/></g><g><path class="h" d="M145.12,108.47c-4.14-1.35-8.37-2.56-12.45-3.72l-1.13-.32c-2.36-.7-4.91-1.39-7.98-2.16,.51-.48,1.02-.97,1.54-1.45,1.49-1.4,3.02-2.85,4.45-4.31,3.29-3.3,6.68-6.68,9.93-10.15l.71-.75c3.88,6.59,5.93,14.08,5.93,21.69,0,.44-.03,.88-.06,1.31,0,.05,0,.1-.01,.16l-.92-.3Z"/><path class="d" d="M140.09,86.44c3.62,6.37,5.53,13.55,5.53,20.86,0,.27-.01,.53-.03,.8l-.31-.1c-4.16-1.36-8.39-2.56-12.48-3.73l-1.1-.31c-2.14-.63-4.43-1.26-7.13-1.94,.29-.27,.58-.55,.87-.82,1.49-1.4,3.03-2.86,4.47-4.32,3.29-3.29,6.69-6.69,9.94-10.17l.25-.26m.19-1.66l-1.16,1.23c-3.24,3.47-6.58,6.8-9.92,10.14-2.12,2.17-4.42,4.25-6.63,6.38,2.95,.73,5.9,1.51,8.85,2.38,4.55,1.3,9.05,2.56,13.56,4.03l1.54,.49c.03-.71,.11-1.42,.11-2.14,0-8.26-2.34-15.95-6.34-22.51h0Z"/></g><g><path class="h" d="M66.11,193.85c-3.29,0-6.35-1.47-8.39-4.05L11.33,131.49c-2.01-2.52-2.78-5.91-2.06-9.06L25.82,49.69c.73-3.19,2.84-5.85,5.8-7.28L98.62,10.07c1.46-.71,3.03-1.07,4.66-1.07,1.54,0,3.02,.31,4.4,.93l67.27,32.48c2.91,1.4,5,4,5.76,7.13l16.59,72.89c.72,3.19-.03,6.49-2.07,9.06l-.97,1.23-45.4,57.08c-2.05,2.57-5.11,4.05-8.4,4.05H66.11Zm58.41-22.06c.03,2.53,1.08,4.87,2.97,6.61,1.77,1.57,3.96,2.4,6.24,2.4,2.56,0,5.03-1.08,6.78-2.95l.07-.08c3.39-3.81,3.12-9.5-.61-12.96l-.08-.07c-1.33-1.18-2.35-2.71-3.47-4.65-.39-.71-.85-1.62-1.36-2.74l-.07-.15c0-.13,.02-.37,.11-.79,.23-.98,.28-1.87,.23-2.67,9.66-6.67,16.98-16.1,20.99-27.04,.91-.17,1.77-.47,2.58-.91,.33-.15,.55-.22,.67-.25h.03l.32,.06c.92,.14,1.91,.36,2.94,.64,2.04,.59,3.76,1.21,5.31,2.25l.11,.07c1.52,.96,3.25,1.46,5,1.46,.69,0,1.38-.08,2.06-.24,2.36-.52,4.42-1.96,5.74-4.04,1.32-2.07,1.75-4.52,1.21-6.91-.94-4.25-4.64-7.22-9.01-7.22-.66,0-1.33,.07-1.97,.21-.99,.22-1.97,.32-3.12,.32-.78,0-1.63-.05-2.76-.15-1.04-.12-1.99-.27-2.91-.47l-.31-.07c-.1-.08-.28-.23-.54-.49-.63-.71-1.29-1.25-1.94-1.67,.03-.68,.04-1.34,.04-2.01,0-10.21-2.73-20.1-7.91-28.81,.35-.65,.65-1.41,.84-2.29,.12-.39,.21-.62,.26-.75l.28-.25c.66-.59,1.42-1.15,2.34-1.82,1.56-1.04,3.23-2.09,5.08-2.62,2.47-.71,4.47-2.38,5.64-4.7,1.12-2.11,1.34-4.61,.58-6.98-.76-2.36-2.4-4.28-4.62-5.39-1.22-.65-2.7-1.01-4.18-1.01-3.49,0-6.63,1.94-8.19,5.05-.87,1.69-2.22,3.15-3.54,4.48-.83,.79-1.6,1.47-2.34,2.07l-.14,.11c-.14,.03-.38,.06-.78,.09-.95,.04-1.77,.21-2.5,.44-8.05-7.09-17.98-11.77-28.52-13.44-.28-.7-.67-1.42-1.23-2.15-.24-.33-.37-.55-.44-.68v-.29c-.04-.86-.01-1.79,.07-2.99,.25-2.27,.55-4.01,1.26-5.67,.97-2.31,.98-4.86,.02-7.19-1.51-3.46-4.83-5.63-8.51-5.63-1.25,0-2.45,.24-3.59,.72-2.31,1-4.04,2.79-4.96,5.06-.92,2.3-.89,4.81,.1,7.08,.75,1.76,1.02,3.66,1.24,5.62,.07,1.13,.11,2.07,.08,2.96v.34c-.08,.12-.21,.34-.44,.66-.56,.73-.96,1.46-1.24,2.16-10.19,1.62-19.87,6.1-27.79,12.85-.76-.25-1.62-.43-2.61-.46-.38-.03-.62-.06-.76-.09l-.28-.21c-.82-.63-1.55-1.26-2.17-1.88-1.39-1.35-2.74-2.79-3.67-4.58-1.13-2.18-3.15-3.84-5.55-4.58l-.12-.03c-.81-.22-1.64-.34-2.48-.34-4.14,0-7.71,2.67-8.88,6.65-.7,2.35-.42,4.85,.78,7.02,1.2,2.16,3.16,3.72,5.52,4.39,1.73,.53,3.29,1.42,5.22,2.67,.86,.59,1.63,1.18,2.35,1.8l.19,.17c.06,.12,.15,.36,.27,.77,.18,.76,.43,1.44,.73,2.03-5.54,8.93-8.45,19.11-8.45,29.63,0,.92,.02,1.86,.07,2.81-.5,.37-1,.83-1.47,1.39-.22,.25-.38,.41-.49,.5l-.39,.1c-.95,.25-1.89,.43-2.8,.53-1.05,.13-2.19,.26-3.33,.26-.89,0-1.68-.08-2.43-.24l-.17-.03c-.52-.09-1.06-.14-1.59-.14-1.95,0-3.88,.62-5.44,1.73-1.97,1.37-3.32,3.49-3.73,5.94-.41,2.4,.14,4.83,1.53,6.83,1.77,2.48,4.59,3.94,7.57,3.94,1.92,0,3.76-.59,5.32-1.7,1.5-1.06,3.15-1.72,5.32-2.42,1-.31,1.95-.55,2.86-.72l.33-.06c.12,.03,.34,.1,.7,.25,.54,.26,1.08,.47,1.65,.61,4.08,11.01,11.52,20.47,21.33,27.13-.02,.7,.03,1.46,.22,2.28,.07,.42,.09,.68,.09,.82l-.09,.21c-.4,.89-.83,1.77-1.35,2.75-1.04,1.69-2.09,3.31-3.54,4.62-1.85,1.67-2.96,4.06-3.04,6.53-.08,2.44,.8,4.79,2.49,6.59,1.68,1.79,3.96,2.82,6.42,2.91,.11,0,.31,0,.31,0,5.01,0,9.06-3.91,9.23-8.91,.04-2,.62-3.86,1.27-5.75,.3-.82,.7-1.73,1.15-2.64l.14-.29c.1-.08,.3-.23,.65-.42,.71-.37,1.31-.8,1.81-1.24,5.23,1.55,10.57,2.34,15.91,2.34s10.88-.81,16.19-2.42c.5,.46,1.1,.89,1.81,1.28,.42,.25,.64,.41,.75,.5l.07,.15c.44,.94,.83,1.86,1.17,2.83,.7,2.01,1.18,3.75,1.25,5.64Z"/><path class="d" d="M103.28,13.5c.88,0,1.73,.18,2.51,.52l.2,.1,21.76,10.51,45.23,21.84c1.65,.8,2.89,2.32,3.33,4.09l.03,.13,16.34,71.75h0l.22,.99c.41,1.82-.04,3.79-1.21,5.26l-.97,1.22-45.41,57.08c-1.17,1.47-3,2.35-4.88,2.35H66.11c-1.88,0-3.7-.88-4.87-2.35l-35.58-44.73-10.8-13.58c-1.17-1.47-1.61-3.43-1.2-5.26l13.74-60.35,2.82-12.37c.42-1.83,1.68-3.41,3.37-4.23l45.24-21.84,21.77-10.51c.84-.41,1.75-.61,2.69-.61m-.07,8.9c-1.81,0-3.58,.36-5.26,1.07l-.06,.03-.06,.03c-6.93,3.02-10.13,11.08-7.15,17.99,.47,1.1,.69,2.42,.91,4.28,.03,.5,.06,1,.07,1.48-.04,.06-.09,.13-.13,.19-9.45,1.87-18.41,6.02-26.02,12.04-.15-.02-.3-.04-.46-.05-.37-.31-.7-.61-.99-.9l-.06-.06-.06-.06c-1.44-1.4-2.24-2.37-2.75-3.36-1.68-3.24-4.68-5.72-8.22-6.81l-.12-.04-.12-.03c-1.2-.33-2.44-.5-3.67-.5-6.15,0-11.45,3.97-13.19,9.86-1.05,3.53-.63,7.25,1.16,10.49,1.75,3.15,4.72,5.52,8.17,6.51,1.21,.38,2.44,1.08,4,2.1,.35,.24,.68,.48,.99,.72-5.18,9.14-7.9,19.37-7.9,29.93,0,.23,0,.46,0,.69-.37,.07-.73,.13-1.09,.17h-.07l-.07,.02c-.78,.1-1.8,.21-2.69,.21-.57,0-1.06-.04-1.5-.14l-.17-.04-.17-.03c-.77-.13-1.56-.2-2.35-.2-2.9,0-5.66,.88-8,2.53-6.14,4.3-7.64,12.82-3.34,19.03l.03,.05,.03,.05c2.58,3.62,6.77,5.78,11.21,5.78,2.86,0,5.6-.88,7.92-2.53,1.03-.73,2.32-1.23,4.07-1.8,.32-.1,.62-.19,.92-.27,4.28,10.19,11.27,19.04,20.27,25.62-.21,.44-.44,.9-.7,1.38-.86,1.4-1.67,2.63-2.64,3.51-2.77,2.5-4.42,6.05-4.53,9.71-.26,7.55,5.68,13.91,13.25,14.16,.16,0,.31,0,.47,0,7.44,0,13.47-5.82,13.73-13.25v-.14c.03-1.15,.37-2.37,1-4.22,.15-.39,.31-.8,.49-1.21,4.93,1.27,9.94,1.91,14.95,1.91s10.23-.66,15.23-1.98c.18,.42,.34,.85,.5,1.3,.56,1.62,.95,2.98,1.01,4.3,.06,3.7,1.67,7.26,4.42,9.79l.06,.06,.06,.06c2.53,2.24,5.79,3.48,9.16,3.48,3.8,0,7.47-1.6,10.07-4.38l.07-.08,.07-.08c5.02-5.66,4.62-14.11-.91-19.25l-.08-.07-.08-.07c-.87-.77-1.64-1.94-2.52-3.46-.22-.4-.45-.84-.7-1.35,.02-.14,.04-.28,.06-.42,8.9-6.64,15.81-15.53,20-25.74,.13-.05,.26-.11,.39-.17,.48,.1,.98,.22,1.49,.36,1.67,.49,3,.96,4.06,1.67l.11,.07,.11,.07c2.24,1.41,4.8,2.15,7.39,2.15,1.02,0,2.04-.12,3.03-.34,3.57-.8,6.61-2.94,8.57-6.02,1.96-3.09,2.6-6.75,1.81-10.28-1.4-6.34-6.91-10.77-13.41-10.77-.98,0-1.97,.11-2.93,.31h-.06c-.63,.15-1.3,.22-2.1,.22-.62,0-1.32-.04-2.27-.12-.55-.06-1.05-.13-1.52-.21-.04-.04-.09-.08-.13-.13-.02-10.23-2.57-20.16-7.43-29.04,.01-.04,.02-.07,.03-.11,.37-.29,.8-.61,1.29-.96,1.5-1,2.65-1.68,3.76-1.99,3.6-1.03,6.64-3.55,8.36-6.91,1.7-3.25,2.01-6.96,.89-10.46-1.12-3.5-3.53-6.33-6.8-8-1.94-1-4.11-1.53-6.28-1.53-5.18,0-9.83,2.86-12.17,7.46-.62,1.17-1.66,2.3-2.7,3.35-.4,.38-.79,.73-1.16,1.06-.08,0-.15,.02-.23,.02-7.77-6.34-17.01-10.69-26.81-12.63-.04-.06-.08-.12-.12-.18,0-.43,.03-.91,.07-1.47,.21-1.86,.43-3.17,.93-4.34,1.44-3.41,1.45-7.18,.03-10.63l-.04-.09-.04-.09c-2.19-5.01-7.13-8.24-12.6-8.24h-.06m.07-17.9c-2.26,0-4.52,.5-6.62,1.51l-21.76,10.51L29.66,38.36c-4.16,2.01-7.2,5.82-8.23,10.33l-2.82,12.38L4.88,121.43c-1.02,4.5,.06,9.24,2.93,12.86l10.8,13.58,35.58,44.73c2.88,3.63,7.28,5.75,11.92,5.75h74.35c4.64,0,9.03-2.12,11.92-5.75l46.38-58.31h0c2.87-3.62,3.95-8.36,2.93-12.86h0l-16.56-72.74h0c-1.03-4.51-4.06-8.32-8.23-10.33l-45.23-21.84-21.76-10.51s0,0,0,0c-2.09-1.01-4.35-1.51-6.62-1.51h0Zm-35.89,65.27c8.19-7.83,18.89-13.04,30.78-14.21,.13-1.17,.22-2.34,1.13-3.51,.87-1.18,1.47-2.34,1.34-3.52,.05-1.17,0-2.33-.09-3.55-.27-2.34-.6-4.68-1.6-7.02-1.04-2.38,.09-5.15,2.47-6.19,.6-.25,1.22-.37,1.83-.37h.02c1.83,0,3.57,1.06,4.35,2.84,.52,1.26,.48,2.59,0,3.72-1,2.34-1.34,4.68-1.6,7.02-.09,1.22-.14,2.38-.1,3.55-.13,1.18,.48,2.34,1.34,3.52,.91,1.17,1,2.34,1.13,3.51,12.21,1.2,23.2,6.63,31.46,14.82,1-.65,1.95-1.34,3.47-1.39,1.43-.08,2.73-.34,3.55-1.21,.91-.74,1.78-1.52,2.64-2.34,1.65-1.65,3.25-3.43,4.42-5.68,.82-1.63,2.46-2.57,4.17-2.57,.73,0,1.48,.17,2.17,.54,2.33,1.17,3.24,4.03,2.03,6.32-.61,1.22-1.64,2.05-2.85,2.39-2.43,.69-4.47,1.95-6.42,3.25-.96,.69-1.91,1.38-2.78,2.17-1,.64-1.51,1.86-1.91,3.24-.3,1.47-1.13,2.29-1.96,3.16,5.61,8.3,8.89,18.3,8.89,29.04,0,1.65-.09,3.27-.24,4.88l.07,.02c1.13,.35,2.25,.65,3.25,1.82,1,1.04,2.03,1.82,3.2,1.91,1.18,.26,2.3,.43,3.47,.56,1.06,.1,2.11,.17,3.17,.17,1.33,0,2.67-.11,4.07-.43,.34-.07,.68-.11,1.02-.11,2.18,0,4.13,1.5,4.62,3.71,.56,2.51-1.04,5.02-3.59,5.59-.35,.08-.69,.12-1.03,.12-.94,0-1.84-.29-2.61-.77-2.13-1.43-4.39-2.21-6.64-2.86-1.13-.31-2.29-.56-3.41-.74-.31-.09-.62-.14-.95-.14-.88,0-1.84,.31-2.78,.75-.83,.47-1.61,.59-2.38,.59-.43,0-.86-.04-1.3-.07h-.15c-3.74,12.36-11.96,22.75-22.77,29.36l.03,.11c.35,1.13,.74,2.21,.39,3.68-.3,1.43-.34,2.74,.27,3.78,.48,1.04,1,2.12,1.55,3.12,1.18,2.04,2.47,4.07,4.38,5.76,1.91,1.77,2.04,4.73,.31,6.67-.94,1.01-2.21,1.52-3.49,1.52-1.13,0-2.27-.4-3.19-1.22-.99-.91-1.51-2.13-1.51-3.39-.09-2.55-.73-4.8-1.51-7.05-.39-1.09-.83-2.17-1.34-3.25-.39-1.13-1.43-1.92-2.68-2.65-1.26-.67-1.86-1.62-2.45-2.62-5.55,2.03-11.51,3.19-17.75,3.19s-12-1.13-17.47-3.08c-.56,.96-1.12,1.88-2.38,2.52-1.26,.69-2.29,1.52-2.68,2.65-.52,1.04-1,2.13-1.39,3.2-.77,2.25-1.47,4.51-1.51,7.06-.09,2.55-2.21,4.56-4.73,4.56-.05,0-.11,0-.16,0-2.6-.09-4.65-2.26-4.56-4.86,.04-1.34,.65-2.51,1.56-3.33,1.91-1.73,3.2-3.73,4.42-5.72,.56-1.05,1.08-2.08,1.56-3.16,.6-.99,.56-2.34,.3-3.77-.33-1.38,.02-2.46,.39-3.5-10.89-6.54-19.23-16.9-23.05-29.27-.32,.03-.65,.06-.98,.06-.66,0-1.35-.11-2.09-.49-.95-.4-1.85-.68-2.69-.68-.36,0-.7,.05-1.04,.17-1.17,.22-2.3,.52-3.43,.87-2.25,.73-4.46,1.56-6.54,3.04-.82,.59-1.77,.87-2.71,.87-1.48,0-2.95-.7-3.88-2-1.47-2.13-1-5.07,1.13-6.55,.84-.6,1.84-.89,2.82-.89,.28,0,.55,.02,.82,.07,1.14,.24,2.26,.33,3.37,.33,1.29,0,2.56-.13,3.82-.29,1.17-.13,2.33-.35,3.46-.65,1.17-.09,2.21-.95,3.16-2.04,.83-.97,1.79-1.34,2.76-1.68-.19-1.78-.29-3.59-.29-5.43,0-11.08,3.52-21.34,9.44-29.79-.77-.78-1.57-1.59-1.86-2.97-.39-1.38-.91-2.6-1.9-3.25-.91-.78-1.83-1.47-2.78-2.13-2-1.3-4.03-2.51-6.46-3.24-2.51-.69-3.99-3.34-3.25-5.81,.61-2.08,2.5-3.42,4.56-3.42,.42,0,.85,.06,1.28,.17,1.26,.39,2.3,1.26,2.87,2.34,1.17,2.25,2.78,4.03,4.47,5.68,.82,.83,1.73,1.6,2.64,2.29,.82,.87,2.13,1.13,3.55,1.22,1.52,.04,2.47,.69,3.46,1.34l.08,.04h0Z"/></g><g><path class="g" d="M204.61,157.9c-2.99-32.17-18.52-44.66-36.22-44.66s-31.6,12.49-34.59,44.66h-7.6v63.52c0,8.38,6.79,15.17,15.16,15.17h55.71c8.37,0,15.16-6.79,15.16-15.17v-63.52h-7.6Zm-59.35,0c2.75-22.2,11.6-33.79,23.12-33.79s22.01,11.59,24.75,33.79h-47.88Z"/><path class="f" d="M182.35,192.15c0,5.72-3.65,10.59-8.75,12.4v11.38c0,2.42-1.98,4.4-4.4,4.4s-4.4-1.98-4.4-4.4v-11.38c-5.11-1.81-8.75-6.68-8.75-12.4,0-7.27,5.88-13.15,13.15-13.15s13.15,5.88,13.15,13.15Z"/></g></g></g></g></svg>