<?xml version="1.0" encoding="UTF-8"?><svg xmlns="http://www.w3.org/2000/svg" viewBox="0 0 203.14 213.36"><defs><style>.d{fill:#393478;}.e{stroke-linecap:round;stroke-width:5px;}.e,.f{fill:none;}.e,.f,.g,.h{stroke:#393478;stroke-miterlimit:10;}.f,.g{stroke-width:9px;}.g{fill:#5fc4f0;}.h{fill:#f76364;stroke-width:3px;}</style></defs><g id="a"/><g id="b"><g id="c"><g><path class="g" d="M85.4,16.46v49.61c0,.57-.46,1.04-1.04,1.04h-9.81v16.36c0,1.33-1.08,2.41-2.4,2.41h-12.02v106.34l-12.09,15.37c-1.49,1.89-4.43,1.62-5.55-.51l-11.84-22.52v-14.3l-8.17-10.72,8.17-17.37-8.17-9.7,6.12-11.23-6.12-6.79,7.66-12.5v-16.07h-12.54c-1.32,0-2.4-1.08-2.4-2.41v-16.36H5.54c-.57,0-1.04-.46-1.04-1.04V16.47c0-6.61,5.36-11.97,11.97-11.97h56.97c6.61,0,11.96,5.35,11.96,11.96Z"/><line class="f" x1="30.13" y1="85.88" x2="60.13" y2="85.88"/><line class="e" x1="43.72" y1="97.68" x2="43.72" y2="160.66"/><line class="e" x1="43.72" y1="172.92" x2="43.72" y2="184.15"/><circle class="h" cx="45.19" cy="25.15" r="10.47"/><path class="h" d="M42.78,36.84h4.83c10.3,0,18.65,8.36,18.65,18.65v4.21H24.12v-4.21c0-10.3,8.36-18.65,18.65-18.65Z"/><path class="g" d="M60.13,118.28h115.53c12.68,0,22.98,10.3,22.98,22.98h0c0,12.68-10.3,22.98-22.98,22.98H60.13v-45.96h0Z"/><path class="d" d="M88.64,147.47c1.81,0,3.35-.63,4.61-1.9,1.26-1.26,1.9-2.8,1.9-4.61s-.63-3.35-1.9-4.61c-1.26-1.26-2.8-1.9-4.61-1.9s-3.35,.63-4.61,1.9c-1.26,1.26-1.9,2.8-1.9,4.61s.63,3.35,1.9,4.61c1.26,1.26,2.8,1.9,4.61,1.9Zm0-2.22c-1.2,0-2.21-.41-3.04-1.24-.83-.83-1.24-1.84-1.24-3.04s.41-2.21,1.24-3.04c.83-.83,1.84-1.24,3.04-1.24s2.21,.41,3.04,1.24c.83,.83,1.24,1.84,1.24,3.04s-.41,2.21-1.24,3.04c-.83,.83-1.84,1.24-3.04,1.24Zm0,7.2c-3.73,0-7.1-1.06-10.11-3.18-3.01-2.12-5.26-4.89-6.74-8.31,1.48-3.42,3.73-6.19,6.74-8.31,3.01-2.12,6.38-3.18,10.11-3.18s7.1,1.06,10.11,3.18c3.01,2.12,5.26,4.89,6.74,8.31-1.48,3.42-3.73,6.19-6.74,8.31-3.01,2.12-6.38,3.18-10.11,3.18Zm0-2.3c3.09,0,5.93-.84,8.52-2.51,2.59-1.67,4.56-3.9,5.92-6.68-1.35-2.78-3.33-5.01-5.92-6.68-2.59-1.67-5.43-2.51-8.52-2.51s-5.93,.84-8.52,2.51c-2.59,1.67-4.58,3.9-5.96,6.68,1.38,2.78,3.36,5.01,5.96,6.68,2.59,1.67,5.43,2.51,8.52,2.51Z"/><path class="d" d="M117.92,150.42h1.36l14.98-14.98-.68-.68-.68-.68-14.98,14.98v1.36Zm-1.85,1.85v-3.95l18.16-18.16c.35-.35,.79-.52,1.31-.51,.52,.01,.96,.19,1.31,.54l1.33,1.33c.35,.35,.52,.78,.52,1.3s-.17,.95-.52,1.3l-18.16,18.16h-3.95Zm20.69-19.48l-1.27-1.27,1.27,1.27Zm-2.5,2.66l-.68-.68-.68-.68,1.36,1.36Z"/><path class="d" d="M159.52,154.47l-.68-4.26c-.43-.16-.88-.37-1.35-.64-.47-.27-.89-.55-1.25-.84l-3.99,1.82-3.14-5.54,3.65-2.67c-.05-.2-.07-.43-.08-.69-.01-.26-.02-.49-.02-.69s0-.43,.02-.69c.01-.26,.04-.49,.08-.69l-3.65-2.67,3.14-5.54,3.99,1.82c.36-.29,.78-.57,1.25-.84,.47-.27,.92-.47,1.35-.61l.68-4.29h6.21l.68,4.26c.43,.16,.88,.37,1.37,.62s.9,.55,1.23,.86l3.99-1.82,3.14,5.54-3.65,2.6c.05,.23,.07,.47,.08,.73,.01,.26,.02,.5,.02,.73s0,.46-.02,.71c-.01,.25-.04,.48-.08,.71l3.65,2.63-3.14,5.54-3.99-1.82c-.36,.29-.77,.58-1.23,.86s-.92,.49-1.37,.62l-.68,4.26h-6.21Zm3.11-9.12c1.22,0,2.25-.43,3.11-1.28s1.28-1.89,1.28-3.11-.43-2.25-1.28-3.11-1.89-1.28-3.11-1.28-2.25,.43-3.11,1.28-1.28,1.89-1.28,3.11,.43,2.25,1.28,3.11,1.89,1.28,3.11,1.28Zm0-2.03c-.65,0-1.21-.23-1.67-.69-.46-.46-.69-1.02-.69-1.67s.23-1.21,.69-1.67c.46-.46,1.02-.69,1.67-.69s1.21,.23,1.67,.69c.46,.46,.69,1.02,.69,1.67s-.23,1.21-.69,1.67c-.46,.46-1.02,.69-1.67,.69Zm-1.49,9.12h2.97l.47-3.78c.74-.18,1.45-.46,2.11-.84,.66-.38,1.27-.84,1.81-1.38l3.58,1.55,1.35-2.43-3.18-2.33c.09-.38,.16-.76,.22-1.13,.06-.37,.08-.75,.08-1.13s-.02-.76-.07-1.13c-.05-.37-.12-.75-.24-1.13l3.18-2.33-1.35-2.43-3.58,1.55c-.52-.59-1.1-1.08-1.76-1.47-.65-.39-1.37-.65-2.16-.76l-.47-3.78h-2.97l-.47,3.78c-.77,.16-1.48,.43-2.14,.81-.66,.38-1.26,.86-1.77,1.42l-3.58-1.55-1.35,2.43,3.17,2.33c-.09,.38-.16,.76-.22,1.13-.06,.37-.08,.75-.08,1.13s.03,.76,.08,1.13c.06,.37,.13,.75,.22,1.13l-3.17,2.33,1.35,2.43,3.58-1.55c.54,.54,1.14,1,1.81,1.38,.66,.38,1.37,.66,2.11,.84l.47,3.78Z"/></g></g></g></svg>